<svg width="48" height="47" viewBox="0 0 48 47" fill="none" xmlns="http://www.w3.org/2000/svg">
<path d="M1.4371 45.5349C1.89625 45.9968 2.44221 46.3634 3.04356 46.6135C3.64491 46.8637 4.28977 46.9924 4.94107 46.9924C5.59237 46.9924 6.23724 46.8637 6.83859 46.6135C7.43993 46.3634 7.98589 45.9968 8.44505 45.5349L37.1134 16.8607V36.0625C37.1134 37.3743 37.6345 38.6325 38.5622 39.5601C39.4898 40.4878 40.748 41.0089 42.0599 41.0089C43.3717 41.0089 44.6299 40.4878 45.5575 39.5601C46.4852 38.6325 47.0063 37.3743 47.0063 36.0625V4.953C47.0053 4.78907 46.9955 4.62533 46.9771 4.46244C46.9771 4.38652 46.9771 4.31644 46.9479 4.24636C46.9187 4.17628 46.9479 4.07116 46.907 3.98356C46.8661 3.89596 46.872 3.82004 46.8486 3.73828C46.8253 3.65652 46.8136 3.59229 46.7902 3.51637C46.7669 3.44045 46.7377 3.35869 46.7085 3.27693C46.6793 3.19517 46.6559 3.13093 46.6267 3.06085C46.5975 2.99077 46.5625 2.91485 46.5274 2.84477L46.4223 2.62285L46.2997 2.41846C46.2588 2.34838 46.2179 2.27246 46.1712 2.20822C46.1245 2.14398 46.0661 2.06222 46.0135 1.99214L45.885 1.81694C45.6777 1.56585 45.447 1.3351 45.1959 1.12782L45.0207 0.999346C44.9506 0.946786 44.8806 0.888384 44.8046 0.841664L44.5886 0.707348C44.5244 0.664994 44.4582 0.626006 44.39 0.590546C44.3199 0.549666 44.244 0.520466 44.1681 0.485426L43.952 0.380307L43.7126 0.281028L43.479 0.193428L43.2512 0.140871L43.0059 0.0766307C42.9242 0.0766307 42.8366 0.0766277 42.749 0.0415879L42.5329 0.00654958C42.3695 -0.00218319 42.2057 -0.00218319 42.0423 0.00654958H10.9095C9.59763 0.00654958 8.33948 0.527691 7.41185 1.45533C6.48421 2.38297 5.96307 3.64112 5.96307 4.953C5.96461 6.26386 6.48644 7.52051 7.41391 8.44689C8.34138 9.37327 9.59865 9.8936 10.9095 9.8936H30.1055L1.4371 38.5678C0.516656 39.4935 0 40.7459 0 42.0513C0 43.3568 0.516656 44.6092 1.4371 45.5349Z" fill="#435058"/>
</svg>
