<svg width="25" height="16" viewBox="0 0 25 16" fill="none" xmlns="http://www.w3.org/2000/svg">
<path d="M9.51119 15.0063C10.166 14.8827 10.783 14.6198 11.316 14.2373C11.7611 13.911 12.1368 13.5071 12.4232 13.0471C12.8996 12.3213 13.1457 11.48 13.1318 10.6244C13.1558 9.83877 12.9405 9.06329 12.5118 8.39137C12.0685 7.7627 11.418 7.29212 10.6627 7.05365C11.1257 6.84671 11.54 6.55292 11.8807 6.18991C12.4014 5.55428 12.6647 4.76176 12.6225 3.95686C12.6459 3.12665 12.3898 2.31103 11.8917 1.62897C11.3859 1.06651 10.7463 0.626917 10.0261 0.346639C9.30594 0.0663613 8.52587 -0.0465182 7.75066 0.0173769H0V15.2064H7.19704C7.97363 15.2163 8.74922 15.1493 9.51119 15.0063ZM3.24423 2.6507H6.70989C7.35055 2.63494 7.98973 2.71674 8.60325 2.89298C8.88562 3.00722 9.1214 3.20556 9.27514 3.45819C9.42888 3.71081 9.49227 4.00409 9.45581 4.29393C9.48586 4.55131 9.44201 4.8116 9.32893 5.04715C9.21585 5.28271 9.03778 5.48471 8.81363 5.63165C8.29333 5.89537 7.70863 6.02262 7.11956 6.00032H3.24423V2.6507ZM3.24423 12.5731V8.51776H7.17491C7.71967 8.5015 8.26221 8.5911 8.76933 8.7811C9.09597 8.91636 9.36985 9.14557 9.55255 9.4365C9.73526 9.72744 9.81761 10.0655 9.788 10.4032C9.83271 10.7832 9.75631 11.1671 9.56874 11.5052C9.38116 11.8433 9.09106 12.1199 8.73612 12.2992C8.2249 12.5022 7.67301 12.5957 7.11956 12.5731H3.24423Z" fill="#435058"/>
<path d="M15.5871 14.4493C16.6925 15.4016 18.0821 15.9115 19.5101 15.8888C20.281 15.9367 21.0527 15.8095 21.7728 15.5156C22.4928 15.2217 23.1445 14.7681 23.6834 14.1856C24.2344 13.6118 24.5995 12.8697 24.7268 12.0648H21.7532C21.6054 12.3697 21.4036 12.642 21.1585 12.8669C20.697 13.2424 20.1239 13.4333 19.5414 13.4054C18.9769 13.4237 18.4192 13.2712 17.9346 12.9659C17.5558 12.6928 17.2497 12.3224 17.0451 11.8896C16.8406 11.4569 16.7445 10.9763 16.7661 10.4934H24.8728C24.9046 9.71552 24.8732 8.93613 24.7789 8.16384C24.663 7.29712 24.3596 6.47004 23.8921 5.74639C23.4236 4.98565 22.7572 4.38292 21.9723 4.01018C21.1456 3.63565 20.2534 3.44846 19.3536 3.46076C18.6204 3.42979 17.8891 3.55822 17.2052 3.83802C16.5213 4.11782 15.8994 4.54301 15.3784 5.08707C14.8395 5.71808 14.4261 6.45646 14.1626 7.25858C13.8992 8.06071 13.7911 8.91032 13.8447 9.75719C13.7737 10.6277 13.894 11.5037 14.1961 12.3173C14.4983 13.131 14.9742 13.8605 15.5871 14.4493ZM17.6738 6.65842C17.9016 6.42489 18.1736 6.2445 18.472 6.12901C18.7704 6.01353 19.0885 5.96553 19.4057 5.98814C20.0354 5.96387 20.6505 6.19156 21.1272 6.62546C21.3718 6.85946 21.5676 7.14435 21.7023 7.4621C21.8369 7.77985 21.9076 8.12355 21.9097 8.47152H16.8912C16.9686 7.8097 17.2425 7.19055 17.6738 6.70238V6.65842Z" fill="#435058"/>
<path d="M22.8111 0.691254H15.8986V2.07374H22.8111V0.691254Z" fill="#435058"/>
</svg>
