<svg width="25" height="25" viewBox="0 0 25 25" fill="none" xmlns="http://www.w3.org/2000/svg">
<path d="M12.0914 2.14197C15.3044 2.14197 15.7114 2.14198 16.9858 2.21695C17.7542 2.22371 18.5154 2.36507 19.2349 2.63463C19.7568 2.82761 20.2289 3.13501 20.6165 3.53426C21.0171 3.92702 21.3277 4.40205 21.5268 4.92654C21.791 5.64754 21.9322 6.40781 21.9445 7.1756C21.9445 8.45007 22.0087 8.83564 22.0087 12.0593C22.0087 15.283 22.0087 15.6792 21.9445 16.9537C21.9322 17.7215 21.791 18.4818 21.5268 19.2028C21.32 19.7201 21.0101 20.1901 20.6162 20.584C20.2222 20.978 19.7522 21.2878 19.2349 21.4947C18.5139 21.7589 17.7536 21.9001 16.9858 21.9124C15.7114 21.9124 15.3258 21.9766 12.0914 21.9766C8.85705 21.9766 8.48221 21.9766 7.20773 21.9124C6.43994 21.9001 5.67966 21.7589 4.95866 21.4947C4.4413 21.2878 3.97138 20.978 3.5774 20.584C3.18342 20.1901 2.8736 19.7201 2.66675 19.2028C2.40252 18.4818 2.26133 17.7215 2.24907 16.9537C2.19552 15.6792 2.18481 15.2937 2.18481 12.0593C2.18481 8.82493 2.18481 8.45007 2.24907 7.1756C2.26133 6.40781 2.40252 5.64754 2.66675 4.92654C2.86589 4.40205 3.17649 3.92702 3.57709 3.53426C3.96469 3.13501 4.43675 2.82761 4.95866 2.63463C5.67819 2.36507 6.4394 2.22371 7.20773 2.21695C8.48221 2.21695 8.86776 2.14197 12.0914 2.14197ZM12.0914 0C8.81421 0 8.39652 7.84381e-06 7.11134 0.0749768C6.10849 0.0910551 5.11586 0.279425 4.17684 0.631878C3.37407 0.947435 2.64495 1.4251 2.03502 2.03503C1.42509 2.64496 0.947443 3.37408 0.631886 4.17685C0.278399 5.11558 0.0899785 6.10838 0.0749686 7.11134C0.0107095 8.39653 0 8.81422 0 12.0914C0 15.3687 -3.27158e-07 15.797 0.0749686 17.0822C0.0910469 18.0851 0.279433 19.0777 0.631886 20.0167C0.947443 20.8195 1.42509 21.5486 2.03502 22.1585C2.64495 22.7685 3.37407 23.2461 4.17684 23.5617C5.11731 23.909 6.10904 24.0972 7.11134 24.1186C8.39652 24.1829 8.81421 24.1936 12.0914 24.1936C15.3686 24.1936 15.797 24.1936 17.0822 24.1186C18.0845 24.0972 19.0763 23.909 20.0167 23.5617C20.8195 23.2461 21.5486 22.7685 22.1585 22.1585C22.7685 21.5486 23.2461 20.8195 23.5617 20.0167C23.9141 19.0777 24.1025 18.0851 24.1186 17.0822C24.1828 15.797 24.1936 15.3794 24.1936 12.0914C24.1936 8.80351 24.1936 8.39653 24.1186 7.11134C24.1036 6.10838 23.9152 5.11558 23.5617 4.17685C23.2461 3.37408 22.7685 2.64496 22.1585 2.03503C21.5486 1.4251 20.8195 0.947435 20.0167 0.631878C19.0777 0.279425 18.0851 0.0910551 17.0822 0.0749768C15.797 0.0107177 15.3793 0 12.0914 0Z" fill="#435058"/>
<path d="M11.7512 6.22119C10.5207 6.22119 9.31792 6.58606 8.29484 7.26965C7.27177 7.95325 6.47439 8.92486 6.00352 10.0616C5.53265 11.1984 5.40945 12.4493 5.6495 13.6561C5.88954 14.8629 6.48205 15.9714 7.3521 16.8414C8.22215 17.7115 9.33067 18.304 10.5375 18.5441C11.7443 18.7841 12.9951 18.6609 14.1319 18.19C15.2687 17.7192 16.2403 16.9218 16.9239 15.8987C17.6075 14.8756 17.9724 13.6728 17.9724 12.4424C17.9724 10.7924 17.3169 9.21004 16.1502 8.04333C14.9835 6.87663 13.4011 6.22119 11.7512 6.22119ZM11.7512 16.4862C10.9514 16.4862 10.1696 16.249 9.50455 15.8047C8.83956 15.3603 8.32126 14.7288 8.01519 13.9899C7.70913 13.251 7.62904 12.4379 7.78507 11.6535C7.9411 10.8691 8.32624 10.1485 8.89177 9.583C9.4573 9.01747 10.1778 8.63233 10.9623 8.4763C11.7467 8.32027 12.5597 8.40036 13.2986 8.70642C14.0375 9.01249 14.6691 9.53078 15.1134 10.1958C15.5578 10.8608 15.7949 11.6426 15.7949 12.4424C15.7949 12.9734 15.6903 13.4993 15.4871 13.9899C15.2839 14.4805 14.986 14.9263 14.6105 15.3018C14.235 15.6773 13.7893 15.9751 13.2986 16.1784C12.808 16.3816 12.2822 16.4862 11.7512 16.4862Z" fill="#435058"/>
<path d="M20.0259 5.5301C20.0259 5.80439 19.9449 6.07248 19.7931 6.30025C19.6414 6.52801 19.4259 6.70517 19.1739 6.80918C18.922 6.91319 18.645 6.93936 18.3783 6.88435C18.1115 6.82934 17.867 6.69563 17.6759 6.50025C17.4848 6.30486 17.3557 6.05664 17.3051 5.78714C17.2544 5.51763 17.2845 5.23904 17.3915 4.98681C17.4984 4.73457 17.6775 4.52008 17.9058 4.37065C18.1341 4.22121 18.4014 4.14358 18.6737 4.14761C19.0377 4.14761 19.3867 4.29326 19.6441 4.55253C19.9015 4.8118 20.0461 5.16344 20.0461 5.5301" fill="#435058"/>
</svg>
