<svg width="23" height="23" viewBox="0 0 23 23" fill="none" xmlns="http://www.w3.org/2000/svg">
<path d="M5.00404 7.42538H0.439476V22.1798H5.00404V7.42538Z" fill="#435058"/>
<path d="M2.70017 5.4431C3.23934 5.44734 3.76763 5.29135 4.21801 4.99489C4.66838 4.69843 5.02054 4.27487 5.22982 3.77795C5.4391 3.28103 5.49606 2.73314 5.39348 2.2038C5.2909 1.67446 5.03341 1.18753 4.65366 0.804764C4.2739 0.421996 3.78902 0.160651 3.2605 0.0538891C2.73199 -0.0528727 2.18367 -0.000255096 1.68512 0.205091C1.18656 0.410437 0.760242 0.759244 0.460232 1.20726C0.160221 1.65528 3.79767e-05 2.18231 2.12616e-05 2.7215C-0.00138863 3.0775 0.0673334 3.4303 0.202267 3.75974C0.3372 4.08917 0.535707 4.38882 0.78644 4.64154C1.03717 4.89426 1.33524 5.09511 1.6636 5.23264C1.99196 5.37018 2.34417 5.44169 2.70017 5.4431Z" fill="#435058"/>
<path d="M12.3116 14.4329C12.3116 12.3542 13.2652 11.122 15.0975 11.122C16.9297 11.122 17.5834 12.3114 17.5834 14.4329V22.1798H22.1265V12.8364C22.1265 8.88257 19.887 6.97532 16.769 6.97532C15.8809 6.96226 15.0045 7.17945 14.2253 7.6057C13.446 8.03194 12.7904 8.65274 12.3223 9.40762V7.42536H7.93993V22.1798H12.3223L12.3116 14.4329Z" fill="#435058"/>
</svg>
