<svg xmlns="http://www.w3.org/2000/svg" viewBox="0 0 353.98 122.56"><defs><style>.cls-1{fill:#485159;}</style></defs><g id="Camada_2" data-name="Camada 2"><g id="Y2K_Icon_Pack_by_Intuitive_Designs" data-name="Y2K Icon Pack by Intuitive Designs"><path class="cls-1" d="M351.54,21.41l-.27-.37c-.18-.31-.37-.61-.58-.91l-.27-.36a10.77,10.77,0,0,0-.58-.91l-.27-.37a10.61,10.61,0,0,0-.58-.9l-.27-.37,0-.06a13.6,13.6,0,0,0-1-1.77l-.28-.36v0a13.68,13.68,0,0,0-1.49-2.8c-.09-.13-.18-.25-.28-.37-.18-.31-.36-.61-.57-.91l-.27-.36c-.18-.31-.37-.61-.58-.91l-.27-.37c-.18-.3-.37-.61-.58-.9L343.06,8c-.18-.31-.37-.61-.58-.91l-.27-.36a10.77,10.77,0,0,0-.58-.91A14,14,0,0,0,329.89.07H301.11C292.79.07,284.29,6,280.94,14c-.21-.35-.44-.7-.68-1l-.15-.2c-.22-.37-.45-.72-.7-1.07l-.15-.21c-.22-.36-.45-.72-.7-1.07C273.86,3.7,266.12,0,256.77,0H218.26l0,.07H194.55c-11.23,0-23,6.38-30.65,15.76-.06-.09-.11-.18-.18-.27l-.15-.21c-.22-.36-.45-.71-.69-1.06a1.77,1.77,0,0,1-.16-.22c-.22-.35-.45-.71-.69-1.05-.05-.08-.11-.15-.16-.22-.22-.36-.45-.71-.69-1.06l-.16-.21c-.22-.36-.45-.72-.69-1.06C155.62,3.75,147.88,0,138.53,0H100l0,.07H47.13C31.83.11,15.52,12,10,27.1L1.86,49.42C-1.15,57.66-.48,65.86,3.67,72a20,20,0,0,0,1.92,3.41c0,.07.1.13.15.2.22.37.45.72.7,1.07,0,.07.1.14.15.21.22.36.45.72.69,1.07l.16.2c.22.36.45.72.69,1.07l0,.06a20.2,20.2,0,0,0,1.3,2.13l.15.21c.22.36.45.72.7,1.07l.15.2c.22.36.45.72.7,1.07a1.49,1.49,0,0,0,.15.2c.22.37.45.73.7,1.08l.15.2c.22.36.45.72.69,1.07l.16.2c.22.37.45.72.69,1.07A20.33,20.33,0,0,0,16,90.45a13,13,0,0,0,1.54,11.37l.3.4a.57.57,0,0,0,.08.13A11.83,11.83,0,0,0,19.29,105c.09.13.2.27.3.4.17.29.35.59.55.87s.2.27.3.4a9.8,9.8,0,0,0,.55.87c.09.14.2.27.3.41.17.29.35.59.55.87a3.79,3.79,0,0,0,.3.4,1,1,0,0,0,.08.14,12.42,12.42,0,0,0,1,1.65l.3.4c.17.3.35.59.55.88l.3.4c.17.29.35.59.55.87s.2.27.3.4a9.8,9.8,0,0,0,.55.87c.09.14.2.27.3.4.17.3.35.59.55.88l.3.4c.17.29.35.59.55.87a12.48,12.48,0,0,0,10.45,5.17h76.71c9.59,0,19.5-3.93,27.68-10.3l.29.39a9.8,9.8,0,0,0,.55.87l.3.4c.17.3.35.59.55.88l.3.4c.17.29.35.59.55.87l.3.4a9.8,9.8,0,0,0,.55.87,12.48,12.48,0,0,0,10.45,5.18h76.72c10.1,0,20.58-4.38,29-11.37l.31.47c.08.12.18.24.27.36.18.31.37.61.58.91a4.22,4.22,0,0,0,.27.36c.18.31.37.62.57.91q.14.2.27.36c.19.32.38.62.58.92l.27.36c.18.31.38.62.58.91a14.22,14.22,0,0,0,11.92,5.85h28.19c8.78,0,17.77-6.49,20.91-15.1,1.85-5.07,1.35-10.21-1.37-14.09a3.32,3.32,0,0,0-.26-.36,23.5,23.5,0,0,0,11.52-12.59l16.45-45.13c1.82-5,1.33-10-1.35-13.88M104.69,99.92H28c-4.39,0-6.65-3.56-5-8v0c1.6-4.39,6.46-8,10.85-8H71.49a7.78,7.78,0,0,0,6.7-4.91c1-2.71-.41-4.91-3.12-4.91H22.7c-12.34,0-18.69-10-14.19-22.33l8.14-22.32C21.15,17.19,34.79,7.19,47.13,7.19H105l0-.07h33.55c15.09,0,22.86,12.23,17.36,27.32L142,72.61c-5.51,15.08-22.2,27.31-37.28,27.31m118.23,0H146.21c-4.39,0-6.65-3.56-5.05-7.95v0c1.6-4.39,6.45-8,10.84-8h37.71a7.77,7.77,0,0,0,6.7-4.9c1-2.71-.41-4.91-3.12-4.91H170.12c-12.34,0-18.69-10-14.19-22.34l8.13-22.32c4.5-12.34,18.15-22.34,30.49-22.34h18.82L195.68,55.66h0l-.07.18h0c-.85,2.62.54,4.71,3.18,4.71a7.78,7.78,0,0,0,6.62-4.71h0l.08-.19L223.21,7.08h33.56c15.08,0,22.85,12.23,17.35,27.31L260.2,72.56C254.7,87.65,238,99.88,222.92,99.88M310,89.47h0c-2.11,5.77-8.49,10.45-14.26,10.45h-28.2c-5.77,0-8.74-4.68-6.63-10.45S269.39,79,275.16,79h28.2c5.77,0,8.74,4.68,6.64,10.45M336.34,17.3,319.88,62.43c-2,5.61-8.25,10.15-13.86,10.15H277.24c-5.61,0-8.49-4.54-6.45-10.15L287.25,17.3c2-5.61,8.25-10.16,13.86-10.16h28.78c5.61,0,8.5,4.55,6.45,10.16"/></g></g></svg>