<svg width="13" height="13" viewBox="0 0 13 13" fill="none" xmlns="http://www.w3.org/2000/svg">
<path d="M8.53177 9.46857C7.46939 10.2943 6.13239 10.6838 4.79302 10.5579C3.45366 10.4319 2.21262 9.79994 1.32262 8.79064C0.432617 7.78134 -0.0394347 6.4706 0.00258226 5.1253C0.0445992 3.78 0.597525 2.5013 1.54878 1.54956C2.50003 0.597829 3.77807 0.0446219 5.12269 0.00258357C6.4673 -0.0394547 7.77738 0.432837 8.78617 1.32329C9.79496 2.21375 10.4266 3.45541 10.5525 4.79546C10.6784 6.13551 10.289 7.47319 9.46375 8.53611L13 12.0609L12.0614 13L8.53838 9.46857H8.53177ZM5.29297 9.25695C5.81378 9.25695 6.32948 9.15431 6.81065 8.95491C7.29181 8.7555 7.729 8.46323 8.09727 8.09478C8.46554 7.72632 8.75766 7.28891 8.95697 6.8075C9.15627 6.32609 9.25885 5.81012 9.25885 5.28905C9.25885 4.76798 9.15627 4.25201 8.95697 3.7706C8.75766 3.28919 8.46554 2.85177 8.09727 2.48332C7.729 2.11487 7.29181 1.82259 6.81065 1.62319C6.32948 1.42378 5.81378 1.32115 5.29297 1.32115C4.24115 1.32115 3.23241 1.73919 2.48867 2.48332C1.74492 3.22744 1.32709 4.2367 1.32709 5.28905C1.32709 6.3414 1.74492 7.35065 2.48867 8.09478C3.23241 8.8389 4.24115 9.25695 5.29297 9.25695Z" fill="#3A3A3A"/>
</svg>
