<svg width="15" height="15" viewBox="0 0 15 15" fill="none" xmlns="http://www.w3.org/2000/svg">
<path d="M4.3313 9.78702C4.52657 9.92634 4.7605 10.0011 5.00037 10.0009C5.24023 10.0007 5.47402 9.92546 5.66903 9.78577C5.86396 9.64003 6.01213 9.44056 6.09535 9.21182L6.52917 7.87763C6.63323 7.5633 6.80927 7.27762 7.04326 7.04338C7.27725 6.80913 7.56271 6.6328 7.8769 6.52843L9.23463 6.08703C9.46232 6.00535 9.65859 5.85417 9.7957 5.65485C9.93281 5.45553 10.0038 5.21816 9.99871 4.97627C9.9936 4.73439 9.91262 4.50023 9.76721 4.30689C9.62179 4.11354 9.41931 3.97079 9.18837 3.89881L7.85189 3.46616C7.53738 3.36225 7.2515 3.18626 7.01707 2.95222C6.78264 2.71819 6.60614 2.43259 6.50167 2.11822L6.06034 0.762764C5.98025 0.53893 5.83279 0.345412 5.63824 0.208824C5.44369 0.0722355 5.21161 -0.000713093 4.97391 1.04223e-05C4.73281 -0.00101576 4.49749 0.0737601 4.30119 0.213772C4.10489 0.353783 3.95755 0.551951 3.87998 0.78027L3.4349 2.14322C3.33039 2.44828 3.15824 2.72574 2.93134 2.95484C2.70445 3.18393 2.42868 3.35874 2.12468 3.46616L0.769454 3.90506C0.54305 3.98508 0.347245 4.13375 0.209326 4.33035C0.0714064 4.52695 -0.00175681 4.76168 3.20376e-05 5.00184C0.00182089 5.242 0.0784726 5.47562 0.219305 5.67014C0.360138 5.86466 0.558136 6.0104 0.785706 6.08703L2.11968 6.52093C2.43463 6.62617 2.72073 6.80334 2.95532 7.0384C3.1899 7.27346 3.36652 7.55994 3.47116 7.87513L3.91123 9.22558C3.99 9.45065 4.13752 9.64697 4.33255 9.78577M2.5085 5.32678L1.43957 4.99542L2.51975 4.64406C3.01306 4.47406 3.46026 4.192 3.82622 3.82003C4.19128 3.44491 4.46633 2.99476 4.63135 2.49959L4.96266 1.42548L5.31272 2.50334C5.47851 3.00367 5.75913 3.45823 6.1321 3.83061C6.50507 4.20299 6.96004 4.48286 7.46058 4.64781L8.56076 4.98417L7.48558 5.33428C6.98464 5.4996 6.52941 5.78004 6.15641 6.15311C5.78341 6.52617 5.50301 6.98148 5.33772 7.4825L5.00642 8.55411L4.65761 7.48C4.49269 6.97815 4.21233 6.522 3.83907 6.14825C3.46582 5.77449 3.01007 5.49231 2.5085 5.32678ZM10.6686 14.8149C10.8384 14.9357 11.0416 15.0004 11.25 15C11.4599 14.9979 11.664 14.9306 11.834 14.8074C12.004 14.6841 12.1315 14.5111 12.1989 14.3123L12.5089 13.3595C12.5752 13.1619 12.6877 12.9806 12.834 12.833C12.9803 12.6855 13.1615 12.5742 13.3591 12.5092L14.3242 12.1941C14.5239 12.1256 14.6967 11.9957 14.8181 11.8231C14.9394 11.6504 15.0031 11.4437 14.9999 11.2327C14.9967 11.0216 14.9268 10.817 14.8003 10.6481C14.6738 10.4792 14.4971 10.3546 14.2955 10.2922L13.3403 9.98083C13.1428 9.91467 12.9633 9.80371 12.8159 9.65664C12.6684 9.50957 12.5569 9.33036 12.4902 9.13305L12.1751 8.16523C12.1073 7.96647 11.9787 7.79409 11.8075 7.67251C11.6363 7.55093 11.4312 7.48633 11.2213 7.48785C11.0113 7.48937 10.8071 7.55694 10.6377 7.68099C10.4683 7.80503 10.3422 7.97926 10.2773 8.17898L9.9685 9.1318C9.90481 9.32768 9.79676 9.50621 9.65277 9.65348C9.50878 9.80074 9.33274 9.91277 9.13836 9.98083L8.1682 10.2972C8.02135 10.3483 7.88842 10.4329 7.77997 10.5443C7.67152 10.6557 7.59054 10.7909 7.54345 10.9391C7.49637 11.0873 7.48447 11.2444 7.50872 11.398C7.53296 11.5516 7.59267 11.6975 7.68312 11.8239C7.80689 11.999 7.98192 12.1303 8.1832 12.1991L9.13711 12.5079C9.33526 12.5747 9.51519 12.6866 9.66272 12.8348C9.81024 12.983 9.92134 13.1635 9.98725 13.362L10.3036 14.3298C10.372 14.5254 10.4996 14.695 10.6686 14.8149ZM9.52593 11.3225L9.30339 11.2488L9.53343 11.1687C9.91256 11.0375 10.2564 10.8206 10.5382 10.535C10.8201 10.2495 11.0324 9.9028 11.1587 9.52193L11.2312 9.29935L11.3062 9.52568C11.4339 9.90891 11.649 10.2571 11.9346 10.5428C12.2202 10.8284 12.5683 11.0436 12.9515 11.1712L13.1953 11.25L12.9703 11.3238C12.5862 11.4519 12.2373 11.668 11.9515 11.9547C11.6656 12.2415 11.4507 12.5911 11.3237 12.9756L11.25 13.2019L11.1775 12.9756C11.0512 12.5899 10.836 12.2394 10.5494 11.9523C10.2627 11.6651 9.91255 11.4494 9.52718 11.3225" fill="black"/>
</svg>
