<svg width="23" height="20" viewBox="0 0 23 20" fill="none" xmlns="http://www.w3.org/2000/svg">
<path d="M0 17.7384C2.06801 19.1556 4.45911 19.9367 6.91258 19.9963C9.36604 20.056 11.7877 19.392 13.9134 18.0767C16.0392 16.7614 17.7875 14.8454 18.9676 12.5375C20.1477 10.2296 20.7144 7.61847 20.6059 4.98883C21.5428 4.27347 22.3534 3.38498 23 2.36491C22.1412 2.77867 21.2278 3.04725 20.2923 3.16107C21.2834 2.53507 22.0271 1.54204 22.3832 0.368941C21.458 0.956868 20.4472 1.37384 19.3932 1.60242C18.6855 0.789474 17.7473 0.250059 16.7244 0.0680408C15.7014 -0.113977 14.6511 0.071597 13.7366 0.595908C12.8221 1.12022 12.0948 1.9539 11.6676 2.96733C11.2405 3.98076 11.1374 5.11716 11.3745 6.19987C9.50136 6.10236 7.66834 5.58263 5.99492 4.67457C4.3215 3.7665 2.84522 2.49047 1.66227 0.929608C1.06271 2.04039 0.880342 3.35447 1.15226 4.6044C1.42417 5.85433 2.12994 6.94614 3.12591 7.65761C2.39283 7.62603 1.67679 7.41099 1.03501 7.02967C1.02269 8.20546 1.39276 9.34911 2.08156 10.2639C2.77036 11.1787 3.73484 11.8075 4.8091 12.042C4.12666 12.2358 3.41287 12.2664 2.71819 12.1317C3.01602 13.1348 3.60012 14.0122 4.388 14.64C5.17588 15.2677 6.12773 15.6141 7.10909 15.6303C6.11759 16.4771 4.97678 17.1004 3.75516 17.4626C2.53353 17.8249 1.25626 17.9187 0 17.7384Z" fill="#435058"/>
</svg>
