<svg width="28" height="20" viewBox="0 0 28 20" fill="none" xmlns="http://www.w3.org/2000/svg">
<path d="M27.4132 3.11844C27.2541 2.51475 26.9416 1.96399 26.5069 1.52117C26.0722 1.07835 25.5305 0.759015 24.9359 0.595051C22.7629 9.39225e-06 13.9946 0 13.9946 0C13.9946 0 5.30232 9.39225e-06 3.06407 0.595051C2.46952 0.759015 1.92781 1.07835 1.49309 1.52117C1.05836 1.96399 0.745851 2.51475 0.586781 3.11844C-0.195594 7.66813 -0.195594 12.3208 0.586781 16.8705C0.745189 17.4757 1.0573 18.0283 1.49198 18.473C1.92666 18.9177 2.46871 19.239 3.06407 19.4049C5.23713 20 13.9946 20 13.9946 20C13.9946 20 22.752 20 24.9359 19.4049C25.5313 19.239 26.0733 18.9177 26.508 18.473C26.9427 18.0283 27.2548 17.4757 27.4132 16.8705C28.1956 12.3208 28.1956 7.66813 27.4132 3.11844ZM11.1153 14.2149V5.7741L18.4276 9.9945L11.1153 14.2149Z" fill="#435058"/>
</svg>
