<svg width="14" height="16" viewBox="0 0 14 16" fill="none" xmlns="http://www.w3.org/2000/svg">
<path d="M6.73913 11.6543C7.93478 11.6543 8.8913 12.642 8.8913 13.8272C8.8913 15.0343 7.93478 16 6.73913 16C5.56522 16 4.58696 15.0343 4.58696 13.8272C4.58696 12.642 5.56522 11.6543 6.73913 11.6543ZM6.86957 0C10.3696 0 14 0.680385 14 4.45542C14 8.8011 8.41304 7.92318 8.41304 10.4911H4.93478C4.93478 5.96982 10.087 6.80384 10.087 4.45542C10.087 3.29218 9 2.74348 6.97826 2.74348C4.93478 2.74348 4.04348 3.64335 3.95652 5.31139H0C0.23913 1.49246 3.08696 0 6.86957 0Z" fill="#7094FA"/>
</svg>
