<svg width="320" height="128" viewBox="0 0 320 128" fill="none" xmlns="http://www.w3.org/2000/svg">
<mask id="path-1-outside-1_647_9" maskUnits="userSpaceOnUse" x="4.3999" y="2.66394" width="313" height="120" fill="black">
<rect fill="white" x="4.3999" y="2.66394" width="313" height="120"/>
<path d="M61.9599 58.4239C66.0559 61.4106 69.2132 65.0373 71.4319 69.3039C73.7359 73.4853 74.8879 78.0506 74.8879 82.9999C74.8879 87.4373 73.9492 91.6186 72.0719 95.5439C70.1946 99.3839 67.5919 102.755 64.2639 105.656C61.0212 108.557 57.2239 110.861 52.8719 112.568C48.5199 114.189 43.8692 115 38.9199 115H11.3999V20.6639L36.3599 20.7919C40.2852 20.7919 43.9972 21.4746 47.4959 22.8399C50.9946 24.2053 54.0666 26.0826 56.7119 28.4719C59.3572 30.7759 61.4052 33.5066 62.8559 36.6639C64.3919 39.7359 65.1599 43.0639 65.1599 46.6479C65.1599 50.9999 64.0932 54.9253 61.9599 58.4239ZM33.0319 42.4239V50.9999H36.4879C38.6212 50.9146 40.3279 50.4026 41.6079 49.4639C42.8879 48.5253 43.5279 47.5866 43.5279 46.6479C43.5279 45.7946 42.8879 44.8986 41.6079 43.9599C40.3279 42.9359 38.5786 42.4239 36.3599 42.4239H33.0319ZM38.9199 93.2399C40.7972 93.2399 42.5892 92.9839 44.2959 92.4719C46.0879 91.8746 47.6239 91.1066 48.9039 90.1679C50.2692 89.2293 51.3359 88.1626 52.1039 86.9679C52.8719 85.6879 53.2559 84.3653 53.2559 82.9999C53.2559 81.6346 52.8719 80.3119 52.1039 79.0319C51.3359 77.7519 50.2692 76.6426 48.9039 75.7039C47.6239 74.7653 46.0879 74.0399 44.2959 73.5279C42.5892 72.9306 40.7972 72.6319 38.9199 72.6319H33.0319V93.2399H38.9199Z"/>
<path d="M135.586 115H79.6499V20.9199H101.282V93.3679H135.586V115Z"/>
<path d="M179.601 20.9199C186.086 20.9199 192.188 22.1573 197.905 24.6319C203.622 27.1066 208.614 30.4773 212.881 34.7439C217.148 38.9253 220.518 43.8746 222.993 49.5919C225.468 55.3093 226.705 61.4106 226.705 67.8959C226.705 74.3813 225.468 80.4826 222.993 86.1999C220.518 91.9173 217.148 96.9093 212.881 101.176C208.614 105.357 203.622 108.685 197.905 111.16C192.188 113.635 186.086 114.872 179.601 114.872C173.116 114.872 167.014 113.635 161.297 111.16C155.58 108.685 150.588 105.357 146.321 101.176C142.14 96.9093 138.812 91.9173 136.337 86.1999C133.862 80.4826 132.625 74.3813 132.625 67.8959C132.625 61.4106 133.862 55.3093 136.337 49.5919C138.812 43.8746 142.14 38.9253 146.321 34.7439C150.588 30.4773 155.58 27.1066 161.297 24.6319C167.014 22.1573 173.116 20.9199 179.601 20.9199ZM179.601 93.2399C183.1 93.2399 186.385 92.5999 189.457 91.3199C192.529 89.9546 195.217 88.1199 197.521 85.8159C199.825 83.5119 201.617 80.8239 202.897 77.7519C204.262 74.6799 204.945 71.3946 204.945 67.8959C204.945 64.3973 204.262 61.1119 202.897 58.0399C201.617 54.9679 199.825 52.2799 197.521 49.9759C195.217 47.6719 192.529 45.8799 189.457 44.5999C186.385 43.2346 183.1 42.5519 179.601 42.5519C176.102 42.5519 172.817 43.2346 169.745 44.5999C166.673 45.8799 163.985 47.6719 161.681 49.9759C159.377 52.2799 157.542 54.9679 156.177 58.0399C154.897 61.1119 154.257 64.3973 154.257 67.8959C154.257 71.3946 154.897 74.6799 156.177 77.7519C157.542 80.8239 159.377 83.5119 161.681 85.8159C163.985 88.1199 166.673 89.9546 169.745 91.3199C172.817 92.5999 176.102 93.2399 179.601 93.2399Z"/>
<path d="M309.566 62.3919V115H287.806V112.696C285.417 113.549 282.942 114.189 280.382 114.616C277.907 114.957 275.433 115.128 272.958 115.128C266.814 115.128 260.841 113.976 255.038 111.672C249.321 109.368 244.158 105.912 239.55 101.304C235.027 96.7813 231.614 91.6186 229.31 85.8159C227.006 80.0133 225.854 74.0826 225.854 68.0239C225.854 61.9653 226.963 56.0346 229.182 50.2319C231.486 44.4293 234.942 39.2239 239.55 34.6159C244.158 30.0079 249.363 26.5519 255.166 24.2479C260.969 21.9439 266.899 20.7919 272.958 20.7919C279.017 20.7919 284.947 21.9439 290.75 24.2479C296.553 26.5519 301.758 30.0079 306.366 34.6159L291.006 49.9759C288.531 47.5013 285.715 45.6666 282.558 44.4719C279.401 43.1919 276.201 42.5519 272.958 42.5519C269.715 42.5519 266.515 43.1919 263.358 44.4719C260.201 45.6666 257.385 47.5013 254.91 49.9759C252.435 52.4506 250.558 55.2666 249.278 58.4239C247.998 61.5813 247.358 64.7813 247.358 68.0239C247.358 71.2666 247.998 74.4666 249.278 77.6239C250.558 80.7813 252.435 83.5973 254.91 86.0719C257.129 88.2906 259.603 90.0399 262.334 91.3199C265.15 92.5146 268.009 93.2399 270.91 93.4959C273.897 93.6666 276.841 93.3679 279.742 92.5999C282.643 91.8319 285.331 90.5519 287.806 88.7599V84.0239H268.99V62.3919H309.566Z"/>
<path d="M61.9599 48.4239C66.0559 51.4106 69.2132 55.0373 71.4319 59.3039C73.7359 63.4853 74.8879 68.0506 74.8879 72.9999C74.8879 77.4373 73.9492 81.6186 72.0719 85.5439C70.1946 89.3839 67.5919 92.7546 64.2639 95.6559C61.0212 98.5573 57.2239 100.861 52.8719 102.568C48.5199 104.189 43.8692 105 38.9199 105H11.3999V10.6639L36.3599 10.7919C40.2852 10.7919 43.9972 11.4746 47.4959 12.8399C50.9946 14.2053 54.0666 16.0826 56.7119 18.4719C59.3572 20.7759 61.4052 23.5066 62.8559 26.6639C64.3919 29.7359 65.1599 33.0639 65.1599 36.6479C65.1599 40.9999 64.0932 44.9253 61.9599 48.4239ZM33.0319 32.4239V40.9999H36.4879C38.6212 40.9146 40.3279 40.4026 41.6079 39.4639C42.8879 38.5253 43.5279 37.5866 43.5279 36.6479C43.5279 35.7946 42.8879 34.8986 41.6079 33.9599C40.3279 32.9359 38.5786 32.4239 36.3599 32.4239H33.0319ZM38.9199 83.2399C40.7972 83.2399 42.5892 82.9839 44.2959 82.4719C46.0879 81.8746 47.6239 81.1066 48.9039 80.1679C50.2692 79.2293 51.3359 78.1626 52.1039 76.9679C52.8719 75.6879 53.2559 74.3653 53.2559 72.9999C53.2559 71.6346 52.8719 70.3119 52.1039 69.0319C51.3359 67.7519 50.2692 66.6426 48.9039 65.7039C47.6239 64.7653 46.0879 64.0399 44.2959 63.5279C42.5892 62.9306 40.7972 62.6319 38.9199 62.6319H33.0319V83.2399H38.9199Z"/>
<path d="M135.586 105H79.6499V10.9199H101.282V83.3679H135.586V105Z"/>
<path d="M179.601 10.9199C186.086 10.9199 192.188 12.1573 197.905 14.6319C203.622 17.1066 208.614 20.4773 212.881 24.7439C217.148 28.9253 220.518 33.8746 222.993 39.5919C225.468 45.3093 226.705 51.4106 226.705 57.8959C226.705 64.3813 225.468 70.4826 222.993 76.1999C220.518 81.9173 217.148 86.9093 212.881 91.1759C208.614 95.3573 203.622 98.6853 197.905 101.16C192.188 103.635 186.086 104.872 179.601 104.872C173.116 104.872 167.014 103.635 161.297 101.16C155.58 98.6853 150.588 95.3573 146.321 91.1759C142.14 86.9093 138.812 81.9173 136.337 76.1999C133.862 70.4826 132.625 64.3813 132.625 57.8959C132.625 51.4106 133.862 45.3093 136.337 39.5919C138.812 33.8746 142.14 28.9253 146.321 24.7439C150.588 20.4773 155.58 17.1066 161.297 14.6319C167.014 12.1573 173.116 10.9199 179.601 10.9199ZM179.601 83.2399C183.1 83.2399 186.385 82.5999 189.457 81.3199C192.529 79.9546 195.217 78.1199 197.521 75.8159C199.825 73.5119 201.617 70.8239 202.897 67.7519C204.262 64.6799 204.945 61.3946 204.945 57.8959C204.945 54.3973 204.262 51.1119 202.897 48.0399C201.617 44.9679 199.825 42.2799 197.521 39.9759C195.217 37.6719 192.529 35.8799 189.457 34.5999C186.385 33.2346 183.1 32.5519 179.601 32.5519C176.102 32.5519 172.817 33.2346 169.745 34.5999C166.673 35.8799 163.985 37.6719 161.681 39.9759C159.377 42.2799 157.542 44.9679 156.177 48.0399C154.897 51.1119 154.257 54.3973 154.257 57.8959C154.257 61.3946 154.897 64.6799 156.177 67.7519C157.542 70.8239 159.377 73.5119 161.681 75.8159C163.985 78.1199 166.673 79.9546 169.745 81.3199C172.817 82.5999 176.102 83.2399 179.601 83.2399Z"/>
<path d="M309.566 52.3919V105H287.806V102.696C285.417 103.549 282.942 104.189 280.382 104.616C277.907 104.957 275.433 105.128 272.958 105.128C266.814 105.128 260.841 103.976 255.038 101.672C249.321 99.3679 244.158 95.9119 239.55 91.3039C235.027 86.7813 231.614 81.6186 229.31 75.8159C227.006 70.0133 225.854 64.0826 225.854 58.0239C225.854 51.9653 226.963 46.0346 229.182 40.2319C231.486 34.4293 234.942 29.2239 239.55 24.6159C244.158 20.0079 249.363 16.5519 255.166 14.2479C260.969 11.9439 266.899 10.7919 272.958 10.7919C279.017 10.7919 284.947 11.9439 290.75 14.2479C296.553 16.5519 301.758 20.0079 306.366 24.6159L291.006 39.9759C288.531 37.5013 285.715 35.6666 282.558 34.4719C279.401 33.1919 276.201 32.5519 272.958 32.5519C269.715 32.5519 266.515 33.1919 263.358 34.4719C260.201 35.6666 257.385 37.5013 254.91 39.9759C252.435 42.4506 250.558 45.2666 249.278 48.4239C247.998 51.5813 247.358 54.7813 247.358 58.0239C247.358 61.2666 247.998 64.4666 249.278 67.6239C250.558 70.7813 252.435 73.5973 254.91 76.0719C257.129 78.2906 259.603 80.0399 262.334 81.3199C265.15 82.5146 268.009 83.2399 270.91 83.4959C273.897 83.6666 276.841 83.3679 279.742 82.5999C282.643 81.8319 285.331 80.5519 287.806 78.7599V74.0239H268.99V52.3919H309.566Z"/>
</mask>
<path d="M61.9599 58.4239C66.0559 61.4106 69.2132 65.0373 71.4319 69.3039C73.7359 73.4853 74.8879 78.0506 74.8879 82.9999C74.8879 87.4373 73.9492 91.6186 72.0719 95.5439C70.1946 99.3839 67.5919 102.755 64.2639 105.656C61.0212 108.557 57.2239 110.861 52.8719 112.568C48.5199 114.189 43.8692 115 38.9199 115H11.3999V20.6639L36.3599 20.7919C40.2852 20.7919 43.9972 21.4746 47.4959 22.8399C50.9946 24.2053 54.0666 26.0826 56.7119 28.4719C59.3572 30.7759 61.4052 33.5066 62.8559 36.6639C64.3919 39.7359 65.1599 43.0639 65.1599 46.6479C65.1599 50.9999 64.0932 54.9253 61.9599 58.4239ZM33.0319 42.4239V50.9999H36.4879C38.6212 50.9146 40.3279 50.4026 41.6079 49.4639C42.8879 48.5253 43.5279 47.5866 43.5279 46.6479C43.5279 45.7946 42.8879 44.8986 41.6079 43.9599C40.3279 42.9359 38.5786 42.4239 36.3599 42.4239H33.0319ZM38.9199 93.2399C40.7972 93.2399 42.5892 92.9839 44.2959 92.4719C46.0879 91.8746 47.6239 91.1066 48.9039 90.1679C50.2692 89.2293 51.3359 88.1626 52.1039 86.9679C52.8719 85.6879 53.2559 84.3653 53.2559 82.9999C53.2559 81.6346 52.8719 80.3119 52.1039 79.0319C51.3359 77.7519 50.2692 76.6426 48.9039 75.7039C47.6239 74.7653 46.0879 74.0399 44.2959 73.5279C42.5892 72.9306 40.7972 72.6319 38.9199 72.6319H33.0319V93.2399H38.9199Z" fill="black"/>
<path d="M135.586 115H79.6499V20.9199H101.282V93.3679H135.586V115Z" fill="black"/>
<path d="M179.601 20.9199C186.086 20.9199 192.188 22.1573 197.905 24.6319C203.622 27.1066 208.614 30.4773 212.881 34.7439C217.148 38.9253 220.518 43.8746 222.993 49.5919C225.468 55.3093 226.705 61.4106 226.705 67.8959C226.705 74.3813 225.468 80.4826 222.993 86.1999C220.518 91.9173 217.148 96.9093 212.881 101.176C208.614 105.357 203.622 108.685 197.905 111.16C192.188 113.635 186.086 114.872 179.601 114.872C173.116 114.872 167.014 113.635 161.297 111.16C155.58 108.685 150.588 105.357 146.321 101.176C142.14 96.9093 138.812 91.9173 136.337 86.1999C133.862 80.4826 132.625 74.3813 132.625 67.8959C132.625 61.4106 133.862 55.3093 136.337 49.5919C138.812 43.8746 142.14 38.9253 146.321 34.7439C150.588 30.4773 155.58 27.1066 161.297 24.6319C167.014 22.1573 173.116 20.9199 179.601 20.9199ZM179.601 93.2399C183.1 93.2399 186.385 92.5999 189.457 91.3199C192.529 89.9546 195.217 88.1199 197.521 85.8159C199.825 83.5119 201.617 80.8239 202.897 77.7519C204.262 74.6799 204.945 71.3946 204.945 67.8959C204.945 64.3973 204.262 61.1119 202.897 58.0399C201.617 54.9679 199.825 52.2799 197.521 49.9759C195.217 47.6719 192.529 45.8799 189.457 44.5999C186.385 43.2346 183.1 42.5519 179.601 42.5519C176.102 42.5519 172.817 43.2346 169.745 44.5999C166.673 45.8799 163.985 47.6719 161.681 49.9759C159.377 52.2799 157.542 54.9679 156.177 58.0399C154.897 61.1119 154.257 64.3973 154.257 67.8959C154.257 71.3946 154.897 74.6799 156.177 77.7519C157.542 80.8239 159.377 83.5119 161.681 85.8159C163.985 88.1199 166.673 89.9546 169.745 91.3199C172.817 92.5999 176.102 93.2399 179.601 93.2399Z" fill="black"/>
<path d="M309.566 62.3919V115H287.806V112.696C285.417 113.549 282.942 114.189 280.382 114.616C277.907 114.957 275.433 115.128 272.958 115.128C266.814 115.128 260.841 113.976 255.038 111.672C249.321 109.368 244.158 105.912 239.55 101.304C235.027 96.7813 231.614 91.6186 229.31 85.8159C227.006 80.0133 225.854 74.0826 225.854 68.0239C225.854 61.9653 226.963 56.0346 229.182 50.2319C231.486 44.4293 234.942 39.2239 239.55 34.6159C244.158 30.0079 249.363 26.5519 255.166 24.2479C260.969 21.9439 266.899 20.7919 272.958 20.7919C279.017 20.7919 284.947 21.9439 290.75 24.2479C296.553 26.5519 301.758 30.0079 306.366 34.6159L291.006 49.9759C288.531 47.5013 285.715 45.6666 282.558 44.4719C279.401 43.1919 276.201 42.5519 272.958 42.5519C269.715 42.5519 266.515 43.1919 263.358 44.4719C260.201 45.6666 257.385 47.5013 254.91 49.9759C252.435 52.4506 250.558 55.2666 249.278 58.4239C247.998 61.5813 247.358 64.7813 247.358 68.0239C247.358 71.2666 247.998 74.4666 249.278 77.6239C250.558 80.7813 252.435 83.5973 254.91 86.0719C257.129 88.2906 259.603 90.0399 262.334 91.3199C265.15 92.5146 268.009 93.2399 270.91 93.4959C273.897 93.6666 276.841 93.3679 279.742 92.5999C282.643 91.8319 285.331 90.5519 287.806 88.7599V84.0239H268.99V62.3919H309.566Z" fill="black"/>
<path d="M61.9599 48.4239C66.0559 51.4106 69.2132 55.0373 71.4319 59.3039C73.7359 63.4853 74.8879 68.0506 74.8879 72.9999C74.8879 77.4373 73.9492 81.6186 72.0719 85.5439C70.1946 89.3839 67.5919 92.7546 64.2639 95.6559C61.0212 98.5573 57.2239 100.861 52.8719 102.568C48.5199 104.189 43.8692 105 38.9199 105H11.3999V10.6639L36.3599 10.7919C40.2852 10.7919 43.9972 11.4746 47.4959 12.8399C50.9946 14.2053 54.0666 16.0826 56.7119 18.4719C59.3572 20.7759 61.4052 23.5066 62.8559 26.6639C64.3919 29.7359 65.1599 33.0639 65.1599 36.6479C65.1599 40.9999 64.0932 44.9253 61.9599 48.4239ZM33.0319 32.4239V40.9999H36.4879C38.6212 40.9146 40.3279 40.4026 41.6079 39.4639C42.8879 38.5253 43.5279 37.5866 43.5279 36.6479C43.5279 35.7946 42.8879 34.8986 41.6079 33.9599C40.3279 32.9359 38.5786 32.4239 36.3599 32.4239H33.0319ZM38.9199 83.2399C40.7972 83.2399 42.5892 82.9839 44.2959 82.4719C46.0879 81.8746 47.6239 81.1066 48.9039 80.1679C50.2692 79.2293 51.3359 78.1626 52.1039 76.9679C52.8719 75.6879 53.2559 74.3653 53.2559 72.9999C53.2559 71.6346 52.8719 70.3119 52.1039 69.0319C51.3359 67.7519 50.2692 66.6426 48.9039 65.7039C47.6239 64.7653 46.0879 64.0399 44.2959 63.5279C42.5892 62.9306 40.7972 62.6319 38.9199 62.6319H33.0319V83.2399H38.9199Z" fill="white"/>
<path d="M135.586 105H79.6499V10.9199H101.282V83.3679H135.586V105Z" fill="white"/>
<path d="M179.601 10.9199C186.086 10.9199 192.188 12.1573 197.905 14.6319C203.622 17.1066 208.614 20.4773 212.881 24.7439C217.148 28.9253 220.518 33.8746 222.993 39.5919C225.468 45.3093 226.705 51.4106 226.705 57.8959C226.705 64.3813 225.468 70.4826 222.993 76.1999C220.518 81.9173 217.148 86.9093 212.881 91.1759C208.614 95.3573 203.622 98.6853 197.905 101.16C192.188 103.635 186.086 104.872 179.601 104.872C173.116 104.872 167.014 103.635 161.297 101.16C155.58 98.6853 150.588 95.3573 146.321 91.1759C142.14 86.9093 138.812 81.9173 136.337 76.1999C133.862 70.4826 132.625 64.3813 132.625 57.8959C132.625 51.4106 133.862 45.3093 136.337 39.5919C138.812 33.8746 142.14 28.9253 146.321 24.7439C150.588 20.4773 155.58 17.1066 161.297 14.6319C167.014 12.1573 173.116 10.9199 179.601 10.9199ZM179.601 83.2399C183.1 83.2399 186.385 82.5999 189.457 81.3199C192.529 79.9546 195.217 78.1199 197.521 75.8159C199.825 73.5119 201.617 70.8239 202.897 67.7519C204.262 64.6799 204.945 61.3946 204.945 57.8959C204.945 54.3973 204.262 51.1119 202.897 48.0399C201.617 44.9679 199.825 42.2799 197.521 39.9759C195.217 37.6719 192.529 35.8799 189.457 34.5999C186.385 33.2346 183.1 32.5519 179.601 32.5519C176.102 32.5519 172.817 33.2346 169.745 34.5999C166.673 35.8799 163.985 37.6719 161.681 39.9759C159.377 42.2799 157.542 44.9679 156.177 48.0399C154.897 51.1119 154.257 54.3973 154.257 57.8959C154.257 61.3946 154.897 64.6799 156.177 67.7519C157.542 70.8239 159.377 73.5119 161.681 75.8159C163.985 78.1199 166.673 79.9546 169.745 81.3199C172.817 82.5999 176.102 83.2399 179.601 83.2399Z" fill="white"/>
<path d="M309.566 52.3919V105H287.806V102.696C285.417 103.549 282.942 104.189 280.382 104.616C277.907 104.957 275.433 105.128 272.958 105.128C266.814 105.128 260.841 103.976 255.038 101.672C249.321 99.3679 244.158 95.9119 239.55 91.3039C235.027 86.7813 231.614 81.6186 229.31 75.8159C227.006 70.0133 225.854 64.0826 225.854 58.0239C225.854 51.9653 226.963 46.0346 229.182 40.2319C231.486 34.4293 234.942 29.2239 239.55 24.6159C244.158 20.0079 249.363 16.5519 255.166 14.2479C260.969 11.9439 266.899 10.7919 272.958 10.7919C279.017 10.7919 284.947 11.9439 290.75 14.2479C296.553 16.5519 301.758 20.0079 306.366 24.6159L291.006 39.9759C288.531 37.5013 285.715 35.6666 282.558 34.4719C279.401 33.1919 276.201 32.5519 272.958 32.5519C269.715 32.5519 266.515 33.1919 263.358 34.4719C260.201 35.6666 257.385 37.5013 254.91 39.9759C252.435 42.4506 250.558 45.2666 249.278 48.4239C247.998 51.5813 247.358 54.7813 247.358 58.0239C247.358 61.2666 247.998 64.4666 249.278 67.6239C250.558 70.7813 252.435 73.5973 254.91 76.0719C257.129 78.2906 259.603 80.0399 262.334 81.3199C265.15 82.5146 268.009 83.2399 270.91 83.4959C273.897 83.6666 276.841 83.3679 279.742 82.5999C282.643 81.8319 285.331 80.5519 287.806 78.7599V74.0239H268.99V52.3919H309.566Z" fill="white"/>
<path d="M61.9599 58.4239C66.0559 61.4106 69.2132 65.0373 71.4319 69.3039C73.7359 73.4853 74.8879 78.0506 74.8879 82.9999C74.8879 87.4373 73.9492 91.6186 72.0719 95.5439C70.1946 99.3839 67.5919 102.755 64.2639 105.656C61.0212 108.557 57.2239 110.861 52.8719 112.568C48.5199 114.189 43.8692 115 38.9199 115H11.3999V20.6639L36.3599 20.7919C40.2852 20.7919 43.9972 21.4746 47.4959 22.8399C50.9946 24.2053 54.0666 26.0826 56.7119 28.4719C59.3572 30.7759 61.4052 33.5066 62.8559 36.6639C64.3919 39.7359 65.1599 43.0639 65.1599 46.6479C65.1599 50.9999 64.0932 54.9253 61.9599 58.4239ZM33.0319 42.4239V50.9999H36.4879C38.6212 50.9146 40.3279 50.4026 41.6079 49.4639C42.8879 48.5253 43.5279 47.5866 43.5279 46.6479C43.5279 45.7946 42.8879 44.8986 41.6079 43.9599C40.3279 42.9359 38.5786 42.4239 36.3599 42.4239H33.0319ZM38.9199 93.2399C40.7972 93.2399 42.5892 92.9839 44.2959 92.4719C46.0879 91.8746 47.6239 91.1066 48.9039 90.1679C50.2692 89.2293 51.3359 88.1626 52.1039 86.9679C52.8719 85.6879 53.2559 84.3653 53.2559 82.9999C53.2559 81.6346 52.8719 80.3119 52.1039 79.0319C51.3359 77.7519 50.2692 76.6426 48.9039 75.7039C47.6239 74.7653 46.0879 74.0399 44.2959 73.5279C42.5892 72.9306 40.7972 72.6319 38.9199 72.6319H33.0319V93.2399H38.9199Z" stroke="black" stroke-width="14" mask="url(#path-1-outside-1_647_9)"/>
<path d="M135.586 115H79.6499V20.9199H101.282V93.3679H135.586V115Z" stroke="black" stroke-width="14" mask="url(#path-1-outside-1_647_9)"/>
<path d="M179.601 20.9199C186.086 20.9199 192.188 22.1573 197.905 24.6319C203.622 27.1066 208.614 30.4773 212.881 34.7439C217.148 38.9253 220.518 43.8746 222.993 49.5919C225.468 55.3093 226.705 61.4106 226.705 67.8959C226.705 74.3813 225.468 80.4826 222.993 86.1999C220.518 91.9173 217.148 96.9093 212.881 101.176C208.614 105.357 203.622 108.685 197.905 111.16C192.188 113.635 186.086 114.872 179.601 114.872C173.116 114.872 167.014 113.635 161.297 111.16C155.58 108.685 150.588 105.357 146.321 101.176C142.14 96.9093 138.812 91.9173 136.337 86.1999C133.862 80.4826 132.625 74.3813 132.625 67.8959C132.625 61.4106 133.862 55.3093 136.337 49.5919C138.812 43.8746 142.14 38.9253 146.321 34.7439C150.588 30.4773 155.58 27.1066 161.297 24.6319C167.014 22.1573 173.116 20.9199 179.601 20.9199ZM179.601 93.2399C183.1 93.2399 186.385 92.5999 189.457 91.3199C192.529 89.9546 195.217 88.1199 197.521 85.8159C199.825 83.5119 201.617 80.8239 202.897 77.7519C204.262 74.6799 204.945 71.3946 204.945 67.8959C204.945 64.3973 204.262 61.1119 202.897 58.0399C201.617 54.9679 199.825 52.2799 197.521 49.9759C195.217 47.6719 192.529 45.8799 189.457 44.5999C186.385 43.2346 183.1 42.5519 179.601 42.5519C176.102 42.5519 172.817 43.2346 169.745 44.5999C166.673 45.8799 163.985 47.6719 161.681 49.9759C159.377 52.2799 157.542 54.9679 156.177 58.0399C154.897 61.1119 154.257 64.3973 154.257 67.8959C154.257 71.3946 154.897 74.6799 156.177 77.7519C157.542 80.8239 159.377 83.5119 161.681 85.8159C163.985 88.1199 166.673 89.9546 169.745 91.3199C172.817 92.5999 176.102 93.2399 179.601 93.2399Z" stroke="black" stroke-width="14" mask="url(#path-1-outside-1_647_9)"/>
<path d="M309.566 62.3919V115H287.806V112.696C285.417 113.549 282.942 114.189 280.382 114.616C277.907 114.957 275.433 115.128 272.958 115.128C266.814 115.128 260.841 113.976 255.038 111.672C249.321 109.368 244.158 105.912 239.55 101.304C235.027 96.7813 231.614 91.6186 229.31 85.8159C227.006 80.0133 225.854 74.0826 225.854 68.0239C225.854 61.9653 226.963 56.0346 229.182 50.2319C231.486 44.4293 234.942 39.2239 239.55 34.6159C244.158 30.0079 249.363 26.5519 255.166 24.2479C260.969 21.9439 266.899 20.7919 272.958 20.7919C279.017 20.7919 284.947 21.9439 290.75 24.2479C296.553 26.5519 301.758 30.0079 306.366 34.6159L291.006 49.9759C288.531 47.5013 285.715 45.6666 282.558 44.4719C279.401 43.1919 276.201 42.5519 272.958 42.5519C269.715 42.5519 266.515 43.1919 263.358 44.4719C260.201 45.6666 257.385 47.5013 254.91 49.9759C252.435 52.4506 250.558 55.2666 249.278 58.4239C247.998 61.5813 247.358 64.7813 247.358 68.0239C247.358 71.2666 247.998 74.4666 249.278 77.6239C250.558 80.7813 252.435 83.5973 254.91 86.0719C257.129 88.2906 259.603 90.0399 262.334 91.3199C265.15 92.5146 268.009 93.2399 270.91 93.4959C273.897 93.6666 276.841 93.3679 279.742 92.5999C282.643 91.8319 285.331 90.5519 287.806 88.7599V84.0239H268.99V62.3919H309.566Z" stroke="black" stroke-width="14" mask="url(#path-1-outside-1_647_9)"/>
<path d="M61.9599 48.4239C66.0559 51.4106 69.2132 55.0373 71.4319 59.3039C73.7359 63.4853 74.8879 68.0506 74.8879 72.9999C74.8879 77.4373 73.9492 81.6186 72.0719 85.5439C70.1946 89.3839 67.5919 92.7546 64.2639 95.6559C61.0212 98.5573 57.2239 100.861 52.8719 102.568C48.5199 104.189 43.8692 105 38.9199 105H11.3999V10.6639L36.3599 10.7919C40.2852 10.7919 43.9972 11.4746 47.4959 12.8399C50.9946 14.2053 54.0666 16.0826 56.7119 18.4719C59.3572 20.7759 61.4052 23.5066 62.8559 26.6639C64.3919 29.7359 65.1599 33.0639 65.1599 36.6479C65.1599 40.9999 64.0932 44.9253 61.9599 48.4239ZM33.0319 32.4239V40.9999H36.4879C38.6212 40.9146 40.3279 40.4026 41.6079 39.4639C42.8879 38.5253 43.5279 37.5866 43.5279 36.6479C43.5279 35.7946 42.8879 34.8986 41.6079 33.9599C40.3279 32.9359 38.5786 32.4239 36.3599 32.4239H33.0319ZM38.9199 83.2399C40.7972 83.2399 42.5892 82.9839 44.2959 82.4719C46.0879 81.8746 47.6239 81.1066 48.9039 80.1679C50.2692 79.2293 51.3359 78.1626 52.1039 76.9679C52.8719 75.6879 53.2559 74.3653 53.2559 72.9999C53.2559 71.6346 52.8719 70.3119 52.1039 69.0319C51.3359 67.7519 50.2692 66.6426 48.9039 65.7039C47.6239 64.7653 46.0879 64.0399 44.2959 63.5279C42.5892 62.9306 40.7972 62.6319 38.9199 62.6319H33.0319V83.2399H38.9199Z" stroke="black" stroke-width="14" mask="url(#path-1-outside-1_647_9)"/>
<path d="M135.586 105H79.6499V10.9199H101.282V83.3679H135.586V105Z" stroke="black" stroke-width="14" mask="url(#path-1-outside-1_647_9)"/>
<path d="M179.601 10.9199C186.086 10.9199 192.188 12.1573 197.905 14.6319C203.622 17.1066 208.614 20.4773 212.881 24.7439C217.148 28.9253 220.518 33.8746 222.993 39.5919C225.468 45.3093 226.705 51.4106 226.705 57.8959C226.705 64.3813 225.468 70.4826 222.993 76.1999C220.518 81.9173 217.148 86.9093 212.881 91.1759C208.614 95.3573 203.622 98.6853 197.905 101.16C192.188 103.635 186.086 104.872 179.601 104.872C173.116 104.872 167.014 103.635 161.297 101.16C155.58 98.6853 150.588 95.3573 146.321 91.1759C142.14 86.9093 138.812 81.9173 136.337 76.1999C133.862 70.4826 132.625 64.3813 132.625 57.8959C132.625 51.4106 133.862 45.3093 136.337 39.5919C138.812 33.8746 142.14 28.9253 146.321 24.7439C150.588 20.4773 155.58 17.1066 161.297 14.6319C167.014 12.1573 173.116 10.9199 179.601 10.9199ZM179.601 83.2399C183.1 83.2399 186.385 82.5999 189.457 81.3199C192.529 79.9546 195.217 78.1199 197.521 75.8159C199.825 73.5119 201.617 70.8239 202.897 67.7519C204.262 64.6799 204.945 61.3946 204.945 57.8959C204.945 54.3973 204.262 51.1119 202.897 48.0399C201.617 44.9679 199.825 42.2799 197.521 39.9759C195.217 37.6719 192.529 35.8799 189.457 34.5999C186.385 33.2346 183.1 32.5519 179.601 32.5519C176.102 32.5519 172.817 33.2346 169.745 34.5999C166.673 35.8799 163.985 37.6719 161.681 39.9759C159.377 42.2799 157.542 44.9679 156.177 48.0399C154.897 51.1119 154.257 54.3973 154.257 57.8959C154.257 61.3946 154.897 64.6799 156.177 67.7519C157.542 70.8239 159.377 73.5119 161.681 75.8159C163.985 78.1199 166.673 79.9546 169.745 81.3199C172.817 82.5999 176.102 83.2399 179.601 83.2399Z" stroke="black" stroke-width="14" mask="url(#path-1-outside-1_647_9)"/>
<path d="M309.566 52.3919V105H287.806V102.696C285.417 103.549 282.942 104.189 280.382 104.616C277.907 104.957 275.433 105.128 272.958 105.128C266.814 105.128 260.841 103.976 255.038 101.672C249.321 99.3679 244.158 95.9119 239.55 91.3039C235.027 86.7813 231.614 81.6186 229.31 75.8159C227.006 70.0133 225.854 64.0826 225.854 58.0239C225.854 51.9653 226.963 46.0346 229.182 40.2319C231.486 34.4293 234.942 29.2239 239.55 24.6159C244.158 20.0079 249.363 16.5519 255.166 14.2479C260.969 11.9439 266.899 10.7919 272.958 10.7919C279.017 10.7919 284.947 11.9439 290.75 14.2479C296.553 16.5519 301.758 20.0079 306.366 24.6159L291.006 39.9759C288.531 37.5013 285.715 35.6666 282.558 34.4719C279.401 33.1919 276.201 32.5519 272.958 32.5519C269.715 32.5519 266.515 33.1919 263.358 34.4719C260.201 35.6666 257.385 37.5013 254.91 39.9759C252.435 42.4506 250.558 45.2666 249.278 48.4239C247.998 51.5813 247.358 54.7813 247.358 58.0239C247.358 61.2666 247.998 64.4666 249.278 67.6239C250.558 70.7813 252.435 73.5973 254.91 76.0719C257.129 78.2906 259.603 80.0399 262.334 81.3199C265.15 82.5146 268.009 83.2399 270.91 83.4959C273.897 83.6666 276.841 83.3679 279.742 82.5999C282.643 81.8319 285.331 80.5519 287.806 78.7599V74.0239H268.99V52.3919H309.566Z" stroke="black" stroke-width="14" mask="url(#path-1-outside-1_647_9)"/>
</svg>
