<svg width="17" height="15" viewBox="0 0 17 15" fill="none" xmlns="http://www.w3.org/2000/svg">
<path fill-rule="evenodd" clip-rule="evenodd" d="M8.50112 6.10352e-05C8.27587 0.000158224 8.05528 0.0627444 7.86505 0.180531C7.67482 0.298317 7.52277 0.466457 7.4266 0.665368L5.61137 4.24307C5.60657 4.25151 5.60199 4.26007 5.59765 4.26874C5.58885 4.27003 5.58008 4.27151 5.57136 4.27321L1.57395 4.85145C1.34725 4.87294 1.13164 4.95757 0.952777 5.09529C0.773914 5.233 0.639327 5.41799 0.565029 5.62825C0.49073 5.83851 0.479847 6.06519 0.533675 6.28131C0.587503 6.49744 0.703776 6.69392 0.86866 6.84737L3.79499 9.60348L3.80185 9.60906C3.80598 9.61286 3.80909 9.6176 3.81088 9.62286C3.81268 9.62812 3.81311 9.63374 3.81213 9.6392V9.64367L3.11484 13.6266C3.07657 13.8425 3.10106 14.0657 3.18553 14.2688C3.27 14.4718 3.41108 14.6477 3.59273 14.7763C3.77439 14.905 3.98935 14.9814 4.21322 14.9968C4.43708 15.0122 4.66088 14.966 4.85921 14.8634L8.45996 13.0048C8.47294 12.9993 8.48695 12.9964 8.50112 12.9964C8.51528 12.9964 8.52929 12.9993 8.54227 13.0048L12.143 14.8623C12.3412 14.9655 12.5652 15.0123 12.7893 14.9973C13.0134 14.9823 13.2287 14.9061 13.4107 14.7774C13.5926 14.6487 13.7339 14.4727 13.8184 14.2695C13.9029 14.0662 13.9272 13.8438 13.8885 13.6277L13.1912 9.64255V9.6392C13.189 9.63473 13.1901 9.62804 13.1912 9.62357C13.193 9.61805 13.1961 9.61305 13.2004 9.60906L13.2072 9.60348L16.1324 6.84625C16.297 6.69274 16.4129 6.49635 16.4665 6.2804C16.5201 6.06445 16.5092 5.838 16.4349 5.62796C16.3606 5.41791 16.2262 5.2331 16.0476 5.09545C15.8689 4.95781 15.6536 4.87312 15.4271 4.85145L11.4309 4.27321C11.4221 4.27151 11.4134 4.27003 11.4046 4.26874C11.4002 4.26007 11.3957 4.25151 11.3909 4.24307L9.57563 0.665368C9.47946 0.466457 9.32741 0.298317 9.13718 0.180531C8.94695 0.0627444 8.72636 0.000158224 8.50112 6.10352e-05Z" fill="#7094FA"/>
</svg>
