<svg width="16" height="15" viewBox="0 0 16 15" fill="none" xmlns="http://www.w3.org/2000/svg">
<path d="M15.1238 6.58764L8.91069 0.376376C8.66829 0.135319 8.34029 0 7.99838 0C7.65648 0 7.32847 0.135319 7.08607 0.376376L0.876812 6.58764C0.635484 6.83 0.5 7.15804 0.5 7.5C0.5 7.84196 0.635484 8.17 0.876812 8.41236L7.08931 14.6236C7.33171 14.8647 7.65971 15 8.00162 15C8.34352 15 8.67153 14.8647 8.91393 14.6236L15.1232 8.41236C15.3645 8.17 15.5 7.84196 15.5 7.5C15.5 7.15804 15.3645 6.83 15.1232 6.58764H15.1238ZM7.99871 13.3408L2.15683 7.5L7.99871 1.65924L13.8406 7.5L7.99871 13.3408Z" fill="#7094FA"/>
</svg>
