<svg width="27" height="22" viewBox="0 0 27 22" fill="none" xmlns="http://www.w3.org/2000/svg">
<path d="M22.8715 2.25879C21.1008 1.42636 19.2276 0.834884 17.3013 0.5C17.0613 0.935855 16.781 1.52208 16.5877 1.98846C14.5108 1.67464 12.453 1.67464 10.4143 1.98846C10.2211 1.52219 9.93441 0.935855 9.69225 0.5C7.76406 0.83503 5.88921 1.42801 4.1177 2.26313C0.592516 7.61558 -0.363136 12.8349 0.114637 17.9804C2.45277 19.7347 4.71866 20.8005 6.94637 21.4979C7.50005 20.7329 7.98946 19.923 8.40954 19.0766C7.60969 18.7706 6.83861 18.3936 6.10547 17.9499C6.29839 17.8062 6.48678 17.6565 6.67036 17.5009C11.1129 19.5887 15.94 19.5887 20.3296 17.5009C20.514 17.6554 20.7023 17.8051 20.8944 17.9499C20.1601 18.3948 19.3876 18.7726 18.5861 19.0788C19.0086 19.9287 19.4971 20.7393 20.0493 21.5C22.2791 20.8027 24.5471 19.737 26.8852 17.9804C27.4459 12.0156 25.9276 6.84412 22.8715 2.25879ZM9.01483 14.816C7.68117 14.816 6.58746 13.5651 6.58746 12.0417C6.58746 10.5184 7.65787 9.26532 9.01483 9.26532C10.3718 9.26532 11.4655 10.5162 11.4422 12.0417C11.4443 13.5651 10.3719 14.816 9.01483 14.816ZM17.985 14.816C16.6514 14.816 15.5578 13.5651 15.5578 12.0417C15.5578 10.5184 16.6281 9.26532 17.985 9.26532C19.3421 9.26532 20.4357 10.5162 20.4124 12.0417C20.4124 13.5651 19.3421 14.816 17.985 14.816Z" fill="white"/>
</svg>
