<svg width="430" height="128" viewBox="0 0 430 128" fill="none" xmlns="http://www.w3.org/2000/svg">
<mask id="path-1-outside-1_778_71" maskUnits="userSpaceOnUse" x="3" y="3" width="420" height="122" fill="black">
<rect fill="white" x="3" y="3" width="420" height="122"/>
<path d="M93.712 63.3526V115.961H71.952V113.657C69.5627 114.51 67.088 115.15 64.528 115.577C62.0533 115.918 59.5787 116.089 57.104 116.089C50.96 116.089 44.9867 114.937 39.184 112.633C33.4667 110.329 28.304 106.873 23.696 102.265C19.1733 97.742 15.76 92.5793 13.456 86.7766C11.152 80.974 10 75.0433 10 68.9846C10 62.9259 11.1093 56.9953 13.328 51.1926C15.632 45.3899 19.088 40.1846 23.696 35.5766C28.304 30.9686 33.5093 27.5126 39.312 25.2086C45.1147 22.9046 51.0453 21.7526 57.104 21.7526C63.1627 21.7526 69.0933 22.9046 74.896 25.2086C80.6987 27.5126 85.904 30.9686 90.512 35.5766L75.152 50.9366C72.6773 48.4619 69.8613 46.6273 66.704 45.4326C63.5467 44.1526 60.3467 43.5126 57.104 43.5126C53.8613 43.5126 50.6613 44.1526 47.504 45.4326C44.3467 46.6273 41.5307 48.4619 39.056 50.9366C36.5813 53.4113 34.704 56.2273 33.424 59.3846C32.144 62.5419 31.504 65.7419 31.504 68.9846C31.504 72.2273 32.144 75.4273 33.424 78.5846C34.704 81.742 36.5813 84.5579 39.056 87.0326C41.2747 89.2513 43.7493 91.0006 46.48 92.2806C49.296 93.4753 52.1547 94.2006 55.056 94.4566C58.0427 94.6273 60.9867 94.3286 63.888 93.5606C66.7893 92.7926 69.4773 91.5126 71.952 89.7206V84.9846H53.136V63.3526H93.712Z"/>
<path d="M157.681 115.961L153.969 104.569H124.401L120.561 115.961H97.649L129.649 22.0086H150.129L180.465 115.961H157.681ZM131.825 82.9366H147.057L139.633 60.1526L131.825 82.9366Z"/>
<path d="M249.641 21.8806H271.913L277.417 115.961H255.785L253.481 77.5606L240.425 115.961H218.793L204.969 76.0246L202.409 115.961H180.649L186.665 21.8806H208.937L229.545 80.7606L249.641 21.8806Z"/>
<path d="M344.209 43.6406H305.553V57.8486H336.913V79.4806H305.553V94.3286H344.209V115.961H283.921V22.1366L344.209 22.0086V43.6406Z"/>
<path d="M383.95 117.753C380.963 117.753 377.977 117.326 374.99 116.473C372.089 115.705 369.315 114.467 366.67 112.761C362.062 109.774 358.478 105.934 355.918 101.241C353.358 96.4619 352.078 91.2566 352.078 85.6246H373.71C373.71 88.1846 374.265 90.19 375.374 91.6406C376.483 93.006 377.465 93.9446 378.318 94.4566C379.854 95.4806 381.518 96.0353 383.31 96.1206C385.102 96.206 386.851 95.8646 388.558 95.0966C389.753 94.5846 390.691 93.9873 391.374 93.3046C392.142 92.5366 392.697 91.7686 393.038 91.0006C393.465 90.2326 393.721 89.5073 393.806 88.8246C393.891 88.1419 393.934 87.5873 393.934 87.1606C393.934 86.7339 393.891 86.1793 393.806 85.4966C393.721 84.814 393.465 84.1313 393.038 83.4486C392.697 82.6806 392.142 81.9126 391.374 81.1446C390.691 80.3766 389.753 79.694 388.558 79.0966C387.619 78.67 386.595 78.286 385.486 77.9446C384.462 77.6033 383.353 77.2193 382.158 76.7926C380.025 76.11 377.806 75.3419 375.502 74.4886C373.198 73.6353 370.894 72.4833 368.59 71.0326C365.603 69.1553 363.086 66.8086 361.038 63.9926C358.99 61.1766 357.497 58.1473 356.558 54.9046C355.705 51.6619 355.406 48.3339 355.662 44.9206C356.003 41.4219 356.985 38.094 358.606 34.9366C360.142 32.0353 362.062 29.5179 364.366 27.3846C366.67 25.2513 369.23 23.5873 372.046 22.3926C374.862 21.1126 377.891 20.3446 381.134 20.0886C384.377 19.8326 387.662 20.1313 390.99 20.9846C394.233 21.7526 397.177 22.9899 399.822 24.6966C402.467 26.3179 404.729 28.3233 406.606 30.7126C408.569 33.0166 410.062 35.6193 411.086 38.5206C412.11 41.4219 412.622 44.4513 412.622 47.6086H390.99C390.99 45.6459 390.35 44.2806 389.07 43.5126C387.875 42.7446 386.809 42.2326 385.87 41.9766C385.699 41.9766 385.273 41.9339 384.59 41.8486C383.993 41.7633 383.267 41.7633 382.414 41.8486C381.646 41.9339 380.835 42.1899 379.982 42.6166C379.129 43.0433 378.446 43.8113 377.934 44.9206C377.251 46.2859 377.123 47.7366 377.55 49.2726C377.977 50.7233 378.83 51.8753 380.11 52.7286C381.305 53.4113 382.627 54.0513 384.078 54.6486C385.529 55.1606 387.065 55.6726 388.686 56.1846C390.137 56.6113 391.587 57.0806 393.038 57.5926C394.574 58.1046 396.11 58.7019 397.646 59.3846C403.278 61.9446 407.673 65.6993 410.83 70.6486C414.073 75.5126 415.694 81.0166 415.694 87.1606C415.694 93.1339 414.073 98.5953 410.83 103.545C407.673 108.494 403.278 112.249 397.646 114.809C395.427 115.833 393.166 116.558 390.862 116.985C388.558 117.497 386.254 117.753 383.95 117.753Z"/>
<path d="M93.712 53.3526V105.961H71.952V103.657C69.5627 104.51 67.088 105.15 64.528 105.577C62.0533 105.918 59.5787 106.089 57.104 106.089C50.96 106.089 44.9867 104.937 39.184 102.633C33.4667 100.329 28.304 96.8726 23.696 92.2646C19.1733 87.742 15.76 82.5793 13.456 76.7766C11.152 70.974 10 65.0433 10 58.9846C10 52.9259 11.1093 46.9953 13.328 41.1926C15.632 35.39 19.088 30.1846 23.696 25.5766C28.304 20.9686 33.5093 17.5126 39.312 15.2086C45.1147 12.9046 51.0453 11.7526 57.104 11.7526C63.1627 11.7526 69.0933 12.9046 74.896 15.2086C80.6987 17.5126 85.904 20.9686 90.512 25.5766L75.152 40.9366C72.6773 38.462 69.8613 36.6273 66.704 35.4326C63.5467 34.1526 60.3467 33.5126 57.104 33.5126C53.8613 33.5126 50.6613 34.1526 47.504 35.4326C44.3467 36.6273 41.5307 38.462 39.056 40.9366C36.5813 43.4113 34.704 46.2273 33.424 49.3846C32.144 52.5419 31.504 55.7419 31.504 58.9846C31.504 62.2273 32.144 65.4273 33.424 68.5846C34.704 71.7419 36.5813 74.5579 39.056 77.0326C41.2747 79.2513 43.7493 81.0006 46.48 82.2806C49.296 83.4753 52.1547 84.2006 55.056 84.4566C58.0427 84.6273 60.9867 84.3286 63.888 83.5606C66.7893 82.7926 69.4773 81.5126 71.952 79.7206V74.9846H53.136V53.3526H93.712Z"/>
<path d="M157.681 105.961L153.969 94.5686H124.401L120.561 105.961H97.649L129.649 12.0086H150.129L180.465 105.961H157.681ZM131.825 72.9366H147.057L139.633 50.1526L131.825 72.9366Z"/>
<path d="M249.641 11.8806H271.913L277.417 105.961H255.785L253.481 67.5606L240.425 105.961H218.793L204.969 66.0246L202.409 105.961H180.649L186.665 11.8806H208.937L229.545 70.7606L249.641 11.8806Z"/>
<path d="M344.209 33.6406H305.553V47.8486H336.913V69.4806H305.553V84.3286H344.209V105.961H283.921V12.1366L344.209 12.0086V33.6406Z"/>
<path d="M383.95 107.753C380.963 107.753 377.977 107.326 374.99 106.473C372.089 105.705 369.315 104.467 366.67 102.761C362.062 99.774 358.478 95.9339 355.918 91.2406C353.358 86.4619 352.078 81.2566 352.078 75.6246H373.71C373.71 78.1846 374.265 80.19 375.374 81.6406C376.483 83.006 377.465 83.9446 378.318 84.4566C379.854 85.4806 381.518 86.0353 383.31 86.1206C385.102 86.206 386.851 85.8646 388.558 85.0966C389.753 84.5846 390.691 83.9873 391.374 83.3046C392.142 82.5366 392.697 81.7686 393.038 81.0006C393.465 80.2326 393.721 79.5073 393.806 78.8246C393.891 78.1419 393.934 77.5873 393.934 77.1606C393.934 76.7339 393.891 76.1793 393.806 75.4966C393.721 74.814 393.465 74.1313 393.038 73.4486C392.697 72.6806 392.142 71.9126 391.374 71.1446C390.691 70.3766 389.753 69.6939 388.558 69.0966C387.619 68.6699 386.595 68.2859 385.486 67.9446C384.462 67.6033 383.353 67.2193 382.158 66.7926C380.025 66.1099 377.806 65.3419 375.502 64.4886C373.198 63.6353 370.894 62.4833 368.59 61.0326C365.603 59.1553 363.086 56.8086 361.038 53.9926C358.99 51.1766 357.497 48.1473 356.558 44.9046C355.705 41.6619 355.406 38.3339 355.662 34.9206C356.003 31.422 356.985 28.0939 358.606 24.9366C360.142 22.0353 362.062 19.5179 364.366 17.3846C366.67 15.2513 369.23 13.5873 372.046 12.3926C374.862 11.1126 377.891 10.3446 381.134 10.0886C384.377 9.83261 387.662 10.1313 390.99 10.9846C394.233 11.7526 397.177 12.9899 399.822 14.6966C402.467 16.3179 404.729 18.3233 406.606 20.7126C408.569 23.0166 410.062 25.6193 411.086 28.5206C412.11 31.4219 412.622 34.4513 412.622 37.6086H390.99C390.99 35.6459 390.35 34.2806 389.07 33.5126C387.875 32.7446 386.809 32.2326 385.87 31.9766C385.699 31.9766 385.273 31.9339 384.59 31.8486C383.993 31.7633 383.267 31.7633 382.414 31.8486C381.646 31.9339 380.835 32.19 379.982 32.6166C379.129 33.0433 378.446 33.8113 377.934 34.9206C377.251 36.2859 377.123 37.7366 377.55 39.2726C377.977 40.7233 378.83 41.8753 380.11 42.7286C381.305 43.4113 382.627 44.0513 384.078 44.6486C385.529 45.1606 387.065 45.6726 388.686 46.1846C390.137 46.6113 391.587 47.0806 393.038 47.5926C394.574 48.1046 396.11 48.7019 397.646 49.3846C403.278 51.9446 407.673 55.6993 410.83 60.6486C414.073 65.5126 415.694 71.0166 415.694 77.1606C415.694 83.1339 414.073 88.5953 410.83 93.5446C407.673 98.494 403.278 102.249 397.646 104.809C395.427 105.833 393.166 106.558 390.862 106.985C388.558 107.497 386.254 107.753 383.95 107.753Z"/>
</mask>
<path d="M93.712 63.3526V115.961H71.952V113.657C69.5627 114.51 67.088 115.15 64.528 115.577C62.0533 115.918 59.5787 116.089 57.104 116.089C50.96 116.089 44.9867 114.937 39.184 112.633C33.4667 110.329 28.304 106.873 23.696 102.265C19.1733 97.742 15.76 92.5793 13.456 86.7766C11.152 80.974 10 75.0433 10 68.9846C10 62.9259 11.1093 56.9953 13.328 51.1926C15.632 45.3899 19.088 40.1846 23.696 35.5766C28.304 30.9686 33.5093 27.5126 39.312 25.2086C45.1147 22.9046 51.0453 21.7526 57.104 21.7526C63.1627 21.7526 69.0933 22.9046 74.896 25.2086C80.6987 27.5126 85.904 30.9686 90.512 35.5766L75.152 50.9366C72.6773 48.4619 69.8613 46.6273 66.704 45.4326C63.5467 44.1526 60.3467 43.5126 57.104 43.5126C53.8613 43.5126 50.6613 44.1526 47.504 45.4326C44.3467 46.6273 41.5307 48.4619 39.056 50.9366C36.5813 53.4113 34.704 56.2273 33.424 59.3846C32.144 62.5419 31.504 65.7419 31.504 68.9846C31.504 72.2273 32.144 75.4273 33.424 78.5846C34.704 81.742 36.5813 84.5579 39.056 87.0326C41.2747 89.2513 43.7493 91.0006 46.48 92.2806C49.296 93.4753 52.1547 94.2006 55.056 94.4566C58.0427 94.6273 60.9867 94.3286 63.888 93.5606C66.7893 92.7926 69.4773 91.5126 71.952 89.7206V84.9846H53.136V63.3526H93.712Z" fill="black"/>
<path d="M157.681 115.961L153.969 104.569H124.401L120.561 115.961H97.649L129.649 22.0086H150.129L180.465 115.961H157.681ZM131.825 82.9366H147.057L139.633 60.1526L131.825 82.9366Z" fill="black"/>
<path d="M249.641 21.8806H271.913L277.417 115.961H255.785L253.481 77.5606L240.425 115.961H218.793L204.969 76.0246L202.409 115.961H180.649L186.665 21.8806H208.937L229.545 80.7606L249.641 21.8806Z" fill="black"/>
<path d="M344.209 43.6406H305.553V57.8486H336.913V79.4806H305.553V94.3286H344.209V115.961H283.921V22.1366L344.209 22.0086V43.6406Z" fill="black"/>
<path d="M383.95 117.753C380.963 117.753 377.977 117.326 374.99 116.473C372.089 115.705 369.315 114.467 366.67 112.761C362.062 109.774 358.478 105.934 355.918 101.241C353.358 96.4619 352.078 91.2566 352.078 85.6246H373.71C373.71 88.1846 374.265 90.19 375.374 91.6406C376.483 93.006 377.465 93.9446 378.318 94.4566C379.854 95.4806 381.518 96.0353 383.31 96.1206C385.102 96.206 386.851 95.8646 388.558 95.0966C389.753 94.5846 390.691 93.9873 391.374 93.3046C392.142 92.5366 392.697 91.7686 393.038 91.0006C393.465 90.2326 393.721 89.5073 393.806 88.8246C393.891 88.1419 393.934 87.5873 393.934 87.1606C393.934 86.7339 393.891 86.1793 393.806 85.4966C393.721 84.814 393.465 84.1313 393.038 83.4486C392.697 82.6806 392.142 81.9126 391.374 81.1446C390.691 80.3766 389.753 79.694 388.558 79.0966C387.619 78.67 386.595 78.286 385.486 77.9446C384.462 77.6033 383.353 77.2193 382.158 76.7926C380.025 76.11 377.806 75.3419 375.502 74.4886C373.198 73.6353 370.894 72.4833 368.59 71.0326C365.603 69.1553 363.086 66.8086 361.038 63.9926C358.99 61.1766 357.497 58.1473 356.558 54.9046C355.705 51.6619 355.406 48.3339 355.662 44.9206C356.003 41.4219 356.985 38.094 358.606 34.9366C360.142 32.0353 362.062 29.5179 364.366 27.3846C366.67 25.2513 369.23 23.5873 372.046 22.3926C374.862 21.1126 377.891 20.3446 381.134 20.0886C384.377 19.8326 387.662 20.1313 390.99 20.9846C394.233 21.7526 397.177 22.9899 399.822 24.6966C402.467 26.3179 404.729 28.3233 406.606 30.7126C408.569 33.0166 410.062 35.6193 411.086 38.5206C412.11 41.4219 412.622 44.4513 412.622 47.6086H390.99C390.99 45.6459 390.35 44.2806 389.07 43.5126C387.875 42.7446 386.809 42.2326 385.87 41.9766C385.699 41.9766 385.273 41.9339 384.59 41.8486C383.993 41.7633 383.267 41.7633 382.414 41.8486C381.646 41.9339 380.835 42.1899 379.982 42.6166C379.129 43.0433 378.446 43.8113 377.934 44.9206C377.251 46.2859 377.123 47.7366 377.55 49.2726C377.977 50.7233 378.83 51.8753 380.11 52.7286C381.305 53.4113 382.627 54.0513 384.078 54.6486C385.529 55.1606 387.065 55.6726 388.686 56.1846C390.137 56.6113 391.587 57.0806 393.038 57.5926C394.574 58.1046 396.11 58.7019 397.646 59.3846C403.278 61.9446 407.673 65.6993 410.83 70.6486C414.073 75.5126 415.694 81.0166 415.694 87.1606C415.694 93.1339 414.073 98.5953 410.83 103.545C407.673 108.494 403.278 112.249 397.646 114.809C395.427 115.833 393.166 116.558 390.862 116.985C388.558 117.497 386.254 117.753 383.95 117.753Z" fill="black"/>
<path d="M93.712 53.3526V105.961H71.952V103.657C69.5627 104.51 67.088 105.15 64.528 105.577C62.0533 105.918 59.5787 106.089 57.104 106.089C50.96 106.089 44.9867 104.937 39.184 102.633C33.4667 100.329 28.304 96.8726 23.696 92.2646C19.1733 87.742 15.76 82.5793 13.456 76.7766C11.152 70.974 10 65.0433 10 58.9846C10 52.9259 11.1093 46.9953 13.328 41.1926C15.632 35.39 19.088 30.1846 23.696 25.5766C28.304 20.9686 33.5093 17.5126 39.312 15.2086C45.1147 12.9046 51.0453 11.7526 57.104 11.7526C63.1627 11.7526 69.0933 12.9046 74.896 15.2086C80.6987 17.5126 85.904 20.9686 90.512 25.5766L75.152 40.9366C72.6773 38.462 69.8613 36.6273 66.704 35.4326C63.5467 34.1526 60.3467 33.5126 57.104 33.5126C53.8613 33.5126 50.6613 34.1526 47.504 35.4326C44.3467 36.6273 41.5307 38.462 39.056 40.9366C36.5813 43.4113 34.704 46.2273 33.424 49.3846C32.144 52.5419 31.504 55.7419 31.504 58.9846C31.504 62.2273 32.144 65.4273 33.424 68.5846C34.704 71.7419 36.5813 74.5579 39.056 77.0326C41.2747 79.2513 43.7493 81.0006 46.48 82.2806C49.296 83.4753 52.1547 84.2006 55.056 84.4566C58.0427 84.6273 60.9867 84.3286 63.888 83.5606C66.7893 82.7926 69.4773 81.5126 71.952 79.7206V74.9846H53.136V53.3526H93.712Z" fill="white"/>
<path d="M157.681 105.961L153.969 94.5686H124.401L120.561 105.961H97.649L129.649 12.0086H150.129L180.465 105.961H157.681ZM131.825 72.9366H147.057L139.633 50.1526L131.825 72.9366Z" fill="white"/>
<path d="M249.641 11.8806H271.913L277.417 105.961H255.785L253.481 67.5606L240.425 105.961H218.793L204.969 66.0246L202.409 105.961H180.649L186.665 11.8806H208.937L229.545 70.7606L249.641 11.8806Z" fill="white"/>
<path d="M344.209 33.6406H305.553V47.8486H336.913V69.4806H305.553V84.3286H344.209V105.961H283.921V12.1366L344.209 12.0086V33.6406Z" fill="white"/>
<path d="M383.95 107.753C380.963 107.753 377.977 107.326 374.99 106.473C372.089 105.705 369.315 104.467 366.67 102.761C362.062 99.774 358.478 95.9339 355.918 91.2406C353.358 86.4619 352.078 81.2566 352.078 75.6246H373.71C373.71 78.1846 374.265 80.19 375.374 81.6406C376.483 83.006 377.465 83.9446 378.318 84.4566C379.854 85.4806 381.518 86.0353 383.31 86.1206C385.102 86.206 386.851 85.8646 388.558 85.0966C389.753 84.5846 390.691 83.9873 391.374 83.3046C392.142 82.5366 392.697 81.7686 393.038 81.0006C393.465 80.2326 393.721 79.5073 393.806 78.8246C393.891 78.1419 393.934 77.5873 393.934 77.1606C393.934 76.7339 393.891 76.1793 393.806 75.4966C393.721 74.814 393.465 74.1313 393.038 73.4486C392.697 72.6806 392.142 71.9126 391.374 71.1446C390.691 70.3766 389.753 69.6939 388.558 69.0966C387.619 68.6699 386.595 68.2859 385.486 67.9446C384.462 67.6033 383.353 67.2193 382.158 66.7926C380.025 66.1099 377.806 65.3419 375.502 64.4886C373.198 63.6353 370.894 62.4833 368.59 61.0326C365.603 59.1553 363.086 56.8086 361.038 53.9926C358.99 51.1766 357.497 48.1473 356.558 44.9046C355.705 41.6619 355.406 38.3339 355.662 34.9206C356.003 31.422 356.985 28.0939 358.606 24.9366C360.142 22.0353 362.062 19.5179 364.366 17.3846C366.67 15.2513 369.23 13.5873 372.046 12.3926C374.862 11.1126 377.891 10.3446 381.134 10.0886C384.377 9.83261 387.662 10.1313 390.99 10.9846C394.233 11.7526 397.177 12.9899 399.822 14.6966C402.467 16.3179 404.729 18.3233 406.606 20.7126C408.569 23.0166 410.062 25.6193 411.086 28.5206C412.11 31.4219 412.622 34.4513 412.622 37.6086H390.99C390.99 35.6459 390.35 34.2806 389.07 33.5126C387.875 32.7446 386.809 32.2326 385.87 31.9766C385.699 31.9766 385.273 31.9339 384.59 31.8486C383.993 31.7633 383.267 31.7633 382.414 31.8486C381.646 31.9339 380.835 32.19 379.982 32.6166C379.129 33.0433 378.446 33.8113 377.934 34.9206C377.251 36.2859 377.123 37.7366 377.55 39.2726C377.977 40.7233 378.83 41.8753 380.11 42.7286C381.305 43.4113 382.627 44.0513 384.078 44.6486C385.529 45.1606 387.065 45.6726 388.686 46.1846C390.137 46.6113 391.587 47.0806 393.038 47.5926C394.574 48.1046 396.11 48.7019 397.646 49.3846C403.278 51.9446 407.673 55.6993 410.83 60.6486C414.073 65.5126 415.694 71.0166 415.694 77.1606C415.694 83.1339 414.073 88.5953 410.83 93.5446C407.673 98.494 403.278 102.249 397.646 104.809C395.427 105.833 393.166 106.558 390.862 106.985C388.558 107.497 386.254 107.753 383.95 107.753Z" fill="white"/>
<path d="M93.712 63.3526V115.961H71.952V113.657C69.5627 114.51 67.088 115.15 64.528 115.577C62.0533 115.918 59.5787 116.089 57.104 116.089C50.96 116.089 44.9867 114.937 39.184 112.633C33.4667 110.329 28.304 106.873 23.696 102.265C19.1733 97.742 15.76 92.5793 13.456 86.7766C11.152 80.974 10 75.0433 10 68.9846C10 62.9259 11.1093 56.9953 13.328 51.1926C15.632 45.3899 19.088 40.1846 23.696 35.5766C28.304 30.9686 33.5093 27.5126 39.312 25.2086C45.1147 22.9046 51.0453 21.7526 57.104 21.7526C63.1627 21.7526 69.0933 22.9046 74.896 25.2086C80.6987 27.5126 85.904 30.9686 90.512 35.5766L75.152 50.9366C72.6773 48.4619 69.8613 46.6273 66.704 45.4326C63.5467 44.1526 60.3467 43.5126 57.104 43.5126C53.8613 43.5126 50.6613 44.1526 47.504 45.4326C44.3467 46.6273 41.5307 48.4619 39.056 50.9366C36.5813 53.4113 34.704 56.2273 33.424 59.3846C32.144 62.5419 31.504 65.7419 31.504 68.9846C31.504 72.2273 32.144 75.4273 33.424 78.5846C34.704 81.742 36.5813 84.5579 39.056 87.0326C41.2747 89.2513 43.7493 91.0006 46.48 92.2806C49.296 93.4753 52.1547 94.2006 55.056 94.4566C58.0427 94.6273 60.9867 94.3286 63.888 93.5606C66.7893 92.7926 69.4773 91.5126 71.952 89.7206V84.9846H53.136V63.3526H93.712Z" stroke="black" stroke-width="14" mask="url(#path-1-outside-1_778_71)"/>
<path d="M157.681 115.961L153.969 104.569H124.401L120.561 115.961H97.649L129.649 22.0086H150.129L180.465 115.961H157.681ZM131.825 82.9366H147.057L139.633 60.1526L131.825 82.9366Z" stroke="black" stroke-width="14" mask="url(#path-1-outside-1_778_71)"/>
<path d="M249.641 21.8806H271.913L277.417 115.961H255.785L253.481 77.5606L240.425 115.961H218.793L204.969 76.0246L202.409 115.961H180.649L186.665 21.8806H208.937L229.545 80.7606L249.641 21.8806Z" stroke="black" stroke-width="14" mask="url(#path-1-outside-1_778_71)"/>
<path d="M344.209 43.6406H305.553V57.8486H336.913V79.4806H305.553V94.3286H344.209V115.961H283.921V22.1366L344.209 22.0086V43.6406Z" stroke="black" stroke-width="14" mask="url(#path-1-outside-1_778_71)"/>
<path d="M383.95 117.753C380.963 117.753 377.977 117.326 374.99 116.473C372.089 115.705 369.315 114.467 366.67 112.761C362.062 109.774 358.478 105.934 355.918 101.241C353.358 96.4619 352.078 91.2566 352.078 85.6246H373.71C373.71 88.1846 374.265 90.19 375.374 91.6406C376.483 93.006 377.465 93.9446 378.318 94.4566C379.854 95.4806 381.518 96.0353 383.31 96.1206C385.102 96.206 386.851 95.8646 388.558 95.0966C389.753 94.5846 390.691 93.9873 391.374 93.3046C392.142 92.5366 392.697 91.7686 393.038 91.0006C393.465 90.2326 393.721 89.5073 393.806 88.8246C393.891 88.1419 393.934 87.5873 393.934 87.1606C393.934 86.7339 393.891 86.1793 393.806 85.4966C393.721 84.814 393.465 84.1313 393.038 83.4486C392.697 82.6806 392.142 81.9126 391.374 81.1446C390.691 80.3766 389.753 79.694 388.558 79.0966C387.619 78.67 386.595 78.286 385.486 77.9446C384.462 77.6033 383.353 77.2193 382.158 76.7926C380.025 76.11 377.806 75.3419 375.502 74.4886C373.198 73.6353 370.894 72.4833 368.59 71.0326C365.603 69.1553 363.086 66.8086 361.038 63.9926C358.99 61.1766 357.497 58.1473 356.558 54.9046C355.705 51.6619 355.406 48.3339 355.662 44.9206C356.003 41.4219 356.985 38.094 358.606 34.9366C360.142 32.0353 362.062 29.5179 364.366 27.3846C366.67 25.2513 369.23 23.5873 372.046 22.3926C374.862 21.1126 377.891 20.3446 381.134 20.0886C384.377 19.8326 387.662 20.1313 390.99 20.9846C394.233 21.7526 397.177 22.9899 399.822 24.6966C402.467 26.3179 404.729 28.3233 406.606 30.7126C408.569 33.0166 410.062 35.6193 411.086 38.5206C412.11 41.4219 412.622 44.4513 412.622 47.6086H390.99C390.99 45.6459 390.35 44.2806 389.07 43.5126C387.875 42.7446 386.809 42.2326 385.87 41.9766C385.699 41.9766 385.273 41.9339 384.59 41.8486C383.993 41.7633 383.267 41.7633 382.414 41.8486C381.646 41.9339 380.835 42.1899 379.982 42.6166C379.129 43.0433 378.446 43.8113 377.934 44.9206C377.251 46.2859 377.123 47.7366 377.55 49.2726C377.977 50.7233 378.83 51.8753 380.11 52.7286C381.305 53.4113 382.627 54.0513 384.078 54.6486C385.529 55.1606 387.065 55.6726 388.686 56.1846C390.137 56.6113 391.587 57.0806 393.038 57.5926C394.574 58.1046 396.11 58.7019 397.646 59.3846C403.278 61.9446 407.673 65.6993 410.83 70.6486C414.073 75.5126 415.694 81.0166 415.694 87.1606C415.694 93.1339 414.073 98.5953 410.83 103.545C407.673 108.494 403.278 112.249 397.646 114.809C395.427 115.833 393.166 116.558 390.862 116.985C388.558 117.497 386.254 117.753 383.95 117.753Z" stroke="black" stroke-width="14" mask="url(#path-1-outside-1_778_71)"/>
<path d="M93.712 53.3526V105.961H71.952V103.657C69.5627 104.51 67.088 105.15 64.528 105.577C62.0533 105.918 59.5787 106.089 57.104 106.089C50.96 106.089 44.9867 104.937 39.184 102.633C33.4667 100.329 28.304 96.8726 23.696 92.2646C19.1733 87.742 15.76 82.5793 13.456 76.7766C11.152 70.974 10 65.0433 10 58.9846C10 52.9259 11.1093 46.9953 13.328 41.1926C15.632 35.39 19.088 30.1846 23.696 25.5766C28.304 20.9686 33.5093 17.5126 39.312 15.2086C45.1147 12.9046 51.0453 11.7526 57.104 11.7526C63.1627 11.7526 69.0933 12.9046 74.896 15.2086C80.6987 17.5126 85.904 20.9686 90.512 25.5766L75.152 40.9366C72.6773 38.462 69.8613 36.6273 66.704 35.4326C63.5467 34.1526 60.3467 33.5126 57.104 33.5126C53.8613 33.5126 50.6613 34.1526 47.504 35.4326C44.3467 36.6273 41.5307 38.462 39.056 40.9366C36.5813 43.4113 34.704 46.2273 33.424 49.3846C32.144 52.5419 31.504 55.7419 31.504 58.9846C31.504 62.2273 32.144 65.4273 33.424 68.5846C34.704 71.7419 36.5813 74.5579 39.056 77.0326C41.2747 79.2513 43.7493 81.0006 46.48 82.2806C49.296 83.4753 52.1547 84.2006 55.056 84.4566C58.0427 84.6273 60.9867 84.3286 63.888 83.5606C66.7893 82.7926 69.4773 81.5126 71.952 79.7206V74.9846H53.136V53.3526H93.712Z" stroke="black" stroke-width="14" mask="url(#path-1-outside-1_778_71)"/>
<path d="M157.681 105.961L153.969 94.5686H124.401L120.561 105.961H97.649L129.649 12.0086H150.129L180.465 105.961H157.681ZM131.825 72.9366H147.057L139.633 50.1526L131.825 72.9366Z" stroke="black" stroke-width="14" mask="url(#path-1-outside-1_778_71)"/>
<path d="M249.641 11.8806H271.913L277.417 105.961H255.785L253.481 67.5606L240.425 105.961H218.793L204.969 66.0246L202.409 105.961H180.649L186.665 11.8806H208.937L229.545 70.7606L249.641 11.8806Z" stroke="black" stroke-width="14" mask="url(#path-1-outside-1_778_71)"/>
<path d="M344.209 33.6406H305.553V47.8486H336.913V69.4806H305.553V84.3286H344.209V105.961H283.921V12.1366L344.209 12.0086V33.6406Z" stroke="black" stroke-width="14" mask="url(#path-1-outside-1_778_71)"/>
<path d="M383.95 107.753C380.963 107.753 377.977 107.326 374.99 106.473C372.089 105.705 369.315 104.467 366.67 102.761C362.062 99.774 358.478 95.9339 355.918 91.2406C353.358 86.4619 352.078 81.2566 352.078 75.6246H373.71C373.71 78.1846 374.265 80.19 375.374 81.6406C376.483 83.006 377.465 83.9446 378.318 84.4566C379.854 85.4806 381.518 86.0353 383.31 86.1206C385.102 86.206 386.851 85.8646 388.558 85.0966C389.753 84.5846 390.691 83.9873 391.374 83.3046C392.142 82.5366 392.697 81.7686 393.038 81.0006C393.465 80.2326 393.721 79.5073 393.806 78.8246C393.891 78.1419 393.934 77.5873 393.934 77.1606C393.934 76.7339 393.891 76.1793 393.806 75.4966C393.721 74.814 393.465 74.1313 393.038 73.4486C392.697 72.6806 392.142 71.9126 391.374 71.1446C390.691 70.3766 389.753 69.6939 388.558 69.0966C387.619 68.6699 386.595 68.2859 385.486 67.9446C384.462 67.6033 383.353 67.2193 382.158 66.7926C380.025 66.1099 377.806 65.3419 375.502 64.4886C373.198 63.6353 370.894 62.4833 368.59 61.0326C365.603 59.1553 363.086 56.8086 361.038 53.9926C358.99 51.1766 357.497 48.1473 356.558 44.9046C355.705 41.6619 355.406 38.3339 355.662 34.9206C356.003 31.422 356.985 28.0939 358.606 24.9366C360.142 22.0353 362.062 19.5179 364.366 17.3846C366.67 15.2513 369.23 13.5873 372.046 12.3926C374.862 11.1126 377.891 10.3446 381.134 10.0886C384.377 9.83261 387.662 10.1313 390.99 10.9846C394.233 11.7526 397.177 12.9899 399.822 14.6966C402.467 16.3179 404.729 18.3233 406.606 20.7126C408.569 23.0166 410.062 25.6193 411.086 28.5206C412.11 31.4219 412.622 34.4513 412.622 37.6086H390.99C390.99 35.6459 390.35 34.2806 389.07 33.5126C387.875 32.7446 386.809 32.2326 385.87 31.9766C385.699 31.9766 385.273 31.9339 384.59 31.8486C383.993 31.7633 383.267 31.7633 382.414 31.8486C381.646 31.9339 380.835 32.19 379.982 32.6166C379.129 33.0433 378.446 33.8113 377.934 34.9206C377.251 36.2859 377.123 37.7366 377.55 39.2726C377.977 40.7233 378.83 41.8753 380.11 42.7286C381.305 43.4113 382.627 44.0513 384.078 44.6486C385.529 45.1606 387.065 45.6726 388.686 46.1846C390.137 46.6113 391.587 47.0806 393.038 47.5926C394.574 48.1046 396.11 48.7019 397.646 49.3846C403.278 51.9446 407.673 55.6993 410.83 60.6486C414.073 65.5126 415.694 71.0166 415.694 77.1606C415.694 83.1339 414.073 88.5953 410.83 93.5446C407.673 98.494 403.278 102.249 397.646 104.809C395.427 105.833 393.166 106.558 390.862 106.985C388.558 107.497 386.254 107.753 383.95 107.753Z" stroke="black" stroke-width="14" mask="url(#path-1-outside-1_778_71)"/>
</svg>
