<svg width="21" height="20" viewBox="0 0 21 20" fill="none" xmlns="http://www.w3.org/2000/svg">
<g clip-path="url(#clip0_21_627)">
<path d="M1.58763 16.7648L2.51377 18.3827C2.70621 18.7233 2.98282 18.991 3.30758 19.1857C4.23776 17.9914 4.88526 17.0749 5.25008 16.4363C5.62032 15.7882 6.07534 14.7744 6.61516 13.3951C5.16026 13.2013 4.05776 13.1045 3.30766 13.1045C2.5877 13.1045 1.48515 13.2013 0 13.3951C0 13.7721 0.0962227 14.1492 0.288668 14.4899L1.58763 16.7648Z" fill="#0066DA"/>
<path d="M17.6926 19.1857C18.0174 18.991 18.294 18.7233 18.4864 18.3828L18.8713 17.7137L20.7116 14.4899C20.9005 14.1566 20.9999 13.7792 21.0002 13.3951C19.5064 13.2013 18.4059 13.1045 17.6987 13.1045C16.9386 13.1045 15.838 13.2013 14.3971 13.3951C14.9305 14.782 15.3795 15.7958 15.7442 16.4363C16.1119 17.0825 16.7614 17.999 17.6926 19.1857Z" fill="#EA4335"/>
<path d="M10.5001 6.58257C11.5763 5.26789 12.318 4.25415 12.7252 3.54133C13.0531 2.96734 13.4139 2.05089 13.8077 0.791969C13.4829 0.597323 13.1101 0.5 12.7252 0.5H8.27499C7.8901 0.5 7.51735 0.60952 7.1925 0.791969C7.69344 2.2358 8.11847 3.26335 8.4676 3.87462C8.85347 4.55015 9.53097 5.45281 10.5001 6.58257Z" fill="#00832D"/>
<path d="M14.385 13.3951H6.61518L3.30768 19.1857C3.63236 19.3804 4.00519 19.4777 4.39008 19.4777H16.6101C16.995 19.4777 17.3679 19.3682 17.6926 19.1857L14.385 13.3951Z" fill="#2684FC"/>
<path d="M10.5001 6.58251L7.19258 0.791992C6.86774 0.986638 6.59113 1.25421 6.39868 1.59489L0.288668 12.3002C0.0997709 12.6335 0.000260983 13.0109 0 13.395H6.61516L10.5001 6.58251Z" fill="#00AC47"/>
<path d="M17.6566 6.94758L14.6015 1.59489C14.4091 1.25421 14.1324 0.986638 13.8077 0.791992L10.5002 6.58259L14.385 13.3951H20.9882C20.9882 13.018 20.892 12.6409 20.6995 12.3003L17.6566 6.94758Z" fill="#FFBA00"/>
</g>
<defs>
<clipPath id="clip0_21_627">
<rect width="21" height="19" fill="white" transform="translate(0 0.5)"/>
</clipPath>
</defs>
</svg>
