<svg width="1160" height="238" viewBox="0 0 1160 238" fill="none" xmlns="http://www.w3.org/2000/svg">
<path d="M1142.69 84C1144.29 91.6 1154.36 100.5 1159.19 104C1157.19 107 1148.69 110.5 1144.19 109.5C1142.99 109.1 1140.36 107.333 1139.19 106.5C1138.19 109 1134.79 113.9 1129.19 113.5C1127.99 112.3 1125.5 109 1124.19 105.5C1123.19 102.833 1121.19 91.5 1126.69 86C1128.69 91 1133.86 95.3333 1136.69 96.5C1136.02 93.8333 1136.29 87.6 1142.69 84Z" fill="#808080" fill-opacity="0.12"/>
<path d="M19.6913 99C21.2913 106.6 31.358 115.5 36.1913 119C34.1915 122 25.6912 125.5 21.1912 124.5C19.9912 124.1 17.3579 122.333 16.1912 121.5C15.1912 124 11.7912 128.9 6.1912 128.5C4.99119 127.3 2.50368 124 1.19118 120.5C0.191182 117.833 -1.80884 106.5 3.69123 101C5.69116 106 10.858 110.333 13.6913 111.5C13.0247 108.833 13.2913 102.6 19.6913 99Z" fill="#808080" fill-opacity="0.12"/>
<path d="M770.691 102C772.291 109.6 782.358 118.5 787.191 122C785.191 125 776.691 128.5 772.191 127.5C770.991 127.1 768.358 125.333 767.191 124.5C766.191 127 762.791 131.9 757.191 131.5C755.991 130.3 753.504 127 752.191 123.5C751.191 120.833 749.191 109.5 754.691 104C756.691 109 761.858 113.333 764.691 114.5C764.025 111.833 764.291 105.6 770.691 102Z" fill="#808080" fill-opacity="0.12"/>
<path d="M931 56C936.6 56 940.333 52 941.5 50C935 48 919.2 40.8 908 28C909.5 34 915.5 48 931 56Z" fill="#808080" fill-opacity="0.12"/>
<path d="M529 132C534.6 132 538.333 128 539.5 126C533 124 517.2 116.8 506 104C507.5 110 513.5 124 529 132Z" fill="#808080" fill-opacity="0.12"/>
<path d="M183 99C188.6 99 192.333 95 193.5 93C187 91 171.2 83.8 160 71C161.5 77 167.5 91 183 99Z" fill="#808080" fill-opacity="0.12"/>
<path d="M339.067 42C337.901 44 334.167 48 328.567 48C322.284 44.7569 317.562 40.5277 314.067 36.2452C313.067 37.1635 309.967 39 305.567 39C302.21 37 298.502 33.5 297.067 32C294.234 29 290.067 21.2 296.067 14C298.467 24.4 306.199 29 309.764 30C307.456 25.9932 306.16 22.3716 305.567 20C316.767 32.8 332.567 40 339.067 42Z" fill="#808080" fill-opacity="0.12"/>
<path d="M673.067 232C671.901 234 668.167 238 662.567 238C656.284 234.757 651.562 230.528 648.067 226.245C647.067 227.163 643.967 229 639.567 229C636.21 227 632.502 223.5 631.067 222C628.234 219 624.067 211.2 630.067 204C632.467 214.4 640.199 219 643.764 220C641.456 215.993 640.16 212.372 639.567 210C650.767 222.8 666.567 230 673.067 232Z" fill="#808080" fill-opacity="0.12"/>
<path d="M988.067 193C986.901 195 983.167 199 977.567 199C971.284 195.757 966.562 191.528 963.067 187.245C962.067 188.163 958.967 190 954.567 190C951.21 188 947.502 184.5 946.067 183C943.234 180 939.067 172.2 945.067 165C947.467 175.4 955.199 180 958.764 181C956.456 176.993 955.16 173.372 954.567 171C965.767 183.8 981.567 191 988.067 193Z" fill="#808080" fill-opacity="0.12"/>
<path d="M660 24.5C668.8 24.5 671.333 20.8333 671.5 19C658.5 15.5 646.5 6 640.5 0C637.5 7.5 643.5 12 643.5 12.5C643.5 13 637.5 10.5 627 2.5C627 6.5 631.5 19 649 28C655 26.8 654.167 23.1667 653 21.5C654 22 656.8 23.3 660 24.5Z" fill="#808080" fill-opacity="0.12"/>
<path d="M326 214.5C334.8 214.5 337.333 210.833 337.5 209C324.5 205.5 312.5 196 306.5 190C303.5 197.5 309.5 202 309.5 202.5C309.5 203 303.5 200.5 293 192.5C293 196.5 297.5 209 315 218C321 216.8 320.167 213.167 319 211.5C320 212 322.8 213.3 326 214.5Z" fill="#808080" fill-opacity="0.12"/>
</svg>
