<svg width="13" height="14" viewBox="0 0 13 14" fill="none" xmlns="http://www.w3.org/2000/svg">
<path d="M5.75 12.6001V11.8581C4.2997 11.6875 2.966 11.0287 1.99932 10.0053C1.03264 8.98193 0.499499 7.66437 0.5 6.30006H2C2 7.41397 2.47411 8.48226 3.31802 9.26991C4.16193 10.0576 5.30653 10.5001 6.5 10.5001C7.69347 10.5001 8.83807 10.0576 9.68198 9.26991C10.5259 8.48226 11 7.41397 11 6.30006H12.5C12.5005 7.66437 11.9674 8.98193 11.0007 10.0053C10.034 11.0287 8.7003 11.6875 7.25 11.8581V12.6001H9.5V14.0001H3.5V12.6001H5.75ZM3.5 2.80006C3.5 2.05745 3.81607 1.34526 4.37868 0.820162C4.94129 0.29506 5.70435 6.10352e-05 6.5 6.10352e-05C7.29565 6.10352e-05 8.05871 0.29506 8.62132 0.820162C9.18393 1.34526 9.5 2.05745 9.5 2.80006V6.30006C9.5 7.04267 9.18393 7.75486 8.62132 8.27996C8.05871 8.80506 7.29565 9.10006 6.5 9.10006C5.70435 9.10006 4.94129 8.80506 4.37868 8.27996C3.81607 7.75486 3.5 7.04267 3.5 6.30006V2.80006Z" fill="#7094FA"/>
</svg>
