<svg width="318" height="67" viewBox="0 0 318 67" fill="none" xmlns="http://www.w3.org/2000/svg">
<mask id="path-1-outside-1_448_80" maskUnits="userSpaceOnUse" x="3" y="3" width="312" height="61" fill="black">
<rect fill="white" x="3" y="3" width="312" height="61"/>
<path d="M28.7818 15.845C31.9269 15.845 34.8859 16.4389 37.6586 17.6266C40.4313 18.8144 42.8522 20.4322 44.9214 22.48C46.9906 24.4869 48.6253 26.8624 49.8254 29.6065C51.0255 32.3506 51.6256 35.2791 51.6256 38.3918C51.6256 41.5045 51.0255 44.4329 49.8254 47.177C48.6253 49.9212 46.9906 52.3171 44.9214 54.365C42.8522 56.3719 40.4313 57.9692 37.6586 59.1569C34.8859 60.3447 31.9269 60.9386 28.7818 60.9386C25.6366 60.9386 22.6777 60.3447 19.9049 59.1569C17.1322 57.9692 14.7113 56.3719 12.6421 54.365C10.6143 52.3171 9.00032 49.9212 7.80019 47.177C6.60006 44.4329 6 41.5045 6 38.3918C6 35.2791 6.60006 32.3506 7.80019 29.6065C9.00032 26.8624 10.6143 24.4869 12.6421 22.48C14.7113 20.4322 17.1322 18.8144 19.9049 17.6266C22.6777 16.4389 25.6366 15.845 28.7818 15.845ZM28.7818 50.556C30.4785 50.556 32.0718 50.2488 33.5616 49.6345C35.0514 48.9791 36.355 48.0986 37.4724 46.9927C38.5897 45.8869 39.4588 44.5968 40.0795 43.1223C40.7417 41.6479 41.0727 40.071 41.0727 38.3918C41.0727 36.7126 40.7417 35.1357 40.0795 33.6613C39.4588 32.1868 38.5897 30.8967 37.4724 29.7908C36.355 28.685 35.0514 27.8249 33.5616 27.2106C32.0718 26.5552 30.4785 26.2276 28.7818 26.2276C27.085 26.2276 25.4918 26.5552 24.0019 27.2106C22.5121 27.8249 21.2085 28.685 20.0912 29.7908C18.9738 30.8967 18.0841 32.1868 17.4219 33.6613C16.8012 35.1357 16.4908 36.7126 16.4908 38.3918C16.4908 40.071 16.8012 41.6479 17.4219 43.1223C18.0841 44.5968 18.9738 45.8869 20.0912 46.9927C21.2085 48.0986 22.5121 48.9791 24.0019 49.6345C25.4918 50.2488 27.085 50.556 28.7818 50.556Z"/>
<path d="M80.2643 15.7221V26.1662H71.5116V61H61.0209V26.1662H52.3303V15.7221H80.2643Z"/>
<path d="M103.709 15.845C106.854 15.845 109.813 16.4389 112.586 17.6266C115.359 18.8144 117.78 20.4322 119.849 22.48C121.918 24.4869 123.553 26.8624 124.753 29.6065C125.953 32.3506 126.553 35.2791 126.553 38.3918C126.553 41.5045 125.953 44.4329 124.753 47.177C123.553 49.9212 121.918 52.3171 119.849 54.365C117.78 56.3719 115.359 57.9692 112.586 59.1569C109.813 60.3447 106.854 60.9386 103.709 60.9386C100.564 60.9386 97.6049 60.3447 94.8322 59.1569C92.0595 57.9692 89.6385 56.3719 87.5694 54.365C85.5415 52.3171 83.9276 49.9212 82.7275 47.177C81.5273 44.4329 80.9273 41.5045 80.9273 38.3918C80.9273 35.2791 81.5273 32.3506 82.7275 29.6065C83.9276 26.8624 85.5415 24.4869 87.5694 22.48C89.6385 20.4322 92.0595 18.8144 94.8322 17.6266C97.6049 16.4389 100.564 15.845 103.709 15.845ZM103.709 50.556C105.406 50.556 106.999 50.2488 108.489 49.6345C109.979 48.9791 111.282 48.0986 112.4 46.9927C113.517 45.8869 114.386 44.5968 115.007 43.1223C115.669 41.6479 116 40.071 116 38.3918C116 36.7126 115.669 35.1357 115.007 33.6613C114.386 32.1868 113.517 30.8967 112.4 29.7908C111.282 28.685 109.979 27.8249 108.489 27.2106C106.999 26.5552 105.406 26.2276 103.709 26.2276C102.012 26.2276 100.419 26.5552 98.9292 27.2106C97.4394 27.8249 96.1358 28.685 95.0184 29.7908C93.9011 30.8967 93.0113 32.1868 92.3492 33.6613C91.7284 35.1357 91.418 36.7126 91.418 38.3918C91.418 40.071 91.7284 41.6479 92.3492 43.1223C93.0113 44.5968 93.9011 45.8869 95.0184 46.9927C96.1358 48.0986 97.4394 48.9791 98.9292 49.6345C100.419 50.2488 102.012 50.556 103.709 50.556Z"/>
<path d="M160.096 15.845H170.897L173.566 61H163.075L161.958 42.5694L155.626 61H145.135L138.431 41.8322L137.19 61H126.637L129.554 15.845H140.355L150.35 44.1053L160.096 15.845Z"/>
<path d="M235.842 15.5993H246.83L233.359 61H222.993L216.971 38.3918L211.757 61H201.328L186.182 15.5993H197.231L205.674 40.7263L211.447 15.5993H221.751L228.455 40.6035L235.842 15.5993Z"/>
<path d="M257.32 61H246.829V15.845H257.32V61Z"/>
<path d="M279.141 38.4532L302.543 61H287.397L272.747 46.8084V61H262.256V15.845H272.747V30.098L287.459 15.845H302.543L279.141 38.4532Z"/>
<path d="M312 61H301.509V15.845H312V61Z"/>
<path d="M28.7818 6.24574C31.9269 6.24574 34.8859 6.83962 37.6586 8.02737C40.4313 9.21512 42.8522 10.8329 44.9214 12.8808C46.9906 14.8876 48.6253 17.2631 49.8254 20.0073C51.0255 22.7514 51.6256 25.6798 51.6256 28.7925C51.6256 31.9052 51.0255 34.8337 49.8254 37.5778C48.6253 40.3219 46.9906 42.7179 44.9214 44.7657C42.8522 46.7726 40.4313 48.3699 37.6586 49.5577C34.8859 50.7454 31.9269 51.3393 28.7818 51.3393C25.6366 51.3393 22.6777 50.7454 19.9049 49.5577C17.1322 48.3699 14.7113 46.7726 12.6421 44.7657C10.6143 42.7179 9.00032 40.3219 7.80019 37.5778C6.60006 34.8337 6 31.9052 6 28.7925C6 25.6798 6.60006 22.7514 7.80019 20.0073C9.00032 17.2631 10.6143 14.8876 12.6421 12.8808C14.7113 10.8329 17.1322 9.21512 19.9049 8.02737C22.6777 6.83962 25.6366 6.24574 28.7818 6.24574ZM28.7818 40.9567C30.4785 40.9567 32.0718 40.6495 33.5616 40.0352C35.0514 39.3799 36.355 38.4993 37.4724 37.3935C38.5897 36.2876 39.4588 34.9975 40.0795 33.523C40.7417 32.0486 41.0727 30.4717 41.0727 28.7925C41.0727 27.1133 40.7417 25.5364 40.0795 24.062C39.4588 22.5875 38.5897 21.2974 37.4724 20.1916C36.355 19.0857 35.0514 18.2256 33.5616 17.6113C32.0718 16.956 30.4785 16.6283 28.7818 16.6283C27.085 16.6283 25.4918 16.956 24.0019 17.6113C22.5121 18.2256 21.2085 19.0857 20.0912 20.1916C18.9738 21.2974 18.0841 22.5875 17.4219 24.062C16.8012 25.5364 16.4908 27.1133 16.4908 28.7925C16.4908 30.4717 16.8012 32.0486 17.4219 33.523C18.0841 34.9975 18.9738 36.2876 20.0912 37.3935C21.2085 38.4993 22.5121 39.3799 24.0019 40.0352C25.4918 40.6495 27.085 40.9567 28.7818 40.9567Z"/>
<path d="M80.2643 6.12287V16.5669H71.5116V51.4007H61.0209V16.5669H52.3303V6.12287H80.2643Z"/>
<path d="M103.709 6.24574C106.854 6.24574 109.813 6.83962 112.586 8.02737C115.359 9.21512 117.78 10.8329 119.849 12.8808C121.918 14.8876 123.553 17.2631 124.753 20.0073C125.953 22.7514 126.553 25.6798 126.553 28.7925C126.553 31.9052 125.953 34.8337 124.753 37.5778C123.553 40.3219 121.918 42.7179 119.849 44.7657C117.78 46.7726 115.359 48.3699 112.586 49.5577C109.813 50.7454 106.854 51.3393 103.709 51.3393C100.564 51.3393 97.6049 50.7454 94.8322 49.5577C92.0595 48.3699 89.6385 46.7726 87.5694 44.7657C85.5415 42.7179 83.9276 40.3219 82.7275 37.5778C81.5273 34.8337 80.9273 31.9052 80.9273 28.7925C80.9273 25.6798 81.5273 22.7514 82.7275 20.0073C83.9276 17.2631 85.5415 14.8876 87.5694 12.8808C89.6385 10.8329 92.0595 9.21512 94.8322 8.02737C97.6049 6.83962 100.564 6.24574 103.709 6.24574ZM103.709 40.9567C105.406 40.9567 106.999 40.6495 108.489 40.0352C109.979 39.3799 111.282 38.4993 112.4 37.3935C113.517 36.2876 114.386 34.9975 115.007 33.523C115.669 32.0486 116 30.4717 116 28.7925C116 27.1133 115.669 25.5364 115.007 24.062C114.386 22.5875 113.517 21.2974 112.4 20.1916C111.282 19.0857 109.979 18.2256 108.489 17.6113C106.999 16.956 105.406 16.6283 103.709 16.6283C102.012 16.6283 100.419 16.956 98.9292 17.6113C97.4394 18.2256 96.1358 19.0857 95.0184 20.1916C93.9011 21.2974 93.0113 22.5875 92.3492 24.062C91.7284 25.5364 91.418 27.1133 91.418 28.7925C91.418 30.4717 91.7284 32.0486 92.3492 33.523C93.0113 34.9975 93.9011 36.2876 95.0184 37.3935C96.1358 38.4993 97.4394 39.3799 98.9292 40.0352C100.419 40.6495 102.012 40.9567 103.709 40.9567Z"/>
<path d="M160.096 6.24574H170.897L173.566 51.4007H163.075L161.958 32.9701L155.626 51.4007H145.135L138.431 32.2329L137.19 51.4007H126.637L129.554 6.24574H140.355L150.35 34.506L160.096 6.24574Z"/>
<path d="M246.395 6L232.925 51.4007H222.558L216.537 28.7925L211.323 51.4007H200.894L185.747 6H196.797L205.239 31.1271L211.012 6H221.317L228.021 31.0042L235.408 6H246.395Z"/>
<path d="M256.229 51.4007H245.738V6.24574H256.229V51.4007Z"/>
<path d="M278.049 28.854L301.452 51.4007H286.306L271.656 37.2092V51.4007H261.165V6.24574H271.656V20.4987L286.368 6.24574H301.452L278.049 28.854Z"/>
<path d="M310.909 51.4007H300.418V6.24574H310.909V51.4007Z"/>
</mask>
<path d="M28.7818 15.845C31.9269 15.845 34.8859 16.4389 37.6586 17.6266C40.4313 18.8144 42.8522 20.4322 44.9214 22.48C46.9906 24.4869 48.6253 26.8624 49.8254 29.6065C51.0255 32.3506 51.6256 35.2791 51.6256 38.3918C51.6256 41.5045 51.0255 44.4329 49.8254 47.177C48.6253 49.9212 46.9906 52.3171 44.9214 54.365C42.8522 56.3719 40.4313 57.9692 37.6586 59.1569C34.8859 60.3447 31.9269 60.9386 28.7818 60.9386C25.6366 60.9386 22.6777 60.3447 19.9049 59.1569C17.1322 57.9692 14.7113 56.3719 12.6421 54.365C10.6143 52.3171 9.00032 49.9212 7.80019 47.177C6.60006 44.4329 6 41.5045 6 38.3918C6 35.2791 6.60006 32.3506 7.80019 29.6065C9.00032 26.8624 10.6143 24.4869 12.6421 22.48C14.7113 20.4322 17.1322 18.8144 19.9049 17.6266C22.6777 16.4389 25.6366 15.845 28.7818 15.845ZM28.7818 50.556C30.4785 50.556 32.0718 50.2488 33.5616 49.6345C35.0514 48.9791 36.355 48.0986 37.4724 46.9927C38.5897 45.8869 39.4588 44.5968 40.0795 43.1223C40.7417 41.6479 41.0727 40.071 41.0727 38.3918C41.0727 36.7126 40.7417 35.1357 40.0795 33.6613C39.4588 32.1868 38.5897 30.8967 37.4724 29.7908C36.355 28.685 35.0514 27.8249 33.5616 27.2106C32.0718 26.5552 30.4785 26.2276 28.7818 26.2276C27.085 26.2276 25.4918 26.5552 24.0019 27.2106C22.5121 27.8249 21.2085 28.685 20.0912 29.7908C18.9738 30.8967 18.0841 32.1868 17.4219 33.6613C16.8012 35.1357 16.4908 36.7126 16.4908 38.3918C16.4908 40.071 16.8012 41.6479 17.4219 43.1223C18.0841 44.5968 18.9738 45.8869 20.0912 46.9927C21.2085 48.0986 22.5121 48.9791 24.0019 49.6345C25.4918 50.2488 27.085 50.556 28.7818 50.556Z" fill="black"/>
<path d="M80.2643 15.7221V26.1662H71.5116V61H61.0209V26.1662H52.3303V15.7221H80.2643Z" fill="black"/>
<path d="M103.709 15.845C106.854 15.845 109.813 16.4389 112.586 17.6266C115.359 18.8144 117.78 20.4322 119.849 22.48C121.918 24.4869 123.553 26.8624 124.753 29.6065C125.953 32.3506 126.553 35.2791 126.553 38.3918C126.553 41.5045 125.953 44.4329 124.753 47.177C123.553 49.9212 121.918 52.3171 119.849 54.365C117.78 56.3719 115.359 57.9692 112.586 59.1569C109.813 60.3447 106.854 60.9386 103.709 60.9386C100.564 60.9386 97.6049 60.3447 94.8322 59.1569C92.0595 57.9692 89.6385 56.3719 87.5694 54.365C85.5415 52.3171 83.9276 49.9212 82.7275 47.177C81.5273 44.4329 80.9273 41.5045 80.9273 38.3918C80.9273 35.2791 81.5273 32.3506 82.7275 29.6065C83.9276 26.8624 85.5415 24.4869 87.5694 22.48C89.6385 20.4322 92.0595 18.8144 94.8322 17.6266C97.6049 16.4389 100.564 15.845 103.709 15.845ZM103.709 50.556C105.406 50.556 106.999 50.2488 108.489 49.6345C109.979 48.9791 111.282 48.0986 112.4 46.9927C113.517 45.8869 114.386 44.5968 115.007 43.1223C115.669 41.6479 116 40.071 116 38.3918C116 36.7126 115.669 35.1357 115.007 33.6613C114.386 32.1868 113.517 30.8967 112.4 29.7908C111.282 28.685 109.979 27.8249 108.489 27.2106C106.999 26.5552 105.406 26.2276 103.709 26.2276C102.012 26.2276 100.419 26.5552 98.9292 27.2106C97.4394 27.8249 96.1358 28.685 95.0184 29.7908C93.9011 30.8967 93.0113 32.1868 92.3492 33.6613C91.7284 35.1357 91.418 36.7126 91.418 38.3918C91.418 40.071 91.7284 41.6479 92.3492 43.1223C93.0113 44.5968 93.9011 45.8869 95.0184 46.9927C96.1358 48.0986 97.4394 48.9791 98.9292 49.6345C100.419 50.2488 102.012 50.556 103.709 50.556Z" fill="black"/>
<path d="M160.096 15.845H170.897L173.566 61H163.075L161.958 42.5694L155.626 61H145.135L138.431 41.8322L137.19 61H126.637L129.554 15.845H140.355L150.35 44.1053L160.096 15.845Z" fill="black"/>
<path d="M235.842 15.5993H246.83L233.359 61H222.993L216.971 38.3918L211.757 61H201.328L186.182 15.5993H197.231L205.674 40.7263L211.447 15.5993H221.751L228.455 40.6035L235.842 15.5993Z" fill="black"/>
<path d="M257.32 61H246.829V15.845H257.32V61Z" fill="black"/>
<path d="M279.141 38.4532L302.543 61H287.397L272.747 46.8084V61H262.256V15.845H272.747V30.098L287.459 15.845H302.543L279.141 38.4532Z" fill="black"/>
<path d="M312 61H301.509V15.845H312V61Z" fill="black"/>
<path d="M28.7818 6.24574C31.9269 6.24574 34.8859 6.83962 37.6586 8.02737C40.4313 9.21512 42.8522 10.8329 44.9214 12.8808C46.9906 14.8876 48.6253 17.2631 49.8254 20.0073C51.0255 22.7514 51.6256 25.6798 51.6256 28.7925C51.6256 31.9052 51.0255 34.8337 49.8254 37.5778C48.6253 40.3219 46.9906 42.7179 44.9214 44.7657C42.8522 46.7726 40.4313 48.3699 37.6586 49.5577C34.8859 50.7454 31.9269 51.3393 28.7818 51.3393C25.6366 51.3393 22.6777 50.7454 19.9049 49.5577C17.1322 48.3699 14.7113 46.7726 12.6421 44.7657C10.6143 42.7179 9.00032 40.3219 7.80019 37.5778C6.60006 34.8337 6 31.9052 6 28.7925C6 25.6798 6.60006 22.7514 7.80019 20.0073C9.00032 17.2631 10.6143 14.8876 12.6421 12.8808C14.7113 10.8329 17.1322 9.21512 19.9049 8.02737C22.6777 6.83962 25.6366 6.24574 28.7818 6.24574ZM28.7818 40.9567C30.4785 40.9567 32.0718 40.6495 33.5616 40.0352C35.0514 39.3799 36.355 38.4993 37.4724 37.3935C38.5897 36.2876 39.4588 34.9975 40.0795 33.523C40.7417 32.0486 41.0727 30.4717 41.0727 28.7925C41.0727 27.1133 40.7417 25.5364 40.0795 24.062C39.4588 22.5875 38.5897 21.2974 37.4724 20.1916C36.355 19.0857 35.0514 18.2256 33.5616 17.6113C32.0718 16.956 30.4785 16.6283 28.7818 16.6283C27.085 16.6283 25.4918 16.956 24.0019 17.6113C22.5121 18.2256 21.2085 19.0857 20.0912 20.1916C18.9738 21.2974 18.0841 22.5875 17.4219 24.062C16.8012 25.5364 16.4908 27.1133 16.4908 28.7925C16.4908 30.4717 16.8012 32.0486 17.4219 33.523C18.0841 34.9975 18.9738 36.2876 20.0912 37.3935C21.2085 38.4993 22.5121 39.3799 24.0019 40.0352C25.4918 40.6495 27.085 40.9567 28.7818 40.9567Z" fill="white"/>
<path d="M80.2643 6.12287V16.5669H71.5116V51.4007H61.0209V16.5669H52.3303V6.12287H80.2643Z" fill="white"/>
<path d="M103.709 6.24574C106.854 6.24574 109.813 6.83962 112.586 8.02737C115.359 9.21512 117.78 10.8329 119.849 12.8808C121.918 14.8876 123.553 17.2631 124.753 20.0073C125.953 22.7514 126.553 25.6798 126.553 28.7925C126.553 31.9052 125.953 34.8337 124.753 37.5778C123.553 40.3219 121.918 42.7179 119.849 44.7657C117.78 46.7726 115.359 48.3699 112.586 49.5577C109.813 50.7454 106.854 51.3393 103.709 51.3393C100.564 51.3393 97.6049 50.7454 94.8322 49.5577C92.0595 48.3699 89.6385 46.7726 87.5694 44.7657C85.5415 42.7179 83.9276 40.3219 82.7275 37.5778C81.5273 34.8337 80.9273 31.9052 80.9273 28.7925C80.9273 25.6798 81.5273 22.7514 82.7275 20.0073C83.9276 17.2631 85.5415 14.8876 87.5694 12.8808C89.6385 10.8329 92.0595 9.21512 94.8322 8.02737C97.6049 6.83962 100.564 6.24574 103.709 6.24574ZM103.709 40.9567C105.406 40.9567 106.999 40.6495 108.489 40.0352C109.979 39.3799 111.282 38.4993 112.4 37.3935C113.517 36.2876 114.386 34.9975 115.007 33.523C115.669 32.0486 116 30.4717 116 28.7925C116 27.1133 115.669 25.5364 115.007 24.062C114.386 22.5875 113.517 21.2974 112.4 20.1916C111.282 19.0857 109.979 18.2256 108.489 17.6113C106.999 16.956 105.406 16.6283 103.709 16.6283C102.012 16.6283 100.419 16.956 98.9292 17.6113C97.4394 18.2256 96.1358 19.0857 95.0184 20.1916C93.9011 21.2974 93.0113 22.5875 92.3492 24.062C91.7284 25.5364 91.418 27.1133 91.418 28.7925C91.418 30.4717 91.7284 32.0486 92.3492 33.523C93.0113 34.9975 93.9011 36.2876 95.0184 37.3935C96.1358 38.4993 97.4394 39.3799 98.9292 40.0352C100.419 40.6495 102.012 40.9567 103.709 40.9567Z" fill="white"/>
<path d="M160.096 6.24574H170.897L173.566 51.4007H163.075L161.958 32.9701L155.626 51.4007H145.135L138.431 32.2329L137.19 51.4007H126.637L129.554 6.24574H140.355L150.35 34.506L160.096 6.24574Z" fill="white"/>
<path d="M246.395 6L232.925 51.4007H222.558L216.537 28.7925L211.323 51.4007H200.894L185.747 6H196.797L205.239 31.1271L211.012 6H221.317L228.021 31.0042L235.408 6H246.395Z" fill="white"/>
<path d="M256.229 51.4007H245.738V6.24574H256.229V51.4007Z" fill="white"/>
<path d="M278.049 28.854L301.452 51.4007H286.306L271.656 37.2092V51.4007H261.165V6.24574H271.656V20.4987L286.368 6.24574H301.452L278.049 28.854Z" fill="white"/>
<path d="M310.909 51.4007H300.418V6.24574H310.909V51.4007Z" fill="white"/>
<path d="M28.7818 15.845C31.9269 15.845 34.8859 16.4389 37.6586 17.6266C40.4313 18.8144 42.8522 20.4322 44.9214 22.48C46.9906 24.4869 48.6253 26.8624 49.8254 29.6065C51.0255 32.3506 51.6256 35.2791 51.6256 38.3918C51.6256 41.5045 51.0255 44.4329 49.8254 47.177C48.6253 49.9212 46.9906 52.3171 44.9214 54.365C42.8522 56.3719 40.4313 57.9692 37.6586 59.1569C34.8859 60.3447 31.9269 60.9386 28.7818 60.9386C25.6366 60.9386 22.6777 60.3447 19.9049 59.1569C17.1322 57.9692 14.7113 56.3719 12.6421 54.365C10.6143 52.3171 9.00032 49.9212 7.80019 47.177C6.60006 44.4329 6 41.5045 6 38.3918C6 35.2791 6.60006 32.3506 7.80019 29.6065C9.00032 26.8624 10.6143 24.4869 12.6421 22.48C14.7113 20.4322 17.1322 18.8144 19.9049 17.6266C22.6777 16.4389 25.6366 15.845 28.7818 15.845ZM28.7818 50.556C30.4785 50.556 32.0718 50.2488 33.5616 49.6345C35.0514 48.9791 36.355 48.0986 37.4724 46.9927C38.5897 45.8869 39.4588 44.5968 40.0795 43.1223C40.7417 41.6479 41.0727 40.071 41.0727 38.3918C41.0727 36.7126 40.7417 35.1357 40.0795 33.6613C39.4588 32.1868 38.5897 30.8967 37.4724 29.7908C36.355 28.685 35.0514 27.8249 33.5616 27.2106C32.0718 26.5552 30.4785 26.2276 28.7818 26.2276C27.085 26.2276 25.4918 26.5552 24.0019 27.2106C22.5121 27.8249 21.2085 28.685 20.0912 29.7908C18.9738 30.8967 18.0841 32.1868 17.4219 33.6613C16.8012 35.1357 16.4908 36.7126 16.4908 38.3918C16.4908 40.071 16.8012 41.6479 17.4219 43.1223C18.0841 44.5968 18.9738 45.8869 20.0912 46.9927C21.2085 48.0986 22.5121 48.9791 24.0019 49.6345C25.4918 50.2488 27.085 50.556 28.7818 50.556Z" stroke="black" stroke-width="6" mask="url(#path-1-outside-1_448_80)"/>
<path d="M80.2643 15.7221V26.1662H71.5116V61H61.0209V26.1662H52.3303V15.7221H80.2643Z" stroke="black" stroke-width="6" mask="url(#path-1-outside-1_448_80)"/>
<path d="M103.709 15.845C106.854 15.845 109.813 16.4389 112.586 17.6266C115.359 18.8144 117.78 20.4322 119.849 22.48C121.918 24.4869 123.553 26.8624 124.753 29.6065C125.953 32.3506 126.553 35.2791 126.553 38.3918C126.553 41.5045 125.953 44.4329 124.753 47.177C123.553 49.9212 121.918 52.3171 119.849 54.365C117.78 56.3719 115.359 57.9692 112.586 59.1569C109.813 60.3447 106.854 60.9386 103.709 60.9386C100.564 60.9386 97.6049 60.3447 94.8322 59.1569C92.0595 57.9692 89.6385 56.3719 87.5694 54.365C85.5415 52.3171 83.9276 49.9212 82.7275 47.177C81.5273 44.4329 80.9273 41.5045 80.9273 38.3918C80.9273 35.2791 81.5273 32.3506 82.7275 29.6065C83.9276 26.8624 85.5415 24.4869 87.5694 22.48C89.6385 20.4322 92.0595 18.8144 94.8322 17.6266C97.6049 16.4389 100.564 15.845 103.709 15.845ZM103.709 50.556C105.406 50.556 106.999 50.2488 108.489 49.6345C109.979 48.9791 111.282 48.0986 112.4 46.9927C113.517 45.8869 114.386 44.5968 115.007 43.1223C115.669 41.6479 116 40.071 116 38.3918C116 36.7126 115.669 35.1357 115.007 33.6613C114.386 32.1868 113.517 30.8967 112.4 29.7908C111.282 28.685 109.979 27.8249 108.489 27.2106C106.999 26.5552 105.406 26.2276 103.709 26.2276C102.012 26.2276 100.419 26.5552 98.9292 27.2106C97.4394 27.8249 96.1358 28.685 95.0184 29.7908C93.9011 30.8967 93.0113 32.1868 92.3492 33.6613C91.7284 35.1357 91.418 36.7126 91.418 38.3918C91.418 40.071 91.7284 41.6479 92.3492 43.1223C93.0113 44.5968 93.9011 45.8869 95.0184 46.9927C96.1358 48.0986 97.4394 48.9791 98.9292 49.6345C100.419 50.2488 102.012 50.556 103.709 50.556Z" stroke="black" stroke-width="6" mask="url(#path-1-outside-1_448_80)"/>
<path d="M160.096 15.845H170.897L173.566 61H163.075L161.958 42.5694L155.626 61H145.135L138.431 41.8322L137.19 61H126.637L129.554 15.845H140.355L150.35 44.1053L160.096 15.845Z" stroke="black" stroke-width="6" mask="url(#path-1-outside-1_448_80)"/>
<path d="M235.842 15.5993H246.83L233.359 61H222.993L216.971 38.3918L211.757 61H201.328L186.182 15.5993H197.231L205.674 40.7263L211.447 15.5993H221.751L228.455 40.6035L235.842 15.5993Z" stroke="black" stroke-width="6" mask="url(#path-1-outside-1_448_80)"/>
<path d="M257.32 61H246.829V15.845H257.32V61Z" stroke="black" stroke-width="6" mask="url(#path-1-outside-1_448_80)"/>
<path d="M279.141 38.4532L302.543 61H287.397L272.747 46.8084V61H262.256V15.845H272.747V30.098L287.459 15.845H302.543L279.141 38.4532Z" stroke="black" stroke-width="6" mask="url(#path-1-outside-1_448_80)"/>
<path d="M312 61H301.509V15.845H312V61Z" stroke="black" stroke-width="6" mask="url(#path-1-outside-1_448_80)"/>
<path d="M28.7818 6.24574C31.9269 6.24574 34.8859 6.83962 37.6586 8.02737C40.4313 9.21512 42.8522 10.8329 44.9214 12.8808C46.9906 14.8876 48.6253 17.2631 49.8254 20.0073C51.0255 22.7514 51.6256 25.6798 51.6256 28.7925C51.6256 31.9052 51.0255 34.8337 49.8254 37.5778C48.6253 40.3219 46.9906 42.7179 44.9214 44.7657C42.8522 46.7726 40.4313 48.3699 37.6586 49.5577C34.8859 50.7454 31.9269 51.3393 28.7818 51.3393C25.6366 51.3393 22.6777 50.7454 19.9049 49.5577C17.1322 48.3699 14.7113 46.7726 12.6421 44.7657C10.6143 42.7179 9.00032 40.3219 7.80019 37.5778C6.60006 34.8337 6 31.9052 6 28.7925C6 25.6798 6.60006 22.7514 7.80019 20.0073C9.00032 17.2631 10.6143 14.8876 12.6421 12.8808C14.7113 10.8329 17.1322 9.21512 19.9049 8.02737C22.6777 6.83962 25.6366 6.24574 28.7818 6.24574ZM28.7818 40.9567C30.4785 40.9567 32.0718 40.6495 33.5616 40.0352C35.0514 39.3799 36.355 38.4993 37.4724 37.3935C38.5897 36.2876 39.4588 34.9975 40.0795 33.523C40.7417 32.0486 41.0727 30.4717 41.0727 28.7925C41.0727 27.1133 40.7417 25.5364 40.0795 24.062C39.4588 22.5875 38.5897 21.2974 37.4724 20.1916C36.355 19.0857 35.0514 18.2256 33.5616 17.6113C32.0718 16.956 30.4785 16.6283 28.7818 16.6283C27.085 16.6283 25.4918 16.956 24.0019 17.6113C22.5121 18.2256 21.2085 19.0857 20.0912 20.1916C18.9738 21.2974 18.0841 22.5875 17.4219 24.062C16.8012 25.5364 16.4908 27.1133 16.4908 28.7925C16.4908 30.4717 16.8012 32.0486 17.4219 33.523C18.0841 34.9975 18.9738 36.2876 20.0912 37.3935C21.2085 38.4993 22.5121 39.3799 24.0019 40.0352C25.4918 40.6495 27.085 40.9567 28.7818 40.9567Z" stroke="black" stroke-width="6" mask="url(#path-1-outside-1_448_80)"/>
<path d="M80.2643 6.12287V16.5669H71.5116V51.4007H61.0209V16.5669H52.3303V6.12287H80.2643Z" stroke="black" stroke-width="6" mask="url(#path-1-outside-1_448_80)"/>
<path d="M103.709 6.24574C106.854 6.24574 109.813 6.83962 112.586 8.02737C115.359 9.21512 117.78 10.8329 119.849 12.8808C121.918 14.8876 123.553 17.2631 124.753 20.0073C125.953 22.7514 126.553 25.6798 126.553 28.7925C126.553 31.9052 125.953 34.8337 124.753 37.5778C123.553 40.3219 121.918 42.7179 119.849 44.7657C117.78 46.7726 115.359 48.3699 112.586 49.5577C109.813 50.7454 106.854 51.3393 103.709 51.3393C100.564 51.3393 97.6049 50.7454 94.8322 49.5577C92.0595 48.3699 89.6385 46.7726 87.5694 44.7657C85.5415 42.7179 83.9276 40.3219 82.7275 37.5778C81.5273 34.8337 80.9273 31.9052 80.9273 28.7925C80.9273 25.6798 81.5273 22.7514 82.7275 20.0073C83.9276 17.2631 85.5415 14.8876 87.5694 12.8808C89.6385 10.8329 92.0595 9.21512 94.8322 8.02737C97.6049 6.83962 100.564 6.24574 103.709 6.24574ZM103.709 40.9567C105.406 40.9567 106.999 40.6495 108.489 40.0352C109.979 39.3799 111.282 38.4993 112.4 37.3935C113.517 36.2876 114.386 34.9975 115.007 33.523C115.669 32.0486 116 30.4717 116 28.7925C116 27.1133 115.669 25.5364 115.007 24.062C114.386 22.5875 113.517 21.2974 112.4 20.1916C111.282 19.0857 109.979 18.2256 108.489 17.6113C106.999 16.956 105.406 16.6283 103.709 16.6283C102.012 16.6283 100.419 16.956 98.9292 17.6113C97.4394 18.2256 96.1358 19.0857 95.0184 20.1916C93.9011 21.2974 93.0113 22.5875 92.3492 24.062C91.7284 25.5364 91.418 27.1133 91.418 28.7925C91.418 30.4717 91.7284 32.0486 92.3492 33.523C93.0113 34.9975 93.9011 36.2876 95.0184 37.3935C96.1358 38.4993 97.4394 39.3799 98.9292 40.0352C100.419 40.6495 102.012 40.9567 103.709 40.9567Z" stroke="black" stroke-width="6" mask="url(#path-1-outside-1_448_80)"/>
<path d="M160.096 6.24574H170.897L173.566 51.4007H163.075L161.958 32.9701L155.626 51.4007H145.135L138.431 32.2329L137.19 51.4007H126.637L129.554 6.24574H140.355L150.35 34.506L160.096 6.24574Z" stroke="black" stroke-width="6" mask="url(#path-1-outside-1_448_80)"/>
<path d="M246.395 6L232.925 51.4007H222.558L216.537 28.7925L211.323 51.4007H200.894L185.747 6H196.797L205.239 31.1271L211.012 6H221.317L228.021 31.0042L235.408 6H246.395Z" stroke="black" stroke-width="6" mask="url(#path-1-outside-1_448_80)"/>
<path d="M256.229 51.4007H245.738V6.24574H256.229V51.4007Z" stroke="black" stroke-width="6" mask="url(#path-1-outside-1_448_80)"/>
<path d="M278.049 28.854L301.452 51.4007H286.306L271.656 37.2092V51.4007H261.165V6.24574H271.656V20.4987L286.368 6.24574H301.452L278.049 28.854Z" stroke="black" stroke-width="6" mask="url(#path-1-outside-1_448_80)"/>
<path d="M310.909 51.4007H300.418V6.24574H310.909V51.4007Z" stroke="black" stroke-width="6" mask="url(#path-1-outside-1_448_80)"/>
</svg>
