<svg width="372" height="153" viewBox="0 0 372 153" fill="none" xmlns="http://www.w3.org/2000/svg">
<mask id="path-1-outside-1_324_51" maskUnits="userSpaceOnUse" x="6" y="19" width="360" height="109" fill="black">
<rect fill="white" x="6" y="19" width="360" height="109"/>
<path d="M59.976 26.92C66.4613 26.92 72.5627 28.1573 78.28 30.632C83.9973 33.1067 88.9893 36.4773 93.256 40.744C97.5227 44.9253 100.893 49.8747 103.368 55.592C105.843 61.3093 107.08 67.4107 107.08 73.896C107.08 80.3813 105.843 86.4827 103.368 92.2C100.893 97.9173 97.5227 102.909 93.256 107.176C88.9893 111.357 83.9973 114.685 78.28 117.16C72.5627 119.635 66.4613 120.872 59.976 120.872C53.4907 120.872 47.3893 119.635 41.672 117.16C35.9547 114.685 30.9627 111.357 26.696 107.176C22.5147 102.909 19.1867 97.9173 16.712 92.2C14.2373 86.4827 13 80.3813 13 73.896C13 67.4107 14.2373 61.3093 16.712 55.592C19.1867 49.8747 22.5147 44.9253 26.696 40.744C30.9627 36.4773 35.9547 33.1067 41.672 30.632C47.3893 28.1573 53.4907 26.92 59.976 26.92ZM59.976 99.24C63.4747 99.24 66.76 98.6 69.832 97.32C72.904 95.9547 75.592 94.12 77.896 91.816C80.2 89.512 81.992 86.824 83.272 83.752C84.6373 80.68 85.32 77.3947 85.32 73.896C85.32 70.3973 84.6373 67.112 83.272 64.04C81.992 60.968 80.2 58.28 77.896 55.976C75.592 53.672 72.904 51.88 69.832 50.6C66.76 49.2347 63.4747 48.552 59.976 48.552C56.4773 48.552 53.192 49.2347 50.12 50.6C47.048 51.88 44.36 53.672 42.056 55.976C39.752 58.28 37.9173 60.968 36.552 64.04C35.272 67.112 34.632 70.3973 34.632 73.896C34.632 77.3947 35.272 80.68 36.552 83.752C37.9173 86.824 39.752 89.512 42.056 91.816C44.36 94.12 47.048 95.9547 50.12 97.32C53.192 98.6 56.4773 99.24 59.976 99.24ZM166.133 26.664V48.424H148.085V121H126.453V48.424H108.533V26.664H166.133ZM214.476 26.92C220.961 26.92 227.063 28.1573 232.78 30.632C238.497 33.1067 243.489 36.4773 247.756 40.744C252.023 44.9253 255.393 49.8747 257.868 55.592C260.343 61.3093 261.58 67.4107 261.58 73.896C261.58 80.3813 260.343 86.4827 257.868 92.2C255.393 97.9173 252.023 102.909 247.756 107.176C243.489 111.357 238.497 114.685 232.78 117.16C227.063 119.635 220.961 120.872 214.476 120.872C207.991 120.872 201.889 119.635 196.172 117.16C190.455 114.685 185.463 111.357 181.196 107.176C177.015 102.909 173.687 97.9173 171.212 92.2C168.737 86.4827 167.5 80.3813 167.5 73.896C167.5 67.4107 168.737 61.3093 171.212 55.592C173.687 49.8747 177.015 44.9253 181.196 40.744C185.463 36.4773 190.455 33.1067 196.172 30.632C201.889 28.1573 207.991 26.92 214.476 26.92ZM214.476 99.24C217.975 99.24 221.26 98.6 224.332 97.32C227.404 95.9547 230.092 94.12 232.396 91.816C234.7 89.512 236.492 86.824 237.772 83.752C239.137 80.68 239.82 77.3947 239.82 73.896C239.82 70.3973 239.137 67.112 237.772 64.04C236.492 60.968 234.7 58.28 232.396 55.976C230.092 53.672 227.404 51.88 224.332 50.6C221.26 49.2347 217.975 48.552 214.476 48.552C210.977 48.552 207.692 49.2347 204.62 50.6C201.548 51.88 198.86 53.672 196.556 55.976C194.252 58.28 192.417 60.968 191.052 64.04C189.772 67.112 189.132 70.3973 189.132 73.896C189.132 77.3947 189.772 80.68 191.052 83.752C192.417 86.824 194.252 89.512 196.556 91.816C198.86 94.12 201.548 95.9547 204.62 97.32C207.692 98.6 210.977 99.24 214.476 99.24ZM330.745 26.92H353.017L358.521 121H336.889L334.585 82.6L321.529 121H299.897L286.073 81.064L283.513 121H261.753L267.769 26.92H290.041L310.649 85.8L330.745 26.92Z"/>
</mask>
<path d="M59.976 26.92C66.4613 26.92 72.5627 28.1573 78.28 30.632C83.9973 33.1067 88.9893 36.4773 93.256 40.744C97.5227 44.9253 100.893 49.8747 103.368 55.592C105.843 61.3093 107.08 67.4107 107.08 73.896C107.08 80.3813 105.843 86.4827 103.368 92.2C100.893 97.9173 97.5227 102.909 93.256 107.176C88.9893 111.357 83.9973 114.685 78.28 117.16C72.5627 119.635 66.4613 120.872 59.976 120.872C53.4907 120.872 47.3893 119.635 41.672 117.16C35.9547 114.685 30.9627 111.357 26.696 107.176C22.5147 102.909 19.1867 97.9173 16.712 92.2C14.2373 86.4827 13 80.3813 13 73.896C13 67.4107 14.2373 61.3093 16.712 55.592C19.1867 49.8747 22.5147 44.9253 26.696 40.744C30.9627 36.4773 35.9547 33.1067 41.672 30.632C47.3893 28.1573 53.4907 26.92 59.976 26.92ZM59.976 99.24C63.4747 99.24 66.76 98.6 69.832 97.32C72.904 95.9547 75.592 94.12 77.896 91.816C80.2 89.512 81.992 86.824 83.272 83.752C84.6373 80.68 85.32 77.3947 85.32 73.896C85.32 70.3973 84.6373 67.112 83.272 64.04C81.992 60.968 80.2 58.28 77.896 55.976C75.592 53.672 72.904 51.88 69.832 50.6C66.76 49.2347 63.4747 48.552 59.976 48.552C56.4773 48.552 53.192 49.2347 50.12 50.6C47.048 51.88 44.36 53.672 42.056 55.976C39.752 58.28 37.9173 60.968 36.552 64.04C35.272 67.112 34.632 70.3973 34.632 73.896C34.632 77.3947 35.272 80.68 36.552 83.752C37.9173 86.824 39.752 89.512 42.056 91.816C44.36 94.12 47.048 95.9547 50.12 97.32C53.192 98.6 56.4773 99.24 59.976 99.24ZM166.133 26.664V48.424H148.085V121H126.453V48.424H108.533V26.664H166.133ZM214.476 26.92C220.961 26.92 227.063 28.1573 232.78 30.632C238.497 33.1067 243.489 36.4773 247.756 40.744C252.023 44.9253 255.393 49.8747 257.868 55.592C260.343 61.3093 261.58 67.4107 261.58 73.896C261.58 80.3813 260.343 86.4827 257.868 92.2C255.393 97.9173 252.023 102.909 247.756 107.176C243.489 111.357 238.497 114.685 232.78 117.16C227.063 119.635 220.961 120.872 214.476 120.872C207.991 120.872 201.889 119.635 196.172 117.16C190.455 114.685 185.463 111.357 181.196 107.176C177.015 102.909 173.687 97.9173 171.212 92.2C168.737 86.4827 167.5 80.3813 167.5 73.896C167.5 67.4107 168.737 61.3093 171.212 55.592C173.687 49.8747 177.015 44.9253 181.196 40.744C185.463 36.4773 190.455 33.1067 196.172 30.632C201.889 28.1573 207.991 26.92 214.476 26.92ZM214.476 99.24C217.975 99.24 221.26 98.6 224.332 97.32C227.404 95.9547 230.092 94.12 232.396 91.816C234.7 89.512 236.492 86.824 237.772 83.752C239.137 80.68 239.82 77.3947 239.82 73.896C239.82 70.3973 239.137 67.112 237.772 64.04C236.492 60.968 234.7 58.28 232.396 55.976C230.092 53.672 227.404 51.88 224.332 50.6C221.26 49.2347 217.975 48.552 214.476 48.552C210.977 48.552 207.692 49.2347 204.62 50.6C201.548 51.88 198.86 53.672 196.556 55.976C194.252 58.28 192.417 60.968 191.052 64.04C189.772 67.112 189.132 70.3973 189.132 73.896C189.132 77.3947 189.772 80.68 191.052 83.752C192.417 86.824 194.252 89.512 196.556 91.816C198.86 94.12 201.548 95.9547 204.62 97.32C207.692 98.6 210.977 99.24 214.476 99.24ZM330.745 26.92H353.017L358.521 121H336.889L334.585 82.6L321.529 121H299.897L286.073 81.064L283.513 121H261.753L267.769 26.92H290.041L310.649 85.8L330.745 26.92Z" fill="black"/>
<path d="M78.28 30.632L81.0606 24.2079L81.0606 24.2079L78.28 30.632ZM93.256 40.744L88.3063 45.6937L88.3313 45.7187L88.3565 45.7435L93.256 40.744ZM103.368 55.592L109.792 52.8114L109.792 52.8114L103.368 55.592ZM103.368 92.2L109.792 94.9806L109.792 94.9806L103.368 92.2ZM93.256 107.176L98.1555 112.175L98.1808 112.151L98.2058 112.126L93.256 107.176ZM78.28 117.16L81.0606 123.584L81.0606 123.584L78.28 117.16ZM41.672 117.16L38.8914 123.584L38.8914 123.584L41.672 117.16ZM26.696 107.176L21.6965 112.075L21.746 112.126L21.7965 112.175L26.696 107.176ZM16.712 92.2L10.2879 94.9806L10.2879 94.9806L16.712 92.2ZM16.712 55.592L10.2879 52.8114L10.2879 52.8114L16.712 55.592ZM26.696 40.744L21.7463 35.7942L21.7463 35.7942L26.696 40.744ZM69.832 97.32L72.5243 103.782L72.6 103.75L72.675 103.717L69.832 97.32ZM83.272 83.752L76.8753 80.909L76.842 80.984L76.8105 81.0597L83.272 83.752ZM83.272 64.04L76.8105 66.7323L76.842 66.808L76.8753 66.883L83.272 64.04ZM77.896 55.976L72.9463 60.9257L72.9463 60.9257L77.896 55.976ZM69.832 50.6L66.989 56.9967L67.064 57.03L67.1397 57.0615L69.832 50.6ZM50.12 50.6L52.8123 57.0615L52.888 57.03L52.963 56.9967L50.12 50.6ZM42.056 55.976L47.0057 60.9257L47.0058 60.9257L42.056 55.976ZM36.552 64.04L30.1553 61.197L30.122 61.272L30.0905 61.3477L36.552 64.04ZM36.552 83.752L30.0905 86.4443L30.122 86.52L30.1553 86.595L36.552 83.752ZM42.056 91.816L47.0058 86.8663L47.0057 86.8663L42.056 91.816ZM50.12 97.32L47.277 103.717L47.352 103.75L47.4277 103.782L50.12 97.32ZM59.976 33.92C65.5449 33.92 70.6959 34.9769 75.4994 37.0561L81.0606 24.2079C74.4294 21.3377 67.3777 19.92 59.976 19.92V33.92ZM75.4994 37.0561C80.4341 39.1919 84.6836 42.0711 88.3063 45.6937L98.2058 35.7942C93.2951 30.8836 87.5606 27.0214 81.0606 24.2079L75.4994 37.0561ZM88.3565 45.7435C91.9486 49.2637 94.8134 53.4503 96.9439 58.3726L109.792 52.8114C106.973 46.299 103.097 40.5869 98.1555 35.7445L88.3565 45.7435ZM96.9439 58.3726C99.0231 63.1761 100.08 68.3271 100.08 73.896H114.08C114.08 66.4943 112.662 59.4426 109.792 52.8114L96.9439 58.3726ZM100.08 73.896C100.08 79.4649 99.0231 84.6159 96.9439 89.4194L109.792 94.9806C112.662 88.3494 114.08 81.2977 114.08 73.896H100.08ZM96.9439 89.4194C94.8081 94.3541 91.9289 98.6036 88.3063 102.226L98.2058 112.126C103.116 107.215 106.979 101.481 109.792 94.9806L96.9439 89.4194ZM88.3565 102.177C84.7289 105.732 80.4633 108.587 75.4994 110.736L81.0606 123.584C87.5313 120.783 93.2497 116.983 98.1555 112.175L88.3565 102.177ZM75.4994 110.736C70.6959 112.815 65.5449 113.872 59.976 113.872V127.872C67.3777 127.872 74.4294 126.454 81.0606 123.584L75.4994 110.736ZM59.976 113.872C54.4071 113.872 49.2561 112.815 44.4526 110.736L38.8914 123.584C45.5226 126.454 52.5743 127.872 59.976 127.872V113.872ZM44.4526 110.736C39.4887 108.587 35.2231 105.732 31.5955 102.177L21.7965 112.175C26.7023 116.983 32.4207 120.783 38.8914 123.584L44.4526 110.736ZM31.6955 102.276C28.1405 98.6489 25.2846 94.3833 23.1361 89.4194L10.2879 94.9806C13.0887 101.451 16.8889 107.17 21.6965 112.075L31.6955 102.276ZM23.1361 89.4194C21.0569 84.6159 20 79.4649 20 73.896H6C6 81.2977 7.41775 88.3494 10.2879 94.9806L23.1361 89.4194ZM20 73.896C20 68.3271 21.0569 63.1761 23.1361 58.3726L10.2879 52.8114C7.41775 59.4426 6 66.4943 6 73.896H20ZM23.1361 58.3726C25.2794 53.4208 28.1211 49.2184 31.6457 45.6937L21.7463 35.7942C16.9082 40.6323 13.094 46.3285 10.2879 52.8114L23.1361 58.3726ZM31.6457 45.6937C35.2684 42.0711 39.5179 39.1919 44.4526 37.0561L38.8914 24.2079C32.3914 27.0214 26.6569 30.8836 21.7463 35.7942L31.6457 45.6937ZM44.4526 37.0561C49.2561 34.9769 54.4071 33.92 59.976 33.92V19.92C52.5743 19.92 45.5226 21.3377 38.8914 24.2079L44.4526 37.0561ZM59.976 106.24C64.3507 106.24 68.5558 105.435 72.5243 103.782L67.1397 90.8585C64.9642 91.7649 62.5987 92.24 59.976 92.24V106.24ZM72.675 103.717C76.5067 102.014 79.9149 99.6966 82.8458 96.7657L72.9463 86.8663C71.2691 88.5434 69.3013 89.8957 66.989 90.9233L72.675 103.717ZM82.8458 96.7657C85.8103 93.8012 88.1096 90.3418 89.7335 86.4443L76.8105 81.0597C75.8744 83.3062 74.5897 85.2228 72.9463 86.8663L82.8458 96.7657ZM89.6687 86.595C91.448 82.5914 92.32 78.3333 92.32 73.896H78.32C78.32 76.4561 77.8266 78.7686 76.8753 80.909L89.6687 86.595ZM92.32 73.896C92.32 69.4587 91.448 65.2006 89.6687 61.197L76.8753 66.883C77.8266 69.0234 78.32 71.3359 78.32 73.896H92.32ZM89.7335 61.3477C88.1096 57.4502 85.8103 53.9908 82.8457 51.0262L72.9463 60.9257C74.5897 62.5692 75.8744 64.4858 76.8105 66.7323L89.7335 61.3477ZM82.8458 51.0263C79.8812 48.0617 76.4218 45.7624 72.5243 44.1385L67.1397 57.0615C69.3862 57.9976 71.3028 59.2823 72.9463 60.9257L82.8458 51.0263ZM72.675 44.2033C68.6714 42.424 64.4133 41.552 59.976 41.552V55.552C62.5361 55.552 64.8486 56.0454 66.989 56.9967L72.675 44.2033ZM59.976 41.552C55.5387 41.552 51.2806 42.424 47.277 44.2033L52.963 56.9967C55.1034 56.0454 57.416 55.552 59.976 55.552V41.552ZM47.4277 44.1385C43.5302 45.7624 40.0708 48.0617 37.1063 51.0263L47.0058 60.9257C48.6492 59.2823 50.5658 57.9976 52.8123 57.0615L47.4277 44.1385ZM37.1063 51.0262C34.1754 53.9571 31.8583 57.3653 30.1553 61.197L42.9487 66.883C43.9763 64.5707 45.3286 62.6029 47.0057 60.9257L37.1063 51.0262ZM30.0905 61.3477C28.4369 65.3162 27.632 69.5213 27.632 73.896H41.632C41.632 71.2733 42.1071 68.9078 43.0135 66.7323L30.0905 61.3477ZM27.632 73.896C27.632 78.2707 28.4369 82.4758 30.0905 86.4443L43.0135 81.0597C42.1071 78.8842 41.632 76.5187 41.632 73.896H27.632ZM30.1553 86.595C31.8583 90.4267 34.1754 93.8349 37.1063 96.7657L47.0057 86.8663C45.3286 85.1891 43.9763 83.2213 42.9487 80.909L30.1553 86.595ZM37.1063 96.7657C40.0371 99.6966 43.4453 102.014 47.277 103.717L52.963 90.9233C50.6507 89.8957 48.6829 88.5434 47.0058 86.8663L37.1063 96.7657ZM47.4277 103.782C51.3962 105.435 55.6013 106.24 59.976 106.24V92.24C57.3533 92.24 54.9878 91.7649 52.8123 90.8585L47.4277 103.782ZM166.133 26.664H173.133V19.664H166.133V26.664ZM166.133 48.424V55.424H173.133V48.424H166.133ZM148.085 48.424V41.424H141.085V48.424H148.085ZM148.085 121V128H155.085V121H148.085ZM126.453 121H119.453V128H126.453V121ZM126.453 48.424H133.453V41.424H126.453V48.424ZM108.533 48.424H101.533V55.424H108.533V48.424ZM108.533 26.664V19.664H101.533V26.664H108.533ZM159.133 26.664V48.424H173.133V26.664H159.133ZM166.133 41.424H148.085V55.424H166.133V41.424ZM141.085 48.424V121H155.085V48.424H141.085ZM148.085 114H126.453V128H148.085V114ZM133.453 121V48.424H119.453V121H133.453ZM126.453 41.424H108.533V55.424H126.453V41.424ZM115.533 48.424V26.664H101.533V48.424H115.533ZM108.533 33.664H166.133V19.664H108.533V33.664ZM232.78 30.632L235.561 24.2079L235.561 24.2079L232.78 30.632ZM247.756 40.744L242.806 45.6937L242.831 45.7187L242.857 45.7435L247.756 40.744ZM257.868 55.592L264.292 52.8114L264.292 52.8114L257.868 55.592ZM257.868 92.2L264.292 94.9806L264.292 94.9806L257.868 92.2ZM247.756 107.176L252.656 112.175L252.681 112.151L252.706 112.126L247.756 107.176ZM232.78 117.16L235.561 123.584L235.561 123.584L232.78 117.16ZM196.172 117.16L193.391 123.584L193.391 123.584L196.172 117.16ZM181.196 107.176L176.197 112.075L176.246 112.126L176.297 112.175L181.196 107.176ZM171.212 92.2L164.788 94.9806L164.788 94.9806L171.212 92.2ZM171.212 55.592L164.788 52.8114L164.788 52.8114L171.212 55.592ZM181.196 40.744L176.246 35.7942L176.246 35.7942L181.196 40.744ZM224.332 97.32L227.024 103.782L227.1 103.75L227.175 103.717L224.332 97.32ZM237.772 83.752L231.375 80.909L231.342 80.984L231.31 81.0597L237.772 83.752ZM237.772 64.04L231.31 66.7323L231.342 66.808L231.375 66.883L237.772 64.04ZM232.396 55.976L227.446 60.9257L227.446 60.9257L232.396 55.976ZM224.332 50.6L221.489 56.9967L221.564 57.03L221.64 57.0615L224.332 50.6ZM204.62 50.6L207.312 57.0615L207.388 57.03L207.463 56.9967L204.62 50.6ZM196.556 55.976L201.506 60.9257L201.506 60.9257L196.556 55.976ZM191.052 64.04L184.655 61.197L184.622 61.272L184.59 61.3477L191.052 64.04ZM191.052 83.752L184.59 86.4443L184.622 86.52L184.655 86.595L191.052 83.752ZM196.556 91.816L201.506 86.8663L201.506 86.8663L196.556 91.816ZM204.62 97.32L201.777 103.717L201.852 103.75L201.928 103.782L204.62 97.32ZM214.476 33.92C220.045 33.92 225.196 34.9769 229.999 37.0561L235.561 24.2079C228.929 21.3377 221.878 19.92 214.476 19.92V33.92ZM229.999 37.0561C234.934 39.1919 239.184 42.0711 242.806 45.6937L252.706 35.7942C247.795 30.8836 242.061 27.0214 235.561 24.2079L229.999 37.0561ZM242.857 45.7435C246.449 49.2637 249.313 53.4503 251.444 58.3726L264.292 52.8114C261.473 46.299 257.597 40.5869 252.656 35.7445L242.857 45.7435ZM251.444 58.3726C253.523 63.1761 254.58 68.3271 254.58 73.896H268.58C268.58 66.4943 267.162 59.4426 264.292 52.8114L251.444 58.3726ZM254.58 73.896C254.58 79.4649 253.523 84.6159 251.444 89.4194L264.292 94.9806C267.162 88.3494 268.58 81.2977 268.58 73.896H254.58ZM251.444 89.4194C249.308 94.3541 246.429 98.6036 242.806 102.226L252.706 112.126C257.616 107.215 261.479 101.481 264.292 94.9806L251.444 89.4194ZM242.857 102.177C239.229 105.732 234.963 108.587 229.999 110.736L235.561 123.584C242.031 120.783 247.75 116.983 252.656 112.175L242.857 102.177ZM229.999 110.736C225.196 112.815 220.045 113.872 214.476 113.872V127.872C221.878 127.872 228.929 126.454 235.561 123.584L229.999 110.736ZM214.476 113.872C208.907 113.872 203.756 112.815 198.953 110.736L193.391 123.584C200.023 126.454 207.074 127.872 214.476 127.872V113.872ZM198.953 110.736C193.989 108.587 189.723 105.732 186.096 102.177L176.297 112.175C181.202 116.983 186.921 120.783 193.391 123.584L198.953 110.736ZM186.195 102.276C182.64 98.6489 179.785 94.3833 177.636 89.4194L164.788 94.9806C167.589 101.451 171.389 107.17 176.197 112.075L186.195 102.276ZM177.636 89.4194C175.557 84.6159 174.5 79.4649 174.5 73.896H160.5C160.5 81.2977 161.918 88.3494 164.788 94.9806L177.636 89.4194ZM174.5 73.896C174.5 68.3271 175.557 63.1761 177.636 58.3726L164.788 52.8114C161.918 59.4426 160.5 66.4943 160.5 73.896H174.5ZM177.636 58.3726C179.779 53.4208 182.621 49.2184 186.146 45.6937L176.246 35.7942C171.408 40.6323 167.594 46.3285 164.788 52.8114L177.636 58.3726ZM186.146 45.6937C189.768 42.0711 194.018 39.1919 198.953 37.0561L193.391 24.2079C186.891 27.0214 181.157 30.8836 176.246 35.7942L186.146 45.6937ZM198.953 37.0561C203.756 34.9769 208.907 33.92 214.476 33.92V19.92C207.074 19.92 200.023 21.3377 193.391 24.2079L198.953 37.0561ZM214.476 106.24C218.851 106.24 223.056 105.435 227.024 103.782L221.64 90.8585C219.464 91.7649 217.099 92.24 214.476 92.24V106.24ZM227.175 103.717C231.007 102.014 234.415 99.6966 237.346 96.7657L227.446 86.8663C225.769 88.5434 223.801 89.8957 221.489 90.9233L227.175 103.717ZM237.346 96.7657C240.31 93.8012 242.61 90.3418 244.234 86.4443L231.31 81.0597C230.374 83.3062 229.09 85.2228 227.446 86.8663L237.346 96.7657ZM244.169 86.595C245.948 82.5914 246.82 78.3333 246.82 73.896H232.82C232.82 76.4561 232.327 78.7686 231.375 80.909L244.169 86.595ZM246.82 73.896C246.82 69.4587 245.948 65.2006 244.169 61.197L231.375 66.883C232.327 69.0234 232.82 71.3359 232.82 73.896H246.82ZM244.234 61.3477C242.61 57.4502 240.31 53.9908 237.346 51.0262L227.446 60.9257C229.09 62.5692 230.374 64.4858 231.31 66.7323L244.234 61.3477ZM237.346 51.0263C234.381 48.0617 230.922 45.7624 227.024 44.1385L221.64 57.0615C223.886 57.9976 225.803 59.2823 227.446 60.9257L237.346 51.0263ZM227.175 44.2033C223.171 42.424 218.913 41.552 214.476 41.552V55.552C217.036 55.552 219.349 56.0454 221.489 56.9967L227.175 44.2033ZM214.476 41.552C210.039 41.552 205.781 42.424 201.777 44.2033L207.463 56.9967C209.603 56.0454 211.916 55.552 214.476 55.552V41.552ZM201.928 44.1385C198.03 45.7624 194.571 48.0617 191.606 51.0263L201.506 60.9257C203.149 59.2823 205.066 57.9976 207.312 57.0615L201.928 44.1385ZM191.606 51.0262C188.675 53.9571 186.358 57.3653 184.655 61.197L197.449 66.883C198.476 64.5707 199.829 62.6029 201.506 60.9257L191.606 51.0262ZM184.59 61.3477C182.937 65.3162 182.132 69.5213 182.132 73.896H196.132C196.132 71.2733 196.607 68.9078 197.514 66.7323L184.59 61.3477ZM182.132 73.896C182.132 78.2707 182.937 82.4758 184.59 86.4443L197.514 81.0597C196.607 78.8842 196.132 76.5187 196.132 73.896H182.132ZM184.655 86.595C186.358 90.4267 188.675 93.8349 191.606 96.7657L201.506 86.8663C199.829 85.1891 198.476 83.2213 197.449 80.909L184.655 86.595ZM191.606 96.7657C194.537 99.6966 197.945 102.014 201.777 103.717L207.463 90.9233C205.151 89.8957 203.183 88.5434 201.506 86.8663L191.606 96.7657ZM201.928 103.782C205.896 105.435 210.101 106.24 214.476 106.24V92.24C211.853 92.24 209.488 91.7649 207.312 90.8585L201.928 103.782ZM330.745 26.92V19.92H325.738L324.12 24.6589L330.745 26.92ZM353.017 26.92L360.005 26.5112L359.619 19.92H353.017V26.92ZM358.521 121V128H365.942L365.509 120.591L358.521 121ZM336.889 121L329.902 121.419L330.296 128H336.889V121ZM334.585 82.6L341.572 82.1808L327.958 80.3467L334.585 82.6ZM321.529 121V128H326.543L328.156 123.253L321.529 121ZM299.897 121L293.282 123.29L294.913 128H299.897V121ZM286.073 81.064L292.688 78.7742L279.087 80.6162L286.073 81.064ZM283.513 121V128H290.079L290.499 121.448L283.513 121ZM261.753 121L254.767 120.553L254.291 128H261.753V121ZM267.769 26.92V19.92H261.202L260.783 26.4733L267.769 26.92ZM290.041 26.92L296.648 24.6075L295.007 19.92H290.041V26.92ZM310.649 85.8L304.042 88.1125L310.732 107.227L317.274 88.0611L310.649 85.8ZM330.745 33.92H353.017V19.92H330.745V33.92ZM346.029 27.3288L351.533 121.409L365.509 120.591L360.005 26.5112L346.029 27.3288ZM358.521 114H336.889V128H358.521V114ZM343.876 120.581L341.572 82.1808L327.598 83.0192L329.902 121.419L343.876 120.581ZM327.958 80.3467L314.902 118.747L328.156 123.253L341.212 84.8533L327.958 80.3467ZM321.529 114H299.897V128H321.529V114ZM306.512 118.71L292.688 78.7742L279.458 83.3538L293.282 123.29L306.512 118.71ZM279.087 80.6162L276.527 120.552L290.499 121.448L293.059 81.5118L279.087 80.6162ZM283.513 114H261.753V128H283.513V114ZM268.739 121.447L274.755 27.3667L260.783 26.4733L254.767 120.553L268.739 121.447ZM267.769 33.92H290.041V19.92H267.769V33.92ZM283.434 29.2325L304.042 88.1125L317.256 83.4875L296.648 24.6075L283.434 29.2325ZM317.274 88.0611L337.37 29.1811L324.12 24.6589L304.024 83.5389L317.274 88.0611Z" fill="black" mask="url(#path-1-outside-1_324_51)"/>
<mask id="path-3-outside-2_324_51" maskUnits="userSpaceOnUse" x="6" y="6" width="360" height="109" fill="black">
<rect fill="white" x="6" y="6" width="360" height="109"/>
<path d="M59.976 13.92C66.4613 13.92 72.5627 15.1573 78.28 17.632C83.9973 20.1067 88.9893 23.4773 93.256 27.744C97.5227 31.9253 100.893 36.8747 103.368 42.592C105.843 48.3093 107.08 54.4107 107.08 60.896C107.08 67.3813 105.843 73.4827 103.368 79.2C100.893 84.9173 97.5227 89.9093 93.256 94.176C88.9893 98.3573 83.9973 101.685 78.28 104.16C72.5627 106.635 66.4613 107.872 59.976 107.872C53.4907 107.872 47.3893 106.635 41.672 104.16C35.9547 101.685 30.9627 98.3573 26.696 94.176C22.5147 89.9093 19.1867 84.9173 16.712 79.2C14.2373 73.4827 13 67.3813 13 60.896C13 54.4107 14.2373 48.3093 16.712 42.592C19.1867 36.8747 22.5147 31.9253 26.696 27.744C30.9627 23.4773 35.9547 20.1067 41.672 17.632C47.3893 15.1573 53.4907 13.92 59.976 13.92ZM59.976 86.24C63.4747 86.24 66.76 85.6 69.832 84.32C72.904 82.9547 75.592 81.12 77.896 78.816C80.2 76.512 81.992 73.824 83.272 70.752C84.6373 67.68 85.32 64.3947 85.32 60.896C85.32 57.3973 84.6373 54.112 83.272 51.04C81.992 47.968 80.2 45.28 77.896 42.976C75.592 40.672 72.904 38.88 69.832 37.6C66.76 36.2347 63.4747 35.552 59.976 35.552C56.4773 35.552 53.192 36.2347 50.12 37.6C47.048 38.88 44.36 40.672 42.056 42.976C39.752 45.28 37.9173 47.968 36.552 51.04C35.272 54.112 34.632 57.3973 34.632 60.896C34.632 64.3947 35.272 67.68 36.552 70.752C37.9173 73.824 39.752 76.512 42.056 78.816C44.36 81.12 47.048 82.9547 50.12 84.32C53.192 85.6 56.4773 86.24 59.976 86.24ZM166.133 13.664V35.424H148.085V108H126.453V35.424H108.533V13.664H166.133ZM214.476 13.92C220.961 13.92 227.063 15.1573 232.78 17.632C238.497 20.1067 243.489 23.4773 247.756 27.744C252.023 31.9253 255.393 36.8747 257.868 42.592C260.343 48.3093 261.58 54.4107 261.58 60.896C261.58 67.3813 260.343 73.4827 257.868 79.2C255.393 84.9173 252.023 89.9093 247.756 94.176C243.489 98.3573 238.497 101.685 232.78 104.16C227.063 106.635 220.961 107.872 214.476 107.872C207.991 107.872 201.889 106.635 196.172 104.16C190.455 101.685 185.463 98.3573 181.196 94.176C177.015 89.9093 173.687 84.9173 171.212 79.2C168.737 73.4827 167.5 67.3813 167.5 60.896C167.5 54.4107 168.737 48.3093 171.212 42.592C173.687 36.8747 177.015 31.9253 181.196 27.744C185.463 23.4773 190.455 20.1067 196.172 17.632C201.889 15.1573 207.991 13.92 214.476 13.92ZM214.476 86.24C217.975 86.24 221.26 85.6 224.332 84.32C227.404 82.9547 230.092 81.12 232.396 78.816C234.7 76.512 236.492 73.824 237.772 70.752C239.137 67.68 239.82 64.3947 239.82 60.896C239.82 57.3973 239.137 54.112 237.772 51.04C236.492 47.968 234.7 45.28 232.396 42.976C230.092 40.672 227.404 38.88 224.332 37.6C221.26 36.2347 217.975 35.552 214.476 35.552C210.977 35.552 207.692 36.2347 204.62 37.6C201.548 38.88 198.86 40.672 196.556 42.976C194.252 45.28 192.417 47.968 191.052 51.04C189.772 54.112 189.132 57.3973 189.132 60.896C189.132 64.3947 189.772 67.68 191.052 70.752C192.417 73.824 194.252 76.512 196.556 78.816C198.86 81.12 201.548 82.9547 204.62 84.32C207.692 85.6 210.977 86.24 214.476 86.24ZM330.745 13.92H353.017L358.521 108H336.889L334.585 69.6L321.529 108H299.897L286.073 68.064L283.513 108H261.753L267.769 13.92H290.041L310.649 72.8L330.745 13.92Z"/>
</mask>
<path d="M59.976 13.92C66.4613 13.92 72.5627 15.1573 78.28 17.632C83.9973 20.1067 88.9893 23.4773 93.256 27.744C97.5227 31.9253 100.893 36.8747 103.368 42.592C105.843 48.3093 107.08 54.4107 107.08 60.896C107.08 67.3813 105.843 73.4827 103.368 79.2C100.893 84.9173 97.5227 89.9093 93.256 94.176C88.9893 98.3573 83.9973 101.685 78.28 104.16C72.5627 106.635 66.4613 107.872 59.976 107.872C53.4907 107.872 47.3893 106.635 41.672 104.16C35.9547 101.685 30.9627 98.3573 26.696 94.176C22.5147 89.9093 19.1867 84.9173 16.712 79.2C14.2373 73.4827 13 67.3813 13 60.896C13 54.4107 14.2373 48.3093 16.712 42.592C19.1867 36.8747 22.5147 31.9253 26.696 27.744C30.9627 23.4773 35.9547 20.1067 41.672 17.632C47.3893 15.1573 53.4907 13.92 59.976 13.92ZM59.976 86.24C63.4747 86.24 66.76 85.6 69.832 84.32C72.904 82.9547 75.592 81.12 77.896 78.816C80.2 76.512 81.992 73.824 83.272 70.752C84.6373 67.68 85.32 64.3947 85.32 60.896C85.32 57.3973 84.6373 54.112 83.272 51.04C81.992 47.968 80.2 45.28 77.896 42.976C75.592 40.672 72.904 38.88 69.832 37.6C66.76 36.2347 63.4747 35.552 59.976 35.552C56.4773 35.552 53.192 36.2347 50.12 37.6C47.048 38.88 44.36 40.672 42.056 42.976C39.752 45.28 37.9173 47.968 36.552 51.04C35.272 54.112 34.632 57.3973 34.632 60.896C34.632 64.3947 35.272 67.68 36.552 70.752C37.9173 73.824 39.752 76.512 42.056 78.816C44.36 81.12 47.048 82.9547 50.12 84.32C53.192 85.6 56.4773 86.24 59.976 86.24ZM166.133 13.664V35.424H148.085V108H126.453V35.424H108.533V13.664H166.133ZM214.476 13.92C220.961 13.92 227.063 15.1573 232.78 17.632C238.497 20.1067 243.489 23.4773 247.756 27.744C252.023 31.9253 255.393 36.8747 257.868 42.592C260.343 48.3093 261.58 54.4107 261.58 60.896C261.58 67.3813 260.343 73.4827 257.868 79.2C255.393 84.9173 252.023 89.9093 247.756 94.176C243.489 98.3573 238.497 101.685 232.78 104.16C227.063 106.635 220.961 107.872 214.476 107.872C207.991 107.872 201.889 106.635 196.172 104.16C190.455 101.685 185.463 98.3573 181.196 94.176C177.015 89.9093 173.687 84.9173 171.212 79.2C168.737 73.4827 167.5 67.3813 167.5 60.896C167.5 54.4107 168.737 48.3093 171.212 42.592C173.687 36.8747 177.015 31.9253 181.196 27.744C185.463 23.4773 190.455 20.1067 196.172 17.632C201.889 15.1573 207.991 13.92 214.476 13.92ZM214.476 86.24C217.975 86.24 221.26 85.6 224.332 84.32C227.404 82.9547 230.092 81.12 232.396 78.816C234.7 76.512 236.492 73.824 237.772 70.752C239.137 67.68 239.82 64.3947 239.82 60.896C239.82 57.3973 239.137 54.112 237.772 51.04C236.492 47.968 234.7 45.28 232.396 42.976C230.092 40.672 227.404 38.88 224.332 37.6C221.26 36.2347 217.975 35.552 214.476 35.552C210.977 35.552 207.692 36.2347 204.62 37.6C201.548 38.88 198.86 40.672 196.556 42.976C194.252 45.28 192.417 47.968 191.052 51.04C189.772 54.112 189.132 57.3973 189.132 60.896C189.132 64.3947 189.772 67.68 191.052 70.752C192.417 73.824 194.252 76.512 196.556 78.816C198.86 81.12 201.548 82.9547 204.62 84.32C207.692 85.6 210.977 86.24 214.476 86.24ZM330.745 13.92H353.017L358.521 108H336.889L334.585 69.6L321.529 108H299.897L286.073 68.064L283.513 108H261.753L267.769 13.92H290.041L310.649 72.8L330.745 13.92Z" fill="white"/>
<path d="M78.28 17.632L81.0606 11.2079L81.0606 11.2079L78.28 17.632ZM93.256 27.744L88.3063 32.6937L88.3313 32.7187L88.3565 32.7435L93.256 27.744ZM103.368 42.592L109.792 39.8114L109.792 39.8114L103.368 42.592ZM103.368 79.2L109.792 81.9806L109.792 81.9806L103.368 79.2ZM93.256 94.176L98.1555 99.1755L98.1808 99.1507L98.2058 99.1257L93.256 94.176ZM78.28 104.16L81.0606 110.584L81.0606 110.584L78.28 104.16ZM41.672 104.16L38.8914 110.584L38.8914 110.584L41.672 104.16ZM26.696 94.176L21.6965 99.0755L21.746 99.126L21.7965 99.1755L26.696 94.176ZM16.712 79.2L10.2879 81.9806L10.2879 81.9806L16.712 79.2ZM16.712 42.592L10.2879 39.8114L10.2879 39.8114L16.712 42.592ZM26.696 27.744L21.7463 22.7942L21.7463 22.7942L26.696 27.744ZM69.832 84.32L72.5243 90.7815L72.6 90.75L72.675 90.7167L69.832 84.32ZM83.272 70.752L76.8753 67.909L76.842 67.984L76.8105 68.0597L83.272 70.752ZM83.272 51.04L76.8105 53.7323L76.842 53.808L76.8753 53.883L83.272 51.04ZM77.896 42.976L72.9463 47.9257L72.9463 47.9257L77.896 42.976ZM69.832 37.6L66.989 43.9967L67.064 44.03L67.1397 44.0615L69.832 37.6ZM50.12 37.6L52.8123 44.0615L52.888 44.03L52.963 43.9967L50.12 37.6ZM42.056 42.976L47.0057 47.9257L47.0058 47.9257L42.056 42.976ZM36.552 51.04L30.1553 48.197L30.122 48.272L30.0905 48.3477L36.552 51.04ZM36.552 70.752L30.0905 73.4443L30.122 73.52L30.1553 73.595L36.552 70.752ZM42.056 78.816L47.0058 73.8663L47.0057 73.8663L42.056 78.816ZM50.12 84.32L47.277 90.7167L47.352 90.75L47.4277 90.7815L50.12 84.32ZM59.976 20.92C65.5449 20.92 70.6959 21.9769 75.4994 24.0561L81.0606 11.2079C74.4294 8.33775 67.3777 6.92 59.976 6.92V20.92ZM75.4994 24.0561C80.4341 26.1919 84.6836 29.0711 88.3063 32.6937L98.2058 22.7942C93.2951 17.8836 87.5606 14.0214 81.0606 11.2079L75.4994 24.0561ZM88.3565 32.7435C91.9486 36.2637 94.8134 40.4503 96.9439 45.3726L109.792 39.8114C106.973 33.299 103.097 27.5869 98.1555 22.7445L88.3565 32.7435ZM96.9439 45.3726C99.0231 50.1761 100.08 55.3271 100.08 60.896H114.08C114.08 53.4943 112.662 46.4426 109.792 39.8114L96.9439 45.3726ZM100.08 60.896C100.08 66.4649 99.0231 71.6159 96.9439 76.4194L109.792 81.9806C112.662 75.3494 114.08 68.2977 114.08 60.896H100.08ZM96.9439 76.4194C94.8081 81.3541 91.9289 85.6036 88.3063 89.2263L98.2058 99.1257C103.116 94.2151 106.979 88.4806 109.792 81.9806L96.9439 76.4194ZM88.3565 89.1765C84.7289 92.7315 80.4633 95.5874 75.4994 97.7359L81.0606 110.584C87.5313 107.783 93.2497 103.983 98.1555 99.1755L88.3565 89.1765ZM75.4994 97.7359C70.6959 99.8151 65.5449 100.872 59.976 100.872V114.872C67.3777 114.872 74.4294 113.454 81.0606 110.584L75.4994 97.7359ZM59.976 100.872C54.4071 100.872 49.2561 99.8151 44.4526 97.7359L38.8914 110.584C45.5226 113.454 52.5743 114.872 59.976 114.872V100.872ZM44.4526 97.7359C39.4887 95.5874 35.2231 92.7315 31.5955 89.1765L21.7965 99.1755C26.7023 103.983 32.4207 107.783 38.8914 110.584L44.4526 97.7359ZM31.6955 89.2765C28.1405 85.6489 25.2846 81.3833 23.1361 76.4194L10.2879 81.9806C13.0887 88.4513 16.8889 94.1697 21.6965 99.0755L31.6955 89.2765ZM23.1361 76.4194C21.0569 71.6159 20 66.4649 20 60.896H6C6 68.2977 7.41775 75.3494 10.2879 81.9806L23.1361 76.4194ZM20 60.896C20 55.3271 21.0569 50.1761 23.1361 45.3726L10.2879 39.8114C7.41775 46.4426 6 53.4943 6 60.896H20ZM23.1361 45.3726C25.2794 40.4208 28.1211 36.2184 31.6457 32.6937L21.7463 22.7942C16.9082 27.6323 13.094 33.3285 10.2879 39.8114L23.1361 45.3726ZM31.6457 32.6937C35.2684 29.0711 39.5179 26.1919 44.4526 24.0561L38.8914 11.2079C32.3914 14.0214 26.6569 17.8836 21.7463 22.7942L31.6457 32.6937ZM44.4526 24.0561C49.2561 21.9769 54.4071 20.92 59.976 20.92V6.92C52.5743 6.92 45.5226 8.33775 38.8914 11.2079L44.4526 24.0561ZM59.976 93.24C64.3507 93.24 68.5558 92.4351 72.5243 90.7815L67.1397 77.8585C64.9642 78.7649 62.5987 79.24 59.976 79.24V93.24ZM72.675 90.7167C76.5067 89.0137 79.9149 86.6966 82.8458 83.7657L72.9463 73.8663C71.2691 75.5434 69.3013 76.8957 66.989 77.9233L72.675 90.7167ZM82.8458 83.7657C85.8103 80.8012 88.1096 77.3418 89.7335 73.4443L76.8105 68.0597C75.8744 70.3062 74.5897 72.2228 72.9463 73.8663L82.8458 83.7657ZM89.6687 73.595C91.448 69.5914 92.32 65.3333 92.32 60.896H78.32C78.32 63.4561 77.8266 65.7686 76.8753 67.909L89.6687 73.595ZM92.32 60.896C92.32 56.4587 91.448 52.2006 89.6687 48.197L76.8753 53.883C77.8266 56.0234 78.32 58.3359 78.32 60.896H92.32ZM89.7335 48.3477C88.1096 44.4502 85.8103 40.9908 82.8457 38.0262L72.9463 47.9257C74.5897 49.5692 75.8744 51.4858 76.8105 53.7323L89.7335 48.3477ZM82.8458 38.0263C79.8812 35.0617 76.4218 32.7624 72.5243 31.1385L67.1397 44.0615C69.3862 44.9976 71.3028 46.2823 72.9463 47.9257L82.8458 38.0263ZM72.675 31.2033C68.6714 29.424 64.4133 28.552 59.976 28.552V42.552C62.5361 42.552 64.8486 43.0454 66.989 43.9967L72.675 31.2033ZM59.976 28.552C55.5387 28.552 51.2806 29.424 47.277 31.2033L52.963 43.9967C55.1034 43.0454 57.416 42.552 59.976 42.552V28.552ZM47.4277 31.1385C43.5302 32.7624 40.0708 35.0617 37.1063 38.0263L47.0058 47.9257C48.6492 46.2823 50.5658 44.9976 52.8123 44.0615L47.4277 31.1385ZM37.1063 38.0262C34.1754 40.9571 31.8583 44.3653 30.1553 48.197L42.9487 53.883C43.9763 51.5707 45.3286 49.6029 47.0057 47.9257L37.1063 38.0262ZM30.0905 48.3477C28.4369 52.3162 27.632 56.5213 27.632 60.896H41.632C41.632 58.2733 42.1071 55.9078 43.0135 53.7323L30.0905 48.3477ZM27.632 60.896C27.632 65.2707 28.4369 69.4758 30.0905 73.4443L43.0135 68.0597C42.1071 65.8842 41.632 63.5187 41.632 60.896H27.632ZM30.1553 73.595C31.8583 77.4267 34.1754 80.8349 37.1063 83.7657L47.0057 73.8663C45.3286 72.1891 43.9763 70.2213 42.9487 67.909L30.1553 73.595ZM37.1063 83.7657C40.0371 86.6966 43.4453 89.0137 47.277 90.7167L52.963 77.9233C50.6507 76.8957 48.6829 75.5434 47.0058 73.8663L37.1063 83.7657ZM47.4277 90.7815C51.3962 92.4351 55.6013 93.24 59.976 93.24V79.24C57.3533 79.24 54.9878 78.7649 52.8123 77.8585L47.4277 90.7815ZM166.133 13.664H173.133V6.66399H166.133V13.664ZM166.133 35.424V42.424H173.133V35.424H166.133ZM148.085 35.424V28.424H141.085V35.424H148.085ZM148.085 108V115H155.085V108H148.085ZM126.453 108H119.453V115H126.453V108ZM126.453 35.424H133.453V28.424H126.453V35.424ZM108.533 35.424H101.533V42.424H108.533V35.424ZM108.533 13.664V6.66399H101.533V13.664H108.533ZM159.133 13.664V35.424H173.133V13.664H159.133ZM166.133 28.424H148.085V42.424H166.133V28.424ZM141.085 35.424V108H155.085V35.424H141.085ZM148.085 101H126.453V115H148.085V101ZM133.453 108V35.424H119.453V108H133.453ZM126.453 28.424H108.533V42.424H126.453V28.424ZM115.533 35.424V13.664H101.533V35.424H115.533ZM108.533 20.664H166.133V6.66399H108.533V20.664ZM232.78 17.632L235.561 11.2079L235.561 11.2079L232.78 17.632ZM247.756 27.744L242.806 32.6937L242.831 32.7187L242.857 32.7435L247.756 27.744ZM257.868 42.592L264.292 39.8114L264.292 39.8114L257.868 42.592ZM257.868 79.2L264.292 81.9806L264.292 81.9806L257.868 79.2ZM247.756 94.176L252.656 99.1755L252.681 99.1507L252.706 99.1257L247.756 94.176ZM232.78 104.16L235.561 110.584L235.561 110.584L232.78 104.16ZM196.172 104.16L193.391 110.584L193.391 110.584L196.172 104.16ZM181.196 94.176L176.197 99.0755L176.246 99.126L176.297 99.1755L181.196 94.176ZM171.212 79.2L164.788 81.9806L164.788 81.9806L171.212 79.2ZM171.212 42.592L164.788 39.8114L164.788 39.8114L171.212 42.592ZM181.196 27.744L176.246 22.7942L176.246 22.7942L181.196 27.744ZM224.332 84.32L227.024 90.7815L227.1 90.75L227.175 90.7167L224.332 84.32ZM237.772 70.752L231.375 67.909L231.342 67.984L231.31 68.0597L237.772 70.752ZM237.772 51.04L231.31 53.7323L231.342 53.808L231.375 53.883L237.772 51.04ZM232.396 42.976L227.446 47.9257L227.446 47.9257L232.396 42.976ZM224.332 37.6L221.489 43.9967L221.564 44.03L221.64 44.0615L224.332 37.6ZM204.62 37.6L207.312 44.0615L207.388 44.03L207.463 43.9967L204.62 37.6ZM196.556 42.976L201.506 47.9257L201.506 47.9257L196.556 42.976ZM191.052 51.04L184.655 48.197L184.622 48.272L184.59 48.3477L191.052 51.04ZM191.052 70.752L184.59 73.4443L184.622 73.52L184.655 73.595L191.052 70.752ZM196.556 78.816L201.506 73.8663L201.506 73.8663L196.556 78.816ZM204.62 84.32L201.777 90.7167L201.852 90.75L201.928 90.7815L204.62 84.32ZM214.476 20.92C220.045 20.92 225.196 21.9769 229.999 24.0561L235.561 11.2079C228.929 8.33775 221.878 6.92 214.476 6.92V20.92ZM229.999 24.0561C234.934 26.1919 239.184 29.0711 242.806 32.6937L252.706 22.7942C247.795 17.8836 242.061 14.0214 235.561 11.2079L229.999 24.0561ZM242.857 32.7435C246.449 36.2637 249.313 40.4503 251.444 45.3726L264.292 39.8114C261.473 33.299 257.597 27.5869 252.656 22.7445L242.857 32.7435ZM251.444 45.3726C253.523 50.1761 254.58 55.3271 254.58 60.896H268.58C268.58 53.4943 267.162 46.4426 264.292 39.8114L251.444 45.3726ZM254.58 60.896C254.58 66.4649 253.523 71.6159 251.444 76.4194L264.292 81.9806C267.162 75.3494 268.58 68.2977 268.58 60.896H254.58ZM251.444 76.4194C249.308 81.3541 246.429 85.6036 242.806 89.2263L252.706 99.1257C257.616 94.2151 261.479 88.4806 264.292 81.9806L251.444 76.4194ZM242.857 89.1765C239.229 92.7315 234.963 95.5874 229.999 97.7359L235.561 110.584C242.031 107.783 247.75 103.983 252.656 99.1755L242.857 89.1765ZM229.999 97.7359C225.196 99.8151 220.045 100.872 214.476 100.872V114.872C221.878 114.872 228.929 113.454 235.561 110.584L229.999 97.7359ZM214.476 100.872C208.907 100.872 203.756 99.8151 198.953 97.7359L193.391 110.584C200.023 113.454 207.074 114.872 214.476 114.872V100.872ZM198.953 97.7359C193.989 95.5874 189.723 92.7315 186.096 89.1765L176.297 99.1755C181.202 103.983 186.921 107.783 193.391 110.584L198.953 97.7359ZM186.195 89.2765C182.64 85.6489 179.785 81.3833 177.636 76.4194L164.788 81.9806C167.589 88.4513 171.389 94.1697 176.197 99.0755L186.195 89.2765ZM177.636 76.4194C175.557 71.6159 174.5 66.4649 174.5 60.896H160.5C160.5 68.2977 161.918 75.3494 164.788 81.9806L177.636 76.4194ZM174.5 60.896C174.5 55.3271 175.557 50.1761 177.636 45.3726L164.788 39.8114C161.918 46.4426 160.5 53.4943 160.5 60.896H174.5ZM177.636 45.3726C179.779 40.4208 182.621 36.2184 186.146 32.6937L176.246 22.7942C171.408 27.6323 167.594 33.3285 164.788 39.8114L177.636 45.3726ZM186.146 32.6937C189.768 29.0711 194.018 26.1919 198.953 24.0561L193.391 11.2079C186.891 14.0214 181.157 17.8836 176.246 22.7942L186.146 32.6937ZM198.953 24.0561C203.756 21.9769 208.907 20.92 214.476 20.92V6.92C207.074 6.92 200.023 8.33775 193.391 11.2079L198.953 24.0561ZM214.476 93.24C218.851 93.24 223.056 92.4351 227.024 90.7815L221.64 77.8585C219.464 78.7649 217.099 79.24 214.476 79.24V93.24ZM227.175 90.7167C231.007 89.0137 234.415 86.6966 237.346 83.7657L227.446 73.8663C225.769 75.5434 223.801 76.8957 221.489 77.9233L227.175 90.7167ZM237.346 83.7657C240.31 80.8012 242.61 77.3418 244.234 73.4443L231.31 68.0597C230.374 70.3062 229.09 72.2228 227.446 73.8663L237.346 83.7657ZM244.169 73.595C245.948 69.5914 246.82 65.3333 246.82 60.896H232.82C232.82 63.4561 232.327 65.7686 231.375 67.909L244.169 73.595ZM246.82 60.896C246.82 56.4587 245.948 52.2006 244.169 48.197L231.375 53.883C232.327 56.0234 232.82 58.3359 232.82 60.896H246.82ZM244.234 48.3477C242.61 44.4502 240.31 40.9908 237.346 38.0262L227.446 47.9257C229.09 49.5692 230.374 51.4858 231.31 53.7323L244.234 48.3477ZM237.346 38.0263C234.381 35.0617 230.922 32.7624 227.024 31.1385L221.64 44.0615C223.886 44.9976 225.803 46.2823 227.446 47.9257L237.346 38.0263ZM227.175 31.2033C223.171 29.424 218.913 28.552 214.476 28.552V42.552C217.036 42.552 219.349 43.0454 221.489 43.9967L227.175 31.2033ZM214.476 28.552C210.039 28.552 205.781 29.424 201.777 31.2033L207.463 43.9967C209.603 43.0454 211.916 42.552 214.476 42.552V28.552ZM201.928 31.1385C198.03 32.7624 194.571 35.0617 191.606 38.0263L201.506 47.9257C203.149 46.2823 205.066 44.9976 207.312 44.0615L201.928 31.1385ZM191.606 38.0262C188.675 40.9571 186.358 44.3653 184.655 48.197L197.449 53.883C198.476 51.5707 199.829 49.6029 201.506 47.9257L191.606 38.0262ZM184.59 48.3477C182.937 52.3162 182.132 56.5213 182.132 60.896H196.132C196.132 58.2733 196.607 55.9078 197.514 53.7323L184.59 48.3477ZM182.132 60.896C182.132 65.2707 182.937 69.4758 184.59 73.4443L197.514 68.0597C196.607 65.8842 196.132 63.5187 196.132 60.896H182.132ZM184.655 73.595C186.358 77.4267 188.675 80.8349 191.606 83.7657L201.506 73.8663C199.829 72.1891 198.476 70.2213 197.449 67.909L184.655 73.595ZM191.606 83.7657C194.537 86.6966 197.945 89.0137 201.777 90.7167L207.463 77.9233C205.151 76.8957 203.183 75.5434 201.506 73.8663L191.606 83.7657ZM201.928 90.7815C205.896 92.4351 210.101 93.24 214.476 93.24V79.24C211.853 79.24 209.488 78.7649 207.312 77.8585L201.928 90.7815ZM330.745 13.92V6.92H325.738L324.12 11.6589L330.745 13.92ZM353.017 13.92L360.005 13.5112L359.619 6.92H353.017V13.92ZM358.521 108V115H365.942L365.509 107.591L358.521 108ZM336.889 108L329.902 108.419L330.296 115H336.889V108ZM334.585 69.6L341.572 69.1808L327.958 67.3467L334.585 69.6ZM321.529 108V115H326.543L328.156 110.253L321.529 108ZM299.897 108L293.282 110.29L294.913 115H299.897V108ZM286.073 68.064L292.688 65.7742L279.087 67.6162L286.073 68.064ZM283.513 108V115H290.079L290.499 108.448L283.513 108ZM261.753 108L254.767 107.553L254.291 115H261.753V108ZM267.769 13.92V6.92H261.202L260.783 13.4733L267.769 13.92ZM290.041 13.92L296.648 11.6075L295.007 6.92H290.041V13.92ZM310.649 72.8L304.042 75.1125L310.732 94.2274L317.274 75.0611L310.649 72.8ZM330.745 20.92H353.017V6.92H330.745V20.92ZM346.029 14.3288L351.533 108.409L365.509 107.591L360.005 13.5112L346.029 14.3288ZM358.521 101H336.889V115H358.521V101ZM343.876 107.581L341.572 69.1808L327.598 70.0192L329.902 108.419L343.876 107.581ZM327.958 67.3467L314.902 105.747L328.156 110.253L341.212 71.8533L327.958 67.3467ZM321.529 101H299.897V115H321.529V101ZM306.512 105.71L292.688 65.7742L279.458 70.3538L293.282 110.29L306.512 105.71ZM279.087 67.6162L276.527 107.552L290.499 108.448L293.059 68.5118L279.087 67.6162ZM283.513 101H261.753V115H283.513V101ZM268.739 108.447L274.755 14.3667L260.783 13.4733L254.767 107.553L268.739 108.447ZM267.769 20.92H290.041V6.92H267.769V20.92ZM283.434 16.2325L304.042 75.1125L317.256 70.4875L296.648 11.6075L283.434 16.2325ZM317.274 75.0611L337.37 16.1811L324.12 11.6589L304.024 70.5389L317.274 75.0611Z" fill="black" mask="url(#path-3-outside-2_324_51)"/>
</svg>
