<svg width="14" height="15" viewBox="0 0 14 15" fill="none" xmlns="http://www.w3.org/2000/svg">
<path d="M9.58807 0.712811C9.99567 0.276011 10.5431 0.021651 11.1193 0.00131969C11.6955 -0.0190116 12.2573 0.196207 12.6909 0.603328L12.7999 0.712811L13.335 1.28618C13.7425 1.72283 13.9798 2.30915 13.9988 2.92627C14.0177 3.5434 13.817 4.14517 13.4372 4.60961L13.335 4.7264L4.84798 13.82C4.72798 13.9486 4.58261 14.0467 4.42256 14.1071L4.29993 14.1452L0.928427 14.9789C0.810295 15.0084 0.687291 15.0069 0.569772 14.9748C0.452254 14.9427 0.343663 14.8808 0.253145 14.7943C0.162626 14.7078 0.0928304 14.5993 0.0496348 14.4778C0.00643924 14.3564 -0.0088913 14.2257 0.00493437 14.0966L0.0200736 14.0049L0.797473 10.392C0.835878 10.2148 0.910892 10.049 1.01699 9.90699L1.10101 9.80562L9.58807 0.712811ZM9.0529 3.57966L2.24781 10.8704L1.76638 13.1072L3.85408 12.5906L10.6592 5.29976L9.0529 3.57966ZM11.7295 1.85955C11.5992 1.71992 11.4258 1.63603 11.2418 1.62364C11.0578 1.61125 10.876 1.6712 10.7303 1.79224L10.6592 1.85955L10.1232 2.43292L11.7295 4.15303L12.2647 3.57966C12.395 3.44001 12.4733 3.25421 12.4849 3.05712C12.4964 2.86003 12.4405 2.66519 12.3275 2.50915L12.2647 2.43292L11.7295 1.85955Z" fill="#7094FA"/>
</svg>
