<svg width="16" height="16" viewBox="0 0 16 16" fill="none" xmlns="http://www.w3.org/2000/svg">
<path fill-rule="evenodd" clip-rule="evenodd" d="M2.34315 2.34315C3.84344 0.842856 5.87827 0 8 0C10.1217 0 12.1566 0.842856 13.6569 2.34315C15.1571 3.84344 16 5.87827 16 8C16 12.44 12.44 16 8 16C5.87827 16 3.84344 15.1571 2.34315 13.6569C0.842856 12.1566 0 10.1217 0 8C0 5.87827 0.842856 3.84344 2.34315 2.34315ZM4.46447 4.46447C5.40215 3.52679 6.67392 3 8 3C9.32608 3 10.5979 3.52679 11.5355 4.46447C12.4732 5.40215 13 6.67392 13 8C13 10.775 10.775 13 8 13C6.67392 13 5.40215 12.4732 4.46447 11.5355C3.52679 10.5979 3 9.32608 3 8C3 6.67392 3.52679 5.40215 4.46447 4.46447Z" fill="#7094FA"/>
</svg>
