<svg width="16" height="17" viewBox="0 0 16 17" fill="none" xmlns="http://www.w3.org/2000/svg">
<path d="M9.74122 2.7194L9.74106 2.71897C9.14903 1.09368 6.85097 1.09368 6.25894 2.71897L6.25878 2.7194L5.18137 5.68137L2.2194 6.75878L2.21897 6.75894C0.593676 7.35097 0.593676 9.64903 2.21897 10.2411L2.2194 10.2412L5.18137 11.3186L6.25878 14.2806L6.25894 14.281C6.85097 15.9063 9.14903 15.9063 9.74106 14.281L9.74122 14.2806L10.8186 11.3186L13.7806 10.2412L13.781 10.2411C15.4063 9.64903 15.4063 7.35097 13.781 6.75894L13.7806 6.75878L10.8186 5.68137L9.74122 2.7194Z" stroke="#7094FA" stroke-width="2"/>
</svg>
