<svg width="21" height="24" viewBox="0 0 21 24" fill="none" xmlns="http://www.w3.org/2000/svg">
<g clip-path="url(#clip0_92_737)">
<path d="M15.563 8.64166C17.0951 9.74607 18.9722 10.3959 20.9994 10.3959V6.46237C20.6157 6.46253 20.2331 6.42214 19.8577 6.34188V9.43813C17.8306 9.43813 15.9538 8.78839 14.4213 7.68406V15.7113C14.4213 19.727 11.1929 22.9821 7.21079 22.9821C5.72496 22.9821 4.34388 22.5291 3.19667 21.7523C4.50605 23.1023 6.33207 23.9398 8.35217 23.9398C12.3346 23.9398 15.5631 20.6847 15.5631 16.6688V8.64166H15.563ZM16.9714 4.67322C16.1884 3.81062 15.6742 2.69586 15.563 1.46342V0.95752H14.4811C14.7534 2.52389 15.6824 3.8621 16.9714 4.67322ZM5.71536 18.6708C5.27783 18.0925 5.04134 17.3849 5.04246 16.6573C5.04246 14.8207 6.5191 13.3316 8.34093 13.3316C8.6804 13.3314 9.01786 13.384 9.34147 13.4874V9.46593C8.9633 9.41371 8.58169 9.39145 8.20025 9.39964V12.5297C7.87648 12.4263 7.53885 12.3737 7.19922 12.374C5.37747 12.374 3.90091 13.863 3.90091 15.6998C3.90091 16.9986 4.63894 18.1231 5.71536 18.6708Z" fill="#FF004F"/>
<path d="M14.4213 7.68397C15.9539 8.78831 17.8306 9.43804 19.8577 9.43804V6.34179C18.7262 6.09873 17.7245 5.50254 16.9714 4.67322C15.6822 3.86202 14.7534 2.52381 14.4811 0.95752H11.6393V16.6687C11.6328 18.5003 10.1587 19.9833 8.34078 19.9833C7.26961 19.9833 6.31789 19.4685 5.7152 18.6708C4.63895 18.1231 3.90084 16.9985 3.90084 15.6999C3.90084 13.8632 5.3774 12.3741 7.19915 12.3741C7.54819 12.3741 7.8846 12.4289 8.20017 12.5298V9.39973C4.28794 9.48124 1.14163 12.7045 1.14163 16.6687C1.14163 18.6477 1.92511 20.4416 3.19676 21.7524C4.34397 22.5291 5.72496 22.9822 7.21088 22.9822C11.1931 22.9822 14.4214 19.7269 14.4214 15.7113L14.4213 7.68397Z" fill="black"/>
<path d="M19.8577 6.34179V5.50477C18.8373 5.50627 17.8371 5.21813 16.9714 4.6733C17.7377 5.51927 18.7468 6.10265 19.8577 6.34196M14.481 0.957517C14.455 0.807854 14.4351 0.657193 14.4213 0.505903V0H10.4974V15.7113C10.4911 17.5428 9.01704 19.0258 7.19906 19.0258C6.68368 19.0266 6.17534 18.905 5.71512 18.671C6.3178 19.4686 7.26953 19.9833 8.34069 19.9833C10.1585 19.9833 11.6328 18.5004 11.6392 16.6688V0.9576L14.481 0.957517ZM8.20034 9.39972V8.5085C7.87245 8.46333 7.54189 8.44072 7.21096 8.4408C3.22834 8.4408 0 11.696 0 15.7113C0 18.2287 1.26878 20.4473 3.19684 21.7524C1.92519 20.4416 1.14171 18.6476 1.14171 16.6687C1.14171 12.7046 4.28794 9.48124 8.20034 9.39972Z" fill="#00F2EA"/>
</g>
<defs>
<clipPath id="clip0_92_737">
<rect width="21" height="24" fill="white"/>
</clipPath>
</defs>
</svg>
