<svg width="27" height="22" viewBox="0 0 27 22" fill="none" xmlns="http://www.w3.org/2000/svg">
<path d="M27 2.60431C25.989 3.05345 24.9166 3.34822 23.8184 3.47883C24.9622 2.79148 25.8405 1.70304 26.254 0.40617C25.1667 1.05308 23.9771 1.50888 22.7365 1.7539C21.726 0.674553 20.2865 0 18.6932 0C15.6339 0 13.1536 2.48672 13.1536 5.55377C13.1536 5.98913 13.2027 6.41296 13.2971 6.81955C8.69337 6.58786 4.61173 4.37682 1.87956 1.01664C1.40284 1.83691 1.12968 2.79106 1.12968 3.80875C1.12968 5.73566 2.10769 7.43552 3.59395 8.43154C2.71428 8.40397 1.85396 8.16575 1.08485 7.73679C1.08457 7.76005 1.08446 7.78335 1.08454 7.80669C1.08454 10.4976 2.99394 12.7424 5.52793 13.2526C4.71222 13.475 3.8566 13.5075 3.02643 13.3478C3.73127 15.5543 5.77705 17.1599 8.20093 17.2048C6.30513 18.6944 3.91658 19.5823 1.32142 19.5823C0.874231 19.5823 0.433371 19.556 0 19.5047C2.45141 21.0805 5.36309 22 8.49129 22C18.6803 22 24.2519 13.5371 24.2519 6.19787C24.2519 5.95698 24.2466 5.71747 24.2359 5.47933C25.3203 4.69321 26.2563 3.71966 27 2.60431Z" fill="#55ACEE"/>
</svg>
