<svg width="14" height="13" viewBox="0 0 14 13" fill="none" xmlns="http://www.w3.org/2000/svg">
<path d="M0.5 0.717167C0.5 0.321389 0.821389 0 1.21717 0H12.7828C13.1786 0 13.5 0.321389 13.5 0.717167V12.2828C13.4998 12.473 13.4242 12.6553 13.2897 12.7897C13.1553 12.9242 12.973 12.9998 12.7828 13H1.21717C1.02696 13 0.844548 12.9244 0.710053 12.7899C0.575558 12.6555 0.5 12.473 0.5 12.2828V0.717167ZM1.94444 1.44444V11.5556H12.0556V1.44444H1.94444ZM6.00478 3.91083L9.5285 6.2595C9.56813 6.28587 9.60062 6.32162 9.6231 6.36358C9.64558 6.40554 9.65734 6.4524 9.65734 6.5C9.65734 6.5476 9.64558 6.59446 9.6231 6.63642C9.60062 6.67838 9.56813 6.71413 9.5285 6.7405L6.00406 9.08917C5.9606 9.11797 5.91015 9.13448 5.85807 9.13694C5.80599 9.1394 5.75422 9.12772 5.70824 9.10314C5.66226 9.07856 5.62379 9.04199 5.59691 8.99732C5.57003 8.95264 5.55574 8.90153 5.55556 8.84939V4.15061C5.55565 4.09836 5.56992 4.04711 5.59684 4.00233C5.62375 3.95754 5.66231 3.92089 5.70841 3.89629C5.75451 3.87168 5.80642 3.86004 5.8586 3.8626C5.91079 3.86517 5.96131 3.88183 6.00478 3.91083Z" fill="#7094FA"/>
</svg>
