<svg width="28" height="20" viewBox="0 0 28 20" fill="none" xmlns="http://www.w3.org/2000/svg">
<path d="M11.2 14.2857L18.466 10L11.2 5.71429V14.2857ZM27.384 3.1C27.566 3.77143 27.692 4.67143 27.776 5.81429C27.874 6.95714 27.916 7.94286 27.916 8.8L28 10C28 13.1286 27.776 15.4286 27.384 16.9C27.034 18.1857 26.222 19.0143 24.962 19.3714C24.304 19.5571 23.1 19.6857 21.252 19.7714C19.432 19.8714 17.766 19.9143 16.226 19.9143L14 20C8.134 20 4.48 19.7714 3.038 19.3714C1.778 19.0143 0.966 18.1857 0.616 16.9C0.434 16.2286 0.308 15.3286 0.224 14.1857C0.126 13.0429 0.0839999 12.0571 0.0839999 11.2L0 10C0 6.87143 0.224 4.57143 0.616 3.1C0.966 1.81429 1.778 0.985714 3.038 0.628572C3.696 0.442857 4.9 0.314286 6.748 0.228571C8.568 0.128571 10.234 0.0857142 11.774 0.0857142L14 0C19.866 0 23.52 0.228572 24.962 0.628572C26.222 0.985714 27.034 1.81429 27.384 3.1Z" fill="#FF0000"/>
</svg>
